<mxfile modified="2022-10-11T15:16:35.031Z" host="app.diagrams.net" agent="5.0 (Macintosh; Intel Mac OS X 10_15_7) AppleWebKit/537.36 (KHTML, like Gecko) Chrome/105.0.0.0 Safari/537.36" etag="W8C8--8Orp4ABtB8tDZE" version="20.4.0" type="github">
  <diagram id="Ht1M8jgEwFfnCIfOTk4-" name="Page-1">
    <mxGraphModel dx="1183" dy="808" grid="1" gridSize="10" guides="1" tooltips="1" connect="1" arrows="1" fold="1" page="1" pageScale="1" pageWidth="1169" pageHeight="827" math="0" shadow="0">
      <root>
        <mxCell id="0" />
        <mxCell id="1" parent="0" />
        <mxCell id="GzttGRGBfrO-tsGl2VA5-89" style="edgeStyle=orthogonalEdgeStyle;rounded=0;orthogonalLoop=1;jettySize=auto;html=1;fontSize=11;" parent="1" source="GzttGRGBfrO-tsGl2VA5-24" edge="1">
          <mxGeometry relative="1" as="geometry">
            <mxPoint x="170" y="164.5" as="targetPoint" />
          </mxGeometry>
        </mxCell>
        <mxCell id="GzttGRGBfrO-tsGl2VA5-24" value="" style="shape=image;verticalLabelPosition=bottom;labelBackgroundColor=default;verticalAlign=top;aspect=fixed;imageAspect=0;image=data:image/png,iVBORw0KGgoAAAANSUhEUgAAAFkAAAC/CAYAAACVFnAwAAASfUlEQVR4nO2de3RU9Z3AP3eeec4jk3cICYFo5CkIIquN0IK8FEQFVm1ru/ZhT9tt1+45tKeuPdrtdtvVXfuwb1dtBVeLDxQLFdGWCpZHeAVICCEk5J3JPJOZyTzv/jFkIJKEwMzcuYH7OSeH5M7M737vh9/8Xvf3+11BFEURhaSiSnUA1wKKZAlQJEuAIlkCFMkSoEiWAEWyBCiSJUCRLAGKZAlQJEuAIlkCFMkSoEiWAEWyBCiSJUCRLAGKZAlQJEuAIlkCFMkSoEiWAE2qAxiJ17Zs4+e/eTH2d+mEYioryvnS5x+gID93zOnUnjjJhOJCzCZjMsIcE7LNyX39HjxeL//9w8f56X89wbIlC9m9t4Ylqz9NU/PZMafz1Ucfo77hdBIjvTSyzckAGo2GaVVT0Ol0zJh6PatXLGHhivX85JfP85MffQ+Afo+XHR98SI+1F6MhmzV3LkWv18XS6PN4OV5/iogoMvfGGej1OprPtvHnnbsAuHHGVObPvTGp1yHbnDwcmRnp3H7rfA7XngDA5xvgoS8/yu6/H8Daa+eZX/wvK+77HF6fjx0f/I271j9MX18/G195gx8+/SxOl5uX//gWjz35FI1NzZxpaeULX9/A9/7jf5IbuChTnn/pj+KCxWtEv98/5PjGV98UJ8+qHvYzPt+AWDX3k+KxuobYscmzqsU9e2tGPM+Pn/mVeNf6hxMT9AjIurgYjkhERBCE2N9Ol5uubiuiKJKWpidNr2dgYGDEz4uiSGdXDy53HwB6vY5gMJjUmMed5D17D1BWWgyAx+tl8aoHmVRWyif+4WYOHDyCb8A/6ud//fwmfvHbP7DijkUUFxXw9radaDTqpMY8riR3dPWwZ28Nn/nHewDY9OoWnC43G3/3DDpdtLKb84mVo6ax4/2/8amFt/KfT2wAwJJj4qVX3khq3LKW7Bvw88bWd9FqNNidLl7cuJnyiRN4cP3dALG2776aIxgN2bzz7gd4fUOLiuzsLD78aD/BUIh5s2ei1+vo7OqhobGJbquNt7fvTPp1CKIoz/nJm9/8Ez+7oDOSm2NmzZ1LuX/tKtTq6Nc7GArxxa9/m/qG02Skp/H4t7/BM88+x/cf+xYzplUB8NsXXuaFTZvRaDS8+sKzdHb38K+P/YD+fi8lxQUsW7yQ3X8/wAu/fCpp1yJbyZeD3x9ArVaPWLaGQmHUalWswgyHw4RCYXQ67ZBKNFlcFZLlzrjqjIxXZF3xXYpIJBL9VxRhmC+kShXNQ4IgSFIsjMS4kewPBGhpbaO9sxu7w4nT7SYUCgPRClAUIxd9RqeNNus0GjVarZbcHDOTykopLijAaMiWLHbZlsldPVZON5+lvbMTm8MZ66Elioz0NPIsORTm51M+sZRJEyckNP0LkZVkr89HY1ML+w4dptfuGPKaAKSnp5ORkU56Whppej15OWYAjEYDWu3QL6UoijgcLiKRCHaXiwG/n4GBATxeH17fAOFweMj79TodC+bOobKiHMu5dBOFbCSfaDjFW9vfu+h4niWH2TOmU1VZQUZ6ekLOFQ6HOdXUzP7DR2nv7Lro9RunT2XZJ29PyLlAJpI3vbaF1vYOBgOpKJvIvBtnkpdrISszI6nn9vv92J0u6hoaqTlSS/hcZWo0ZHP38jsoKsiP+xwplez1+Xjlza10W3sBmDKpjFvnz6UoP/4LuxJc7j72HTrC4drjhCMR0vR61q1eSXFhQVzpplTynv017PpoH4IgUH3LzSyYNydVoQyhqaWV17duIxQOU1pSzIP3ro4rvZR2Rj7afxCAOTOny0YwQEVZKetW3wlAa3sHff2euNJLmeRem51gKAREiwm5MXFCcWwgqrO7J660UiZ58AIA3tu1m16bPVWhXITfH+DVLVtjzbzMjPgqX1mMXdjsDn7/6uscq2tgwD/6nY1kEgyFaGlt53cb/4+mltbYcZUqvi65bLrVgWCQrTt2otVqqKqcwu0LbiYrM1OScwdDIY4cr+Oj/TV4vL7YcUEQSES7QBaSVy1dzKkzzdQ1NBIMhqg9Uc/x+gZMRgMmo4EJRYVMKCqiqDAfrSb+kDu7e+i22mhubcXmcOJ0uQgGQ7HX8yw53LGomte3bsc3yk3ZsSILyZYcM1Ovr2TejTM5ePQYLW3t9PV7sDuc2B3OITOGTEYDRoOBzPQ0DNkGNBoVRoNh2HR9vgG8vgEGBgbo93pwON04nM7oqN3HSE9Lo6SokOlV11FVOTmh1ycLyYMUFxbEGv5Wm42DR4/T1HyWQDBAMBQmFArhdLlxutxxnUetUqHVatFoNJQUFjBn1jTKJiRvgEhWki8kz2Jh6aJqRCAQCBAKhQgEg3T39NJjs2GzO+jv9+Dx+nC6h5eu02rJs+SQlqYnx2yiIDeP/NwcMjLS0WqiktXq5Nf9spU8iEB0hEyv05EJmI3GhH+dk40smnBXO4pkCVAkS0DKJF94Z0IGQ9rDEjl333DwXuKVkjLJgnD+1KeazshKtCiKtLZ3EPAHAOLukKSsdXHheMDufTW4+zwsXfQJNAno0cVDJBKhtu4k23b+JXYsOyu+7r1smnC1dfWcbWun6rop3HLTbNLT9JKeXxRFjp6o58CRWqy9toSmLQvJk8vLaGltw9XXx96aQxw4dITiogImlpRQXJiPxWzGZBy+63yl9Hs89NodWHtttLR10NregT8QLR4EoqutOrutCZkgLgvJ1QtuRld9K+//bQ+dPVY8Xi+t7Z20tnfG3qPT6cg1mygoyMNiMmM2GdFqNEMW4QxHIBhEFEV6rDacbjd2h5Neux13X/9F79XrdORaclgwdzZTJpXzk988f/VIhuhc43vvWg5Ae2c3uz7aS0tbe+z1QCBAR3cPHXHepRiOwrw85s2ZyQ2VU2JTuxKJbCRfSElRAfffs4pAMEhffz/uvn6cLjdWmx2H04nL3Y/d6bysNLMyM8jKzCLPYibPYsFsMmI0ZJOdlUl6WlqSriSKLCUPotNqsZjNWMzDz+gRRRGXu2/U5l9mZgY6rTZZIY4JWUu+FIIgJLxCTAZKt1oCFMkSMK6LC7kTCASwu92py8kX3vr3eL2pCmNEwuFwrHPicLmuKA23x8P+2trUSU7Tn+82v7ltB11Wa6pCuYiBAT/PbXwltlzCZLiyvTIsJhMrqqvlUVwEAgE2bt7CtOsrmX/TbMwpajEM+P3UHDnGodrj9HvOz3+70uUmgiBEl74lKL640Ot0+AMBDh87weFjJygtLuL6KRUUFxZgNhpJT09OZ8EfCMQ6OY1nmmlsaiZ0bpxbrVKBIFw0I/9KkIXkB+5dzeFjJ6itO0koFKK1o5PWjvPjFmajkbLSYkpLSigvLUGj0SAgDJ0+JQiozmU5URQv6KAI5772IiLQ1t5FS1sbbZ1ddHR1XxSLWq2mIC+XdatX8usXN+G7WiQDLF1UzW3z59Ft7eXA4aM0tZyf0OJwuXC4XBw+VgdEl46p1Wo0anVMtCCoYrOLwuEw4UhUjihGp2FFIpFRc2WeJYdb5s5hYkkRWZmZCV2SJhvJEN2ZpaKslIqyUgKBIN1WK712Bw6nC6vNhsPlxuXuIxKJEIlErmiEzJCVhdGQTY7ZRI7ZRJ4lhzyLJe6B+dGQleQL0em0lJYUU1pSfNFrHo8Xr28Aq/384Ho4FMbhjDa1MjKiq6QGycuxoFarMJuMKVk0KVvJo5GZmUFmZgZ5uTmpDmVMKN1qCVAkS0DKJF94V3qw+yo3Bnt88ZIyydlZmbFF5Ls+2peqMEbkw737Y//58S6YTGlxUb1gPgBtHZ28vnV7bDVUqtm97wAf7j0AwNTrKuNOL6WLJUOhEK9t3caZs20AWMwmbps/jykV5QlZtnA5iCK0d3axZ39NrCOUn2vhvruWY8iOb9sGWaytfmfH+9Q1NMbGDdL1em6ZO4cpFeVkZWQkba+gUCiEx+vjbHsHu/cdiM3gFwSB/FwLa1etTMjabllIhujiyS3bd2C9YD2fIAho1GpMRgNTJpVTWTGJosJ84tFtd7pobm2lsamFto5OwpEw4fD5Ck6v07FiySIqJ5UnbHqAbCRDdMyhx2anrqGR2hP1I070S09LIyM9DZVajV6rQ6US0OuHTuvy+/1EIiLhSIhAIIg/EMA34B92/EKtVjO5vIxZ06ooKSocMtadCGQl+ULC4TCd3T2cbe+gx2rD7nTi7uuPezGlRqPBkJ1FjslEjslIaUkxZRNK0OmSN21AtpJHwuPx0tNro9dup9fuJBDw4w8EsX1sp5eM9LTYdIHiwgKMRgNmo5E8i/Rd8XEneTyidKslQJEsAYpkCVAkS4AiWQIUyRKgSJYARbIEKJIlQJEsAYpkCVAkS4AiWQIUyRKgSJYAWc+Fe3fnLuoaGi86vvbulRw4VMuWd97l508/id3u5J4Hv8zPnnqSm2+alYJIR0fWkvfWHOHFTZu541PVQ44HQyFc7j4cLjfhcIRwJILN4ZTNvI2PI2vJg/zi6e9fdOz++1axbs1K9Hoddsfw66zD4TA+3wAIwkW39j1eH2Ikgk6njT0BLVmM2zL5xZdfY9k9n8Xr8w37us3uYMnqT1O9fB0LV6znK48+FtuP86mf/obbl6+jevk6qpevZ9ee5E4TGxc5+VRTc+z38okT0Go0eL0+bHbncA/Koa+vn/Wf+xqrVixh7d0rsNkdPPy1Dbzz7vtMKivl9y+/znPP/oiJpSVYrTbyci1JjX9cSH7oy4/Gfn/tpV9dcgLgvoNHcDhd3LNqGVqtlsKCfBYvvJWGxjNMKisFoLOrh6lVlRTkjf0Z2FfKuJC8Z8frl/X+vr7oHhl33/8l4HxWf+iB+5g1/Qa+9Pn7efJHP+Vb3/0Bj2/4Z9atufOSO8DEw7iQfCWYTQbe3PTbIfIGZxl99Yuf5YG1q6k72ch3nvgxZ1paeXzDN5IWy7it+EZj5vQbcLr6+Pv+Q1hyzLEfjUZNMBRCEARyzCZuvWUut8ybTUPjmaTGc1Xk5KLCfMpKS/jKN7/Lxt89w4xpVWz45iP8278/zWtvbSMv18LJhtP8y9e+QFZmBt954sfMmzMLv9/P/oNH+d63k5eL4RqYQbS35jAA5RNKKCjIA6JPxqk/dRqA6VXXkZnkRx9d9ZLlwFVZJssNRbIEyKbic7n72L2vBucV7pJyKWbPnEbVlMkpWfYrizLZ4XTxwiub8fuTt55PEASunzyJVcuWJGUXw9GQRU6uO9WI3x9Ap9NSXlqa0NwWCAQ4c7YVURSpb2wiY9eHLK6+TVLRspDsPfcoIJPByN3LE5vTrL12ntv0Suzvg0ePEwqFWf6phZIVHddMxadWq2N7ctbWneTVLe9Itvv4NSMZ4DPr1lBaXIQoipw528rbf34vYeunR+OakqzT6rj3ruVMnFACwImGRra//9eki76mJEN0P7p7Vy7DbIzu9Xb0RD3bdv6FZBYc15xkAL1exz89sDa23OxY3UneeGd70nL0NSkZQKvV8um1a5g4oQSR6C2uP733QUL2gfs416xkiK6jvmfl0lhleKy+gT//ZVfCc/Q1I1kg2jEZ8PuH/ADctXRx7GGzR4/X89b2HQlt3smiMyIFoXCYlza/OeK+m5HIeaknT5/hYO0xbpo5IyHnvuolZ2VmoFKpiEQiI87R+DiiKHLyVJMieaykp6fx8IPr6R7j1sGHa09wtr0joTFc9ZIhuu2OxWwa03vPtLRBgiVfMxVfKpF1Tg6GQnQOs/3uSBgNhtg2aHJC1pL7+z28/MbbY25O3TZ/LrfNn5fkqC4fpbiQAFnnZKMhm0ceehDGOHzz8c2e5IKsJatUKlmWsZeLUlxIgCJZAhTJEiDrMtnvD3Cs/mRSbngaDQYqK8oTnu5wyFqy1+fjvV27kyJ5cvnEpEvusdv56/79SnGRTCxGIytvv13eOdlsMrLh64+kOowrRq1Wk6FWKzlZChTJEqBIlgBZl8nBYJC2zq64WhdZGRnkS7AgcjRkLbnf4417YuAN101h9bIlCYzq8pG1ZEEQ0Gg0cc2DUEs84Xs4ZC3ZkJ3FIw89MOwi9bEi9aM0hiP1EYyCSqWKTToZz6T+u3QNoEiWAEWyBCiSJUCRLAGKZAlQJEuAIlkCFMkSoEiWAEWyBCiSJUCRLAGyGoULBAN0dltRqaTfXWWQsS7euRxkIbmstIQDR2pxutz84Y+Xt2Vkshh8KmUikIXkyopJzJxaxenms5JsjXApci1mVixelLD0ZLEH0dWOUvFJgCJZAhTJEqBIlgBFsgQokiVAkSwBimQJUCRLgCJZAhTJEqBIlgBFsgQokiVAkSwBimQJUCRLwP8DzWE0DkpNcjEAAAAASUVORK5CYII=;" parent="1" vertex="1">
          <mxGeometry x="20" y="69" width="89" height="191" as="geometry" />
        </mxCell>
        <mxCell id="GzttGRGBfrO-tsGl2VA5-58" value="AWS Cloud" style="points=[[0,0],[0.25,0],[0.5,0],[0.75,0],[1,0],[1,0.25],[1,0.5],[1,0.75],[1,1],[0.75,1],[0.5,1],[0.25,1],[0,1],[0,0.75],[0,0.5],[0,0.25]];outlineConnect=0;html=1;whiteSpace=wrap;fontSize=12;fontStyle=0;container=1;pointerEvents=0;collapsible=0;recursiveResize=0;shape=mxgraph.aws4.group;grIcon=mxgraph.aws4.group_aws_cloud;strokeColor=#b85450;fillColor=none;verticalAlign=top;align=left;spacingLeft=30;dashed=0;" parent="1" vertex="1">
          <mxGeometry x="180" y="10" width="920" height="750" as="geometry" />
        </mxCell>
        <mxCell id="UEzPUAAOIrF-is8g5C7q-119" value="Amazon&lt;br&gt;DynamoDB&lt;br&gt;" style="outlineConnect=0;fontColor=#232F3E;gradientColor=#4D72F3;gradientDirection=north;fillColor=#3334B9;strokeColor=#ffffff;dashed=0;verticalLabelPosition=bottom;verticalAlign=top;align=center;html=1;fontSize=12;fontStyle=0;aspect=fixed;shape=mxgraph.aws4.resourceIcon;resIcon=mxgraph.aws4.dynamodb;labelBackgroundColor=#ffffff;spacingTop=5;" parent="GzttGRGBfrO-tsGl2VA5-58" vertex="1">
          <mxGeometry x="767.25" y="40" width="60" height="60" as="geometry" />
        </mxCell>
        <mxCell id="GzttGRGBfrO-tsGl2VA5-47" value="NoSql" style="text;html=1;align=center;verticalAlign=middle;resizable=0;points=[];autosize=1;strokeColor=none;fillColor=none;fontSize=11;" parent="GzttGRGBfrO-tsGl2VA5-58" vertex="1">
          <mxGeometry x="680" y="55" width="60" height="30" as="geometry" />
        </mxCell>
        <mxCell id="GzttGRGBfrO-tsGl2VA5-42" value="" style="sketch=0;points=[[0,0,0],[0.25,0,0],[0.5,0,0],[0.75,0,0],[1,0,0],[0,1,0],[0.25,1,0],[0.5,1,0],[0.75,1,0],[1,1,0],[0,0.25,0],[0,0.5,0],[0,0.75,0],[1,0.25,0],[1,0.5,0],[1,0.75,0]];outlineConnect=0;fontColor=#232F3E;gradientColor=#4D72F3;gradientDirection=north;fillColor=#3334B9;strokeColor=#ffffff;dashed=0;verticalLabelPosition=bottom;verticalAlign=top;align=center;html=1;fontSize=12;fontStyle=0;aspect=fixed;shape=mxgraph.aws4.resourceIcon;resIcon=mxgraph.aws4.rds;" parent="GzttGRGBfrO-tsGl2VA5-58" vertex="1">
          <mxGeometry x="770.5" y="145" width="55" height="55" as="geometry" />
        </mxCell>
        <mxCell id="GzttGRGBfrO-tsGl2VA5-13" value="Amazon&lt;br&gt;RDS" style="text;html=1;align=center;verticalAlign=middle;resizable=0;points=[];autosize=1;strokeColor=none;fillColor=none;fontSize=11;" parent="GzttGRGBfrO-tsGl2VA5-58" vertex="1">
          <mxGeometry x="762.25" y="200" width="70" height="40" as="geometry" />
        </mxCell>
        <mxCell id="GzttGRGBfrO-tsGl2VA5-59" value="Amazon &lt;br&gt;RedShift" style="text;html=1;align=center;verticalAlign=middle;resizable=0;points=[];autosize=1;strokeColor=none;fillColor=none;fontSize=11;" parent="GzttGRGBfrO-tsGl2VA5-58" vertex="1">
          <mxGeometry x="764.75" y="310" width="70" height="40" as="geometry" />
        </mxCell>
        <mxCell id="t9HsFqnL-FavxskQqKB--4" style="edgeStyle=orthogonalEdgeStyle;rounded=0;orthogonalLoop=1;jettySize=auto;html=1;exitX=1;exitY=0.5;exitDx=0;exitDy=0;exitPerimeter=0;" parent="GzttGRGBfrO-tsGl2VA5-58" source="GzttGRGBfrO-tsGl2VA5-56" target="UEzPUAAOIrF-is8g5C7q-113" edge="1">
          <mxGeometry relative="1" as="geometry" />
        </mxCell>
        <mxCell id="GzttGRGBfrO-tsGl2VA5-56" value="Step function" style="sketch=0;points=[[0,0,0],[0.25,0,0],[0.5,0,0],[0.75,0,0],[1,0,0],[0,1,0],[0.25,1,0],[0.5,1,0],[0.75,1,0],[1,1,0],[0,0.25,0],[0,0.5,0],[0,0.75,0],[1,0.25,0],[1,0.5,0],[1,0.75,0]];outlineConnect=0;fontColor=#232F3E;gradientColor=#F78E04;gradientDirection=north;fillColor=#D05C17;strokeColor=#ffffff;dashed=0;verticalLabelPosition=bottom;verticalAlign=top;align=center;html=1;fontSize=12;fontStyle=0;aspect=fixed;shape=mxgraph.aws4.resourceIcon;resIcon=mxgraph.aws4.batch;" parent="GzttGRGBfrO-tsGl2VA5-58" vertex="1">
          <mxGeometry x="328" y="25" width="52" height="52" as="geometry" />
        </mxCell>
        <mxCell id="GzttGRGBfrO-tsGl2VA5-67" value="" style="sketch=0;points=[[0,0,0],[0.25,0,0],[0.5,0,0],[0.75,0,0],[1,0,0],[0,1,0],[0.25,1,0],[0.5,1,0],[0.75,1,0],[1,1,0],[0,0.25,0],[0,0.5,0],[0,0.75,0],[1,0.25,0],[1,0.5,0],[1,0.75,0]];outlineConnect=0;fontColor=#232F3E;gradientColor=#60A337;gradientDirection=north;fillColor=#277116;strokeColor=#ffffff;dashed=0;verticalLabelPosition=bottom;verticalAlign=top;align=center;html=1;fontSize=12;fontStyle=0;aspect=fixed;shape=mxgraph.aws4.resourceIcon;resIcon=mxgraph.aws4.s3;" parent="GzttGRGBfrO-tsGl2VA5-58" vertex="1">
          <mxGeometry x="90" y="260" width="90" height="90" as="geometry" />
        </mxCell>
        <mxCell id="GzttGRGBfrO-tsGl2VA5-17" value="Amazon S3" style="outlineConnect=0;fontColor=#232F3E;gradientColor=#60A337;gradientDirection=north;fillColor=#277116;strokeColor=#ffffff;dashed=0;verticalLabelPosition=bottom;verticalAlign=top;align=center;html=1;fontSize=12;fontStyle=0;aspect=fixed;shape=mxgraph.aws4.resourceIcon;resIcon=mxgraph.aws4.s3;labelBackgroundColor=#ffffff;" parent="GzttGRGBfrO-tsGl2VA5-58" vertex="1">
          <mxGeometry x="90" y="70" width="100" height="100" as="geometry" />
        </mxCell>
        <mxCell id="UEzPUAAOIrF-is8g5C7q-117" value="AWS Glue" style="outlineConnect=0;fontColor=#232F3E;gradientColor=#945DF2;gradientDirection=north;fillColor=#5A30B5;strokeColor=#ffffff;dashed=0;verticalLabelPosition=bottom;verticalAlign=top;align=center;html=1;fontSize=12;fontStyle=0;aspect=fixed;shape=mxgraph.aws4.resourceIcon;resIcon=mxgraph.aws4.glue;labelBackgroundColor=#ffffff;" parent="GzttGRGBfrO-tsGl2VA5-58" vertex="1">
          <mxGeometry x="406" y="100" width="60" height="60" as="geometry" />
        </mxCell>
        <mxCell id="GzttGRGBfrO-tsGl2VA5-53" style="edgeStyle=orthogonalEdgeStyle;rounded=0;orthogonalLoop=1;jettySize=auto;html=1;startArrow=none;startFill=0;endArrow=open;endFill=0;strokeWidth=2;strokeColor=#808080;" parent="GzttGRGBfrO-tsGl2VA5-58" source="GzttGRGBfrO-tsGl2VA5-17" target="UEzPUAAOIrF-is8g5C7q-117" edge="1">
          <mxGeometry relative="1" as="geometry">
            <mxPoint x="108.00000000000023" y="300.0588235294117" as="sourcePoint" />
            <mxPoint x="450" y="120.05882352941171" as="targetPoint" />
            <Array as="points">
              <mxPoint x="340" y="130" />
              <mxPoint x="340" y="130" />
            </Array>
          </mxGeometry>
        </mxCell>
        <mxCell id="UEzPUAAOIrF-is8g5C7q-113" value="Lambda" style="outlineConnect=0;fontColor=#232F3E;gradientColor=#F78E04;gradientDirection=north;fillColor=#D05C17;strokeColor=#ffffff;dashed=0;verticalLabelPosition=bottom;verticalAlign=top;align=center;html=1;fontSize=12;fontStyle=0;aspect=fixed;shape=mxgraph.aws4.resourceIcon;resIcon=mxgraph.aws4.lambda;labelBackgroundColor=#ffffff;spacingTop=3;" parent="GzttGRGBfrO-tsGl2VA5-58" vertex="1">
          <mxGeometry x="421" y="26" width="50" height="50" as="geometry" />
        </mxCell>
        <mxCell id="GzttGRGBfrO-tsGl2VA5-1" value="" style="sketch=0;points=[[0,0,0],[0.25,0,0],[0.5,0,0],[0.75,0,0],[1,0,0],[0,1,0],[0.25,1,0],[0.5,1,0],[0.75,1,0],[1,1,0],[0,0.25,0],[0,0.5,0],[0,0.75,0],[1,0.25,0],[1,0.5,0],[1,0.75,0]];outlineConnect=0;fontColor=#232F3E;gradientColor=#4AB29A;gradientDirection=north;fillColor=#116D5B;strokeColor=#ffffff;dashed=0;verticalLabelPosition=bottom;verticalAlign=top;align=center;html=1;fontSize=12;fontStyle=0;aspect=fixed;shape=mxgraph.aws4.resourceIcon;resIcon=mxgraph.aws4.sagemaker;" parent="GzttGRGBfrO-tsGl2VA5-58" vertex="1">
          <mxGeometry x="100" y="466.5" width="85" height="85" as="geometry" />
        </mxCell>
        <mxCell id="GzttGRGBfrO-tsGl2VA5-3" value="&lt;font style=&quot;font-size: 11px;&quot;&gt;Amazon SageMaker&lt;/font&gt;" style="text;html=1;align=center;verticalAlign=middle;resizable=0;points=[];autosize=1;strokeColor=none;fillColor=none;" parent="GzttGRGBfrO-tsGl2VA5-58" vertex="1">
          <mxGeometry x="77.5" y="551.5" width="130" height="30" as="geometry" />
        </mxCell>
        <mxCell id="GzttGRGBfrO-tsGl2VA5-68" value="" style="sketch=0;outlineConnect=0;fontColor=#232F3E;gradientColor=none;fillColor=#4D27AA;strokeColor=none;dashed=0;verticalLabelPosition=bottom;verticalAlign=top;align=center;html=1;fontSize=12;fontStyle=0;aspect=fixed;pointerEvents=1;shape=mxgraph.aws4.endpoint;" parent="GzttGRGBfrO-tsGl2VA5-58" vertex="1">
          <mxGeometry x="310" y="473.5" width="78" height="78" as="geometry" />
        </mxCell>
        <mxCell id="GzttGRGBfrO-tsGl2VA5-70" value="Lambda" style="outlineConnect=0;fontColor=#232F3E;gradientColor=#F78E04;gradientDirection=north;fillColor=#D05C17;strokeColor=#ffffff;dashed=0;verticalLabelPosition=bottom;verticalAlign=top;align=center;html=1;fontSize=12;fontStyle=0;aspect=fixed;shape=mxgraph.aws4.resourceIcon;resIcon=mxgraph.aws4.lambda;labelBackgroundColor=#ffffff;spacingTop=3;" parent="GzttGRGBfrO-tsGl2VA5-58" vertex="1">
          <mxGeometry x="470" y="470" width="78" height="78" as="geometry" />
        </mxCell>
        <mxCell id="GzttGRGBfrO-tsGl2VA5-71" value="" style="outlineConnect=0;dashed=0;verticalLabelPosition=bottom;verticalAlign=top;align=center;html=1;shape=mxgraph.aws3.api_gateway;fillColor=#D9A741;gradientColor=none;fontSize=11;" parent="GzttGRGBfrO-tsGl2VA5-58" vertex="1">
          <mxGeometry x="764.75" y="458.5" width="76.5" height="93" as="geometry" />
        </mxCell>
        <mxCell id="GzttGRGBfrO-tsGl2VA5-45" value="OLAP" style="text;html=1;align=center;verticalAlign=middle;resizable=0;points=[];autosize=1;strokeColor=#b85450;fillColor=#f8cecc;fontSize=11;" parent="GzttGRGBfrO-tsGl2VA5-58" vertex="1">
          <mxGeometry x="680" y="270" width="60" height="30" as="geometry" />
        </mxCell>
        <mxCell id="GzttGRGBfrO-tsGl2VA5-11" value="" style="sketch=0;points=[[0,0,0],[0.25,0,0],[0.5,0,0],[0.75,0,0],[1,0,0],[0,1,0],[0.25,1,0],[0.5,1,0],[0.75,1,0],[1,1,0],[0,0.25,0],[0,0.5,0],[0,0.75,0],[1,0.25,0],[1,0.5,0],[1,0.75,0]];outlineConnect=0;fontColor=#232F3E;gradientColor=#4D72F3;gradientDirection=north;fillColor=#3334B9;strokeColor=#ffffff;dashed=0;verticalLabelPosition=bottom;verticalAlign=top;align=center;html=1;fontSize=12;fontStyle=0;aspect=fixed;shape=mxgraph.aws4.resourceIcon;resIcon=mxgraph.aws4.redshift;" parent="GzttGRGBfrO-tsGl2VA5-58" vertex="1">
          <mxGeometry x="768" y="250" width="60" height="60" as="geometry" />
        </mxCell>
        <mxCell id="GzttGRGBfrO-tsGl2VA5-72" value="API gateway" style="text;html=1;align=center;verticalAlign=middle;resizable=0;points=[];autosize=1;strokeColor=none;fillColor=none;fontSize=11;" parent="GzttGRGBfrO-tsGl2VA5-58" vertex="1">
          <mxGeometry x="754.75" y="551.5" width="90" height="30" as="geometry" />
        </mxCell>
        <mxCell id="GzttGRGBfrO-tsGl2VA5-90" style="edgeStyle=orthogonalEdgeStyle;rounded=0;orthogonalLoop=1;jettySize=auto;html=1;fontSize=11;" parent="GzttGRGBfrO-tsGl2VA5-58" source="GzttGRGBfrO-tsGl2VA5-73" target="GzttGRGBfrO-tsGl2VA5-1" edge="1">
          <mxGeometry relative="1" as="geometry">
            <Array as="points">
              <mxPoint x="140" y="450" />
              <mxPoint x="140" y="450" />
            </Array>
          </mxGeometry>
        </mxCell>
        <mxCell id="GzttGRGBfrO-tsGl2VA5-73" value="Staging S3" style="text;html=1;align=center;verticalAlign=middle;resizable=0;points=[];autosize=1;strokeColor=none;fillColor=none;fontSize=11;" parent="GzttGRGBfrO-tsGl2VA5-58" vertex="1">
          <mxGeometry x="100" y="350" width="80" height="30" as="geometry" />
        </mxCell>
        <mxCell id="GzttGRGBfrO-tsGl2VA5-79" value="" style="outlineConnect=0;dashed=0;verticalLabelPosition=bottom;verticalAlign=top;align=center;html=1;shape=mxgraph.aws3.iam;fillColor=#759C3E;gradientColor=none;fontSize=11;" parent="GzttGRGBfrO-tsGl2VA5-58" vertex="1">
          <mxGeometry x="40" y="648.5" width="44.5" height="73" as="geometry" />
        </mxCell>
        <mxCell id="GzttGRGBfrO-tsGl2VA5-81" value="Amazon CloudWatch" style="sketch=0;outlineConnect=0;fontColor=#232F3E;gradientColor=none;strokeColor=#ffffff;fillColor=#232F3E;dashed=0;verticalLabelPosition=middle;verticalAlign=bottom;align=center;html=1;whiteSpace=wrap;fontSize=10;fontStyle=1;spacing=3;shape=mxgraph.aws4.productIcon;prIcon=mxgraph.aws4.cloudwatch;" parent="GzttGRGBfrO-tsGl2VA5-58" vertex="1">
          <mxGeometry x="290" y="651.75" width="60" height="90" as="geometry" />
        </mxCell>
        <mxCell id="GzttGRGBfrO-tsGl2VA5-91" value="" style="edgeStyle=orthogonalEdgeStyle;html=1;endArrow=block;elbow=vertical;startArrow=none;endFill=1;strokeColor=#545B64;rounded=0;fontSize=11;" parent="GzttGRGBfrO-tsGl2VA5-58" edge="1">
          <mxGeometry width="100" relative="1" as="geometry">
            <mxPoint x="185" y="520" as="sourcePoint" />
            <mxPoint x="285" y="520" as="targetPoint" />
          </mxGeometry>
        </mxCell>
        <mxCell id="GzttGRGBfrO-tsGl2VA5-88" value="" style="edgeStyle=orthogonalEdgeStyle;html=1;endArrow=block;elbow=vertical;startArrow=none;endFill=1;strokeColor=#545B64;rounded=0;fontSize=11;" parent="GzttGRGBfrO-tsGl2VA5-58" edge="1">
          <mxGeometry width="100" relative="1" as="geometry">
            <mxPoint x="841.25" y="522.06" as="sourcePoint" />
            <mxPoint x="921.25" y="520.4699999999999" as="targetPoint" />
            <Array as="points">
              <mxPoint x="891.25" y="520.06" />
              <mxPoint x="891.25" y="520.06" />
            </Array>
          </mxGeometry>
        </mxCell>
        <mxCell id="GzttGRGBfrO-tsGl2VA5-84" value="" style="edgeStyle=orthogonalEdgeStyle;html=1;endArrow=block;elbow=vertical;startArrow=none;endFill=1;strokeColor=#545B64;rounded=0;fontSize=11;" parent="GzttGRGBfrO-tsGl2VA5-58" source="GzttGRGBfrO-tsGl2VA5-70" target="GzttGRGBfrO-tsGl2VA5-71" edge="1">
          <mxGeometry width="100" relative="1" as="geometry">
            <mxPoint x="450" y="340" as="sourcePoint" />
            <mxPoint x="550" y="340" as="targetPoint" />
            <Array as="points">
              <mxPoint x="630" y="520" />
              <mxPoint x="630" y="520" />
            </Array>
          </mxGeometry>
        </mxCell>
        <mxCell id="GzttGRGBfrO-tsGl2VA5-93" value="" style="edgeStyle=orthogonalEdgeStyle;html=1;endArrow=none;elbow=vertical;startArrow=block;startFill=1;strokeColor=#545B64;rounded=0;fontSize=11;" parent="GzttGRGBfrO-tsGl2VA5-58" target="GzttGRGBfrO-tsGl2VA5-82" edge="1">
          <mxGeometry width="100" relative="1" as="geometry">
            <mxPoint x="830" y="504.40999999999997" as="sourcePoint" />
            <mxPoint x="930" y="504.40999999999997" as="targetPoint" />
            <Array as="points">
              <mxPoint x="900" y="504" />
              <mxPoint x="900" y="504" />
            </Array>
          </mxGeometry>
        </mxCell>
        <mxCell id="GzttGRGBfrO-tsGl2VA5-94" value="" style="edgeStyle=orthogonalEdgeStyle;html=1;endArrow=none;elbow=vertical;startArrow=block;startFill=1;strokeColor=#545B64;rounded=0;fontSize=11;" parent="GzttGRGBfrO-tsGl2VA5-58" edge="1">
          <mxGeometry width="100" relative="1" as="geometry">
            <mxPoint x="600" y="490" as="sourcePoint" />
            <mxPoint x="690" y="490" as="targetPoint" />
          </mxGeometry>
        </mxCell>
        <mxCell id="GzttGRGBfrO-tsGl2VA5-96" value="" style="edgeStyle=orthogonalEdgeStyle;html=1;endArrow=none;elbow=vertical;startArrow=block;startFill=1;strokeColor=#545B64;rounded=0;fontSize=11;" parent="GzttGRGBfrO-tsGl2VA5-58" edge="1">
          <mxGeometry width="100" relative="1" as="geometry">
            <mxPoint x="390" y="490" as="sourcePoint" />
            <mxPoint x="470" y="490" as="targetPoint" />
          </mxGeometry>
        </mxCell>
        <mxCell id="GzttGRGBfrO-tsGl2VA5-43" value="Amazon &lt;br&gt;Batch" style="text;html=1;align=center;verticalAlign=middle;resizable=0;points=[];autosize=1;strokeColor=none;fillColor=none;fontSize=11;" parent="GzttGRGBfrO-tsGl2VA5-58" vertex="1">
          <mxGeometry x="401" y="260" width="70" height="40" as="geometry" />
        </mxCell>
        <mxCell id="GzttGRGBfrO-tsGl2VA5-48" value="Sql" style="text;html=1;align=center;verticalAlign=middle;resizable=0;points=[];autosize=1;strokeColor=none;fillColor=none;fontSize=11;" parent="GzttGRGBfrO-tsGl2VA5-58" vertex="1">
          <mxGeometry x="690" y="170" width="40" height="30" as="geometry" />
        </mxCell>
        <mxCell id="GzttGRGBfrO-tsGl2VA5-99" value="" style="outlineConnect=0;dashed=0;verticalLabelPosition=bottom;verticalAlign=top;align=center;html=1;shape=mxgraph.aws3.kms;fillColor=#759C3E;gradientColor=none;fontSize=11;" parent="GzttGRGBfrO-tsGl2VA5-58" vertex="1">
          <mxGeometry x="170" y="647.5" width="60" height="74" as="geometry" />
        </mxCell>
        <mxCell id="GzttGRGBfrO-tsGl2VA5-100" value="Amazon VPC" style="sketch=0;outlineConnect=0;fontColor=#232F3E;gradientColor=none;strokeColor=#ffffff;fillColor=#232F3E;dashed=0;verticalLabelPosition=middle;verticalAlign=bottom;align=center;html=1;whiteSpace=wrap;fontSize=10;fontStyle=1;spacing=3;shape=mxgraph.aws4.productIcon;prIcon=mxgraph.aws4.vpc;" parent="GzttGRGBfrO-tsGl2VA5-58" vertex="1">
          <mxGeometry x="406" y="648.5" width="65" height="96.5" as="geometry" />
        </mxCell>
        <mxCell id="GzttGRGBfrO-tsGl2VA5-102" value="KMS" style="text;html=1;align=center;verticalAlign=middle;resizable=0;points=[];autosize=1;strokeColor=none;fillColor=none;fontSize=11;" parent="GzttGRGBfrO-tsGl2VA5-58" vertex="1">
          <mxGeometry x="175" y="716.5" width="50" height="30" as="geometry" />
        </mxCell>
        <mxCell id="GzttGRGBfrO-tsGl2VA5-104" value="" style="edgeStyle=orthogonalEdgeStyle;html=1;endArrow=block;elbow=vertical;startArrow=none;endFill=1;strokeColor=#545B64;rounded=0;fontSize=11;" parent="GzttGRGBfrO-tsGl2VA5-58" edge="1">
          <mxGeometry width="100" relative="1" as="geometry">
            <mxPoint x="394.50999999999954" y="522.06" as="sourcePoint" />
            <mxPoint x="474.50999999999954" y="520.47" as="targetPoint" />
            <Array as="points">
              <mxPoint x="444.51" y="520.06" />
              <mxPoint x="444.51" y="520.06" />
            </Array>
          </mxGeometry>
        </mxCell>
        <mxCell id="GzttGRGBfrO-tsGl2VA5-107" value="lambda 15&#39; runtime" style="text;html=1;align=center;verticalAlign=middle;resizable=0;points=[];autosize=1;strokeColor=none;fillColor=none;fontSize=11;" parent="GzttGRGBfrO-tsGl2VA5-58" vertex="1">
          <mxGeometry x="212.5" y="55" width="120" height="30" as="geometry" />
        </mxCell>
        <mxCell id="GzttGRGBfrO-tsGl2VA5-108" value="Pyspark" style="text;html=1;align=center;verticalAlign=middle;resizable=0;points=[];autosize=1;strokeColor=none;fillColor=none;fontSize=11;" parent="GzttGRGBfrO-tsGl2VA5-58" vertex="1">
          <mxGeometry x="245" y="130" width="70" height="30" as="geometry" />
        </mxCell>
        <mxCell id="GzttGRGBfrO-tsGl2VA5-106" value="Massive data" style="text;html=1;align=center;verticalAlign=middle;resizable=0;points=[];autosize=1;strokeColor=none;fillColor=none;fontSize=11;" parent="GzttGRGBfrO-tsGl2VA5-58" vertex="1">
          <mxGeometry x="242.5" y="205" width="90" height="30" as="geometry" />
        </mxCell>
        <mxCell id="GzttGRGBfrO-tsGl2VA5-115" value="Massive data" style="text;html=1;align=center;verticalAlign=middle;resizable=0;points=[];autosize=1;strokeColor=none;fillColor=none;fontSize=11;" parent="GzttGRGBfrO-tsGl2VA5-58" vertex="1">
          <mxGeometry x="230" y="100" width="90" height="30" as="geometry" />
        </mxCell>
        <mxCell id="GzttGRGBfrO-tsGl2VA5-105" value="Moderate datasets" style="text;html=1;align=center;verticalAlign=middle;resizable=0;points=[];autosize=1;strokeColor=none;fillColor=none;fontSize=11;" parent="GzttGRGBfrO-tsGl2VA5-58" vertex="1">
          <mxGeometry x="210" y="25" width="110" height="30" as="geometry" />
        </mxCell>
        <mxCell id="UEzPUAAOIrF-is8g5C7q-141" style="edgeStyle=orthogonalEdgeStyle;rounded=0;orthogonalLoop=1;jettySize=auto;html=1;startArrow=none;startFill=0;endArrow=open;endFill=0;strokeWidth=2;strokeColor=#808080;" parent="GzttGRGBfrO-tsGl2VA5-58" source="GzttGRGBfrO-tsGl2VA5-17" target="GzttGRGBfrO-tsGl2VA5-56" edge="1">
          <mxGeometry relative="1" as="geometry">
            <mxPoint x="335.75" y="340" as="sourcePoint" />
            <mxPoint x="400" y="150" as="targetPoint" />
            <Array as="points">
              <mxPoint x="210" y="120" />
              <mxPoint x="210" y="50" />
            </Array>
          </mxGeometry>
        </mxCell>
        <mxCell id="t9HsFqnL-FavxskQqKB--2" value="" style="outlineConnect=0;dashed=0;verticalLabelPosition=bottom;verticalAlign=top;align=center;html=1;shape=mxgraph.aws3.step_functions;fillColor=#D9A741;gradientColor=none;" parent="GzttGRGBfrO-tsGl2VA5-58" vertex="1">
          <mxGeometry x="401" y="190" width="69" height="80" as="geometry" />
        </mxCell>
        <mxCell id="t9HsFqnL-FavxskQqKB--13" value="Amazon SNS" style="sketch=0;outlineConnect=0;fontColor=#232F3E;gradientColor=none;strokeColor=#ffffff;fillColor=#232F3E;dashed=0;verticalLabelPosition=middle;verticalAlign=bottom;align=center;html=1;whiteSpace=wrap;fontSize=10;fontStyle=1;spacing=3;shape=mxgraph.aws4.productIcon;prIcon=mxgraph.aws4.sns;" parent="GzttGRGBfrO-tsGl2VA5-58" vertex="1">
          <mxGeometry x="530" y="651.75" width="60" height="78.25" as="geometry" />
        </mxCell>
        <mxCell id="0t3K0WNbBkhg_ztXq_Y8-2" value="" style="rounded=0;whiteSpace=wrap;html=1;dashed=1;fillColor=none;strokeColor=#d6b656;strokeWidth=3;shadow=0;fillStyle=hatch;gradientColor=none;" vertex="1" parent="GzttGRGBfrO-tsGl2VA5-58">
          <mxGeometry x="70" y="26" width="120" height="364" as="geometry" />
        </mxCell>
        <mxCell id="0t3K0WNbBkhg_ztXq_Y8-3" value="" style="rounded=0;whiteSpace=wrap;html=1;dashed=1;strokeColor=#82b366;strokeWidth=3;fillColor=none;" vertex="1" parent="GzttGRGBfrO-tsGl2VA5-58">
          <mxGeometry x="199" y="26" width="301" height="360" as="geometry" />
        </mxCell>
        <mxCell id="0t3K0WNbBkhg_ztXq_Y8-7" value="" style="rounded=0;whiteSpace=wrap;html=1;shadow=0;dashed=1;fillStyle=hatch;strokeColor=#b85450;strokeWidth=3;fillColor=none;" vertex="1" parent="GzttGRGBfrO-tsGl2VA5-58">
          <mxGeometry x="660" y="26" width="220" height="364" as="geometry" />
        </mxCell>
        <mxCell id="0t3K0WNbBkhg_ztXq_Y8-9" value="&lt;font style=&quot;font-size: 11px;&quot;&gt;Endpoint&lt;/font&gt;" style="text;html=1;align=center;verticalAlign=middle;resizable=0;points=[];autosize=1;strokeColor=none;fillColor=none;" vertex="1" parent="GzttGRGBfrO-tsGl2VA5-58">
          <mxGeometry x="315" y="551.5" width="70" height="30" as="geometry" />
        </mxCell>
        <mxCell id="0t3K0WNbBkhg_ztXq_Y8-10" value="&lt;font style=&quot;font-size: 11px;&quot;&gt;Extension solution&lt;/font&gt;" style="text;html=1;align=center;verticalAlign=middle;resizable=0;points=[];autosize=1;strokeColor=none;fillColor=none;" vertex="1" parent="GzttGRGBfrO-tsGl2VA5-58">
          <mxGeometry x="690" y="350" width="110" height="30" as="geometry" />
        </mxCell>
        <mxCell id="0t3K0WNbBkhg_ztXq_Y8-30" value="" style="edgeStyle=orthogonalEdgeStyle;rounded=0;orthogonalLoop=1;jettySize=auto;html=1;entryX=-0.01;entryY=0.435;entryDx=0;entryDy=0;entryPerimeter=0;" edge="1" parent="GzttGRGBfrO-tsGl2VA5-58" source="0t3K0WNbBkhg_ztXq_Y8-13" target="0t3K0WNbBkhg_ztXq_Y8-7">
          <mxGeometry relative="1" as="geometry" />
        </mxCell>
        <mxCell id="0t3K0WNbBkhg_ztXq_Y8-31" value="" style="edgeStyle=orthogonalEdgeStyle;rounded=0;orthogonalLoop=1;jettySize=auto;html=1;strokeColor=default;shape=link;" edge="1" parent="GzttGRGBfrO-tsGl2VA5-58" source="0t3K0WNbBkhg_ztXq_Y8-13" target="0t3K0WNbBkhg_ztXq_Y8-3">
          <mxGeometry relative="1" as="geometry">
            <Array as="points">
              <mxPoint x="510" y="185" />
              <mxPoint x="510" y="185" />
            </Array>
          </mxGeometry>
        </mxCell>
        <mxCell id="0t3K0WNbBkhg_ztXq_Y8-13" value="" style="shape=sumEllipse;perimeter=ellipsePerimeter;whiteSpace=wrap;html=1;backgroundOutline=1;shadow=0;dashed=1;fillStyle=hatch;strokeColor=#000000;strokeWidth=3;fillColor=none;gradientColor=none;" vertex="1" parent="GzttGRGBfrO-tsGl2VA5-58">
          <mxGeometry x="548" y="155" width="62" height="60" as="geometry" />
        </mxCell>
        <mxCell id="t9HsFqnL-FavxskQqKB--6" style="edgeStyle=orthogonalEdgeStyle;rounded=0;orthogonalLoop=1;jettySize=auto;html=1;" parent="GzttGRGBfrO-tsGl2VA5-58" source="UEzPUAAOIrF-is8g5C7q-113" edge="1" target="0t3K0WNbBkhg_ztXq_Y8-2">
          <mxGeometry relative="1" as="geometry">
            <mxPoint x="200" y="310" as="targetPoint" />
            <Array as="points">
              <mxPoint x="490" y="51" />
              <mxPoint x="490" y="310" />
            </Array>
          </mxGeometry>
        </mxCell>
        <mxCell id="0t3K0WNbBkhg_ztXq_Y8-23" value="" style="rounded=0;whiteSpace=wrap;html=1;shadow=1;fillStyle=hatch;strokeColor=#000000;strokeWidth=2;fillColor=none;gradientColor=none;" vertex="1" parent="GzttGRGBfrO-tsGl2VA5-58">
          <mxGeometry x="50" y="20" width="860" height="400" as="geometry" />
        </mxCell>
        <mxCell id="0t3K0WNbBkhg_ztXq_Y8-25" value="" style="rounded=0;whiteSpace=wrap;html=1;shadow=1;fillStyle=hatch;strokeColor=#000000;strokeWidth=2;fillColor=none;gradientColor=none;" vertex="1" parent="GzttGRGBfrO-tsGl2VA5-58">
          <mxGeometry x="50" y="437.25" width="860" height="143.5" as="geometry" />
        </mxCell>
        <mxCell id="GzttGRGBfrO-tsGl2VA5-64" style="edgeStyle=orthogonalEdgeStyle;rounded=0;orthogonalLoop=1;jettySize=auto;html=1;startArrow=none;startFill=0;endArrow=open;endFill=0;strokeWidth=2;strokeColor=#808080;" parent="1" source="GzttGRGBfrO-tsGl2VA5-17" edge="1">
          <mxGeometry relative="1" as="geometry">
            <mxPoint x="350.0588235294117" y="100" as="sourcePoint" />
            <mxPoint x="585" y="250" as="targetPoint" />
            <Array as="points">
              <mxPoint x="390" y="130" />
              <mxPoint x="390" y="250" />
            </Array>
          </mxGeometry>
        </mxCell>
        <mxCell id="GzttGRGBfrO-tsGl2VA5-82" value="" style="sketch=0;outlineConnect=0;fontColor=#232F3E;gradientColor=none;fillColor=#232F3D;strokeColor=none;dashed=0;verticalLabelPosition=bottom;verticalAlign=top;align=center;html=1;fontSize=12;fontStyle=0;aspect=fixed;pointerEvents=1;shape=mxgraph.aws4.users;" parent="1" vertex="1">
          <mxGeometry x="1100" y="484" width="66" height="66" as="geometry" />
        </mxCell>
        <mxCell id="GzttGRGBfrO-tsGl2VA5-101" value="IAM" style="text;html=1;align=center;verticalAlign=middle;resizable=0;points=[];autosize=1;strokeColor=none;fillColor=none;fontSize=11;" parent="1" vertex="1">
          <mxGeometry x="230" y="725" width="40" height="30" as="geometry" />
        </mxCell>
        <mxCell id="GzttGRGBfrO-tsGl2VA5-103" value="User&lt;br&gt;" style="text;html=1;align=center;verticalAlign=middle;resizable=0;points=[];autosize=1;strokeColor=none;fillColor=none;fontSize=11;" parent="1" vertex="1">
          <mxGeometry x="1108" y="560" width="50" height="30" as="geometry" />
        </mxCell>
        <mxCell id="0t3K0WNbBkhg_ztXq_Y8-21" style="edgeStyle=orthogonalEdgeStyle;rounded=0;orthogonalLoop=1;jettySize=auto;html=1;" edge="1" parent="1" source="UEzPUAAOIrF-is8g5C7q-117">
          <mxGeometry relative="1" as="geometry">
            <mxPoint x="670" y="140" as="targetPoint" />
          </mxGeometry>
        </mxCell>
        <mxCell id="0t3K0WNbBkhg_ztXq_Y8-22" style="edgeStyle=orthogonalEdgeStyle;rounded=0;orthogonalLoop=1;jettySize=auto;html=1;exitX=1;exitY=0.5;exitDx=0;exitDy=0;exitPerimeter=0;" edge="1" parent="1" source="t9HsFqnL-FavxskQqKB--2">
          <mxGeometry relative="1" as="geometry">
            <mxPoint x="670" y="239.77777777777771" as="targetPoint" />
          </mxGeometry>
        </mxCell>
        <mxCell id="0t3K0WNbBkhg_ztXq_Y8-32" value="" style="shape=image;verticalLabelPosition=bottom;labelBackgroundColor=default;verticalAlign=top;aspect=fixed;imageAspect=0;image=data:image/png,iVBORw0KGgoAAAANSUhEUgAAAuYAAAIXCAYAAADQV5vvAAAAAXNSR0IArs4c6QAAAARnQU1BAACxjwv8YQUAAAAJcEhZcwAADsMAAA7DAcdvqGQAANpUSURBVHhe7J0FfBTn1oe/e2/vrRst7k4gCZIEt0JxK+7u7u7u7m7F3d3dXUuhLVbcHfr/5rw7EybLbIzI7ub//Hp+yY688+5CyTMnZ877fyCEEEIIIYREOhRzQgghhBBCnACKOSGEEEIIIU4AxZwQQgghhBAngGJOCCGEEEKIE0AxJ4QQQgghxAmgmBNCCCGEEOIEUMwJIYQQQghxAijmhBBCCCGEOAEUc0IIIYQQQpwAijkhhBBCCCFOAMWcEEIIIYQQJyBKifmrV69QpUplFCiQ3zJmzZqlHxlyJk6cgG3btumvPo5Tp04FmFfx4sXw4MEDfe97wvKahBBCCCEkcqGY20Xjxo3w4sUL/Yygefv2Lbp166rODQtJXr9+3QdzkjDLeVhfkxBCCCGERD5RVszthdacpQ5J5jwsJdk8ljEH85yNbRRzQgghhBD3g2JuwshW25eOSMmIbDfCyKqbBdkI87mOznOElZgLxjg9evQI8po3b95E6dKl/PcVKVIY58+fU/sE4zOQ7YsWLfzgGPuMvf1NitVvHWRehBBCCCHk46CYmzCk1iyq9nJtRFCSHNh5gWE+z/4GQQjsmva16eYw3q+VWBs3DI7mbJWpd3QMIYQQQggJHRRzE+Zssoi58dosyIb8GtvMsmovv4Gd5wgrcTaPLQR2Tdlmln/73wI4Os64KTHPz/59WB1jjM+sOSGEEELIx0ExN2Hsty//EOxLRAw5tZJkM47OCwqrh0ADqzG3kmbB/j07+gwCy7ZL2J9rBIWcEOJs/PPkLt5e2I7XOyc5Xbw5swH/PLyhz5QQQgJCMTdhyG1wSlmCEvOgzgsu5jkHdk1HGXnzsSL2xnj2Nx9WNwLmMK7j6DgKOiHEGXhzYhWeD82DZ339nDpereqJf1481mdNCCE2KOYm7OXWnEW2F2CrB0DtjwnsPCvsr29gf8MQFhlzR2Ie1AOqBub3KGH1WwZCCIlIXu+ZYSnBzhovplTW7iRe6bMnhBCKuT/mkhOjZMRKVo1MuJWYh+Q8K8zzMz9MaYxnlTE3jjOfG5wac3uRNr9/+5sJ+xsV87mOxiOEkIhEyleeDcxmKcDOHFLeQgghBlFWzB2FWZzts8LmMGemzWUrIqhGG0KrsM9o22OItFWYZd3+miLFgc3XkO3ARNpR+Y1xXfMNgX0EdsNBCCHhzZsjSwIIr2Sjpc787R+HnSpebxvzwTwJIcSAYm4Ks/gamEVZpPrWrVsfiK0522xsD855jrASbPu5WV3Tfrv9PiGoDLe9nNtf10rOKeWEkMhGarbNwisS7Ky8mFA2wFxZa04IMXA6Mb9x4wYuX76sIrDMMiGEEGLw8tcGAWXXiTufuNJcCSERS4SI+Z3bt3Hx4kVs3bIFGzduxLSpU1UMHDAAXbt0CXEY58tYMubZs2eVyL9580a/IiGEkKgExZwQ4g6EuZhLSYOI8tq1azFp4kRLsQ7PGDd2rLr2yZMnmXEnhJAoAsWcEOIOhImYS6b66NGjmDVzpqUsR2aIqB88cIA10IQQ4sZQzAkh7sBHibnIrpSS9O3Tx1KKnSl69uiBlStXUtAJIcQNoZgTQtyBUIu51Iy7gpDbh9S1S6kNIYQQ94FiTghxB0Il5tL6TzLQVuLrCiFzv3//vv5uCCGEuDoUc0KIOxAqMV+xYgV69uxpKb2uEDL31atX6++GEEKIq0MxJ4S4A6ESc6nVLlOmDDp17Ggpvs4cHTt0QPly5SjmhBDiRlDMCSHuQKjEfMOGDShRooSKSpUquYSgd+7UCTVq1PCf9/r16/V3QwghxNWhmBNC3IFQP/xZtWpVf8mVKFu2LOrXq2cpxZEWXbuiSZMmKkNunmv58uXV0vSEEELcA4o5IcQdCLWYC507d8Yvv/wSQHolSpUqpcS9adOmKpveTRNkS3EO4+iizUeuKdeWUhv7eUm0b9+eCw8RQoibQTEnhLgDHyXmwu3bt9GjRw8l41YibETJkiVV2UuVKlXQoH59NGncGK1atrQUbEchkt+2TRu0aNECDRs0QPXq1dWYjiTcCLl2s2bN/NskSi/zJ0+eqO8JIYS4PhRzQog7ECoxv3z5MhYuWPCB3ErtuUizlLVYCXJEhsh6fe0GYNasWfrsbMgqoNJ/Xd4DIYQQ94BiTghxB0It5pLBln7gS5cuxV9//aXveY9k0hdo8i7lLnXq1EGFChUsBTosQiRcMuft2rVTIi7XNvPmzRscPXoUQ4cO9c++U8wJIcR9oJgTQtyBjxJzc4wcOVK1UTx58mSgZSKyT46TGDJkiBJ3c0jnFJFsCakVt98vMWbMGHV+YHItMi5zkRsHqxVKKeaEEOI+UMwJIe5AmIm5fYwbOxZr165VmWo5Xuq6wxPJ2kuZigj7pIkTLedkDoo5IYS4DxRzQog7EG5i7iimTZ2KuXPmYOuWLf5hyHtQsXPHDv9zJBMuY5nLU0ISMh4hhBD3gGJOCHEHIlzMnSUo5oQQ4j5QzAkh7gDFnBBCiMvzYHRpl5FdezF/deOivocQEtWhmBNCCHF5fuv1cwDZfXNmg77HyXjzCs9HFgww1yc3rug7CSFRHYo5IYQQl+dI96IBZFfk9/WmYXi9c5JThX22/HrnDHhy65r+LgghUR2KOSGEEJfnwLj2uNfTJ4D0ukLsqu+Jt69f6u+CEBLVoZgTQghxeS5uWYKtddNYyq+zxp+d0mN5q+L6OyCEEIo5IYQQN+D5g9uYWzMr1lZP7RKZ88NNvTCjVAqcXjldfweEEEIxJ4QQ4iZI1nxqyeQqllROhR31PHGgsZdTxapqHphVJoWa46r2ZfWZE0KIDYo5IYQQt+Hq0R0qc24IurPGodlDWFtOCPkAijkhhBC34+7lszi3fi6Ozh/lVHHj1H68evpInyUhhASEYk4IIYQQQogTQDEnhBDiNry9sF31L5d+4c4ar5Z1xusDc/HPi8f6rAkhxAbFnBBCiFvwclEbyw4ozhqyCNK7u1z1kxDyHoo5IYQQl+fNkSWW8uvs8WJGTf0dEEIIxZwQQogb4GrZcnOwpIUQYkAxJ4QQ4vJI7baV9IZ1vP3jsH7F0PHPwxuqhMU8pmwjhBCBYk4IIcTliQgxfz4mbJbPf7WqZ4BxKeaEEAOKeUi4OR14dk5/QQghxFmIqIz5652TVNY8tPHmxCo8G5gtwJgUc0KIAcU8uDw5Buz8zBZ/9tc3EkIIcQbuTKoVQHZdJZ70y4xXD+/o74IQEtWhmAeXVzeBkwWB7dpHJiHfyzZCCCGRzv7uJS3F19njXOt0eHLrmv4uCCFRHYp5SJFylt3f2eRcvt5bp+8ghBASWWwb2gK76nvicR9fSwF2xrjUPh1mlUmBt69f6u+CEBLVoZiHBiN7LmUtL/TFId69sH0lhBAS4fyxfxOmlkyuRHdVNQ+nj4UVU6r5bh7QUH8HhBBCMf84DCl/tI/Zc0IIiWSOzh+lZNdVYlX7snj+4LY+e0IIoZiHDedrvK89l+/fPNB3EEIIiUgeXvsdF7csUZLurHFiyQTcOLVfnzEhhLyHYh5WSKcWKW0ROd+fyJZFJ4QQQgghJJhQzMMS6XF+NLNNzvfGYt05IYQQQggJNhTz8ECy53eW2b6X/ufMnhNCCCGEkCCgmIcnkjGXshbJoF/uwAw6IYQQQghxCMU8PBERFyE3HgyVMhcu6U8IIYQQQiygmEcEUspyMJVNzuUB0evj9R2EEEIIIYTYoJhHFObsOfudE0IIIYQQOyjmEY2xKJH0OpcsujwoSgghhBBCojwU88hCylnMteeyzD8hhBBCCImyUMwjEylpkaX8Rc7l683p+g5CCCGEEBLVCJWYX7hwwVJ2XSnkPTgFkik/WfB99lz6nhNCCCGEkChHqMT8yJEjlrLrSrF8+XL93TgJki2Xh0MFkXU+IEoIIYQQEqUIlZifOHHCUnZdKZYuXaq/GyfEyKCfr2F7SJQQQgghhLg9oRLzW7duoV7dupbC6wrRonlzbNq0SX83Toh0apF+5yLne2O5XPb85s2bKF26FAoUyO8fjRs3wosXkbfyqTGn4sWL4cED3uwQQgghxPkItZiXKFECFStWRKuWLS3l11mjUaNGKFmyJLZs2aK/GydFVgiVbi1G7fnFBvoO52bixAkBhNwcRYoUxvnzkbPyKcWcEEIIIc5OqMT8/v37SsyNEEFv0qQJOnfqZCnDkR0yL5lf+fLl/ee8c+dO/d04OVe628RcvjrCSVotnjp1yl/Ct23bpm8NmEGPrMw5xZwQQgghzk6oxFxYt24dypYtG0DQJapUqYKGDRuibZs2lpIcUdGhfXs01WS8Ro0aKFWqVIA51q1bF0+fPtXfiQsgnVpk5VDheG7bQ6LGa8msS6vFSJbzt2/folu3rkq+Z82apW99z/r16wJI+atXr7S/K5VVFn3RooUfZNTtM+/GuebrmOXfOL5Hjx76lvc3CnLulStXLMVc5mVcQ8I896DmSAghhBASloRazAUpaRk5cmQA6bWPSpUqKTmWmnQpewmP0pdOHTuqcevXr4/q1asHyIybQ24kpkyZ4lpSbubRvvelLbJq6ANNTI1yl0st9IMiByMjHVxxNaTXLMWGfDsqhzGk25Bp47V5LLN4G+OIbFtlzB1dx5DzwOZICCGEEBLWfJSYG1y9elXJjGSirYTYUZQvV06JuxG1a9VSAu8oJBtvPl5qxa3GtQ85VoRcSnBcHpFzkXJD0I2Qh0UjsQd6SEtFzNJrznIb283jGJlvY5txLUOSjddyjHFjYGTWjdf287Oar/21Hc2REEIIISQ8CBMxNyOSvnLlSvTr18+y1CWiol27dhg/frzquS6C5VZIGYu0UrSX89O/6AdEPB8j5uaSFDNm4TaLub10i7jL91u3blXHy3jGufbyboxhroe3ChkjOHMkhBBCCAkrwlzM7RFRFzmeN2+ekvXOnTuHmbBLJlzGk5CM/f79+51jqf3wRsTcKmsuEUmtFQ3xDWkpi9XxjkpMzNJvlLOIMMv3sk9Kq2RM+btgiLdRlmIv5va15fZhFvPgvidCCCGEkI9BM7nIQ0RKBMoIeaBUBD6wWLx4sTpWhD/KIg9/Wkm5xOF0+kERS1APf8qfmVmsHUmvHGeWY/M2c323sW369OnqurJPnh0wvh85ckSAMRyJuXlMeyjmhBBCCIlINJMjLoc89Hl9vK2FopSvSKcWY0EiCdkXCZiz0ObSD0OKzSLsSHqthNnIoJu3GefXrl1bjW3cDMj5Mmbjxo0D3AjYi7l5TvY3AMYxFHNCCCGERCQUc3dDpD0SHwJ1VIYiYRbc4GTM7cMs2oL5WvZyLWF+YNNezIXgdmWhmBNCCCEkIqCYkzDHnI02wr5kJDDpNWfeRaSN2nFHEm/ebpUJF6zEXLCXc3MZDsWckLDl+fNnePZM4qkqPXv65AmePHmMx48f4fEjiYd49PAhHmr/jz58cB8P7t9Tcf/eXdy/ewf3JO7cxt07t3D39i3cuf037ty6idt/S9zA7Zs3cOvmddy6cU2/IiGEuBYUc0IIIRHCc13Kn4mUP33ygZg/shLzexZirkm5EvNbAcX8lr+YX9evSAghrgXFnBBCSIRgL+ZPRMwf24u5SPl7Mb+vi7mSci3u6mJ+Rxfz27qY3zKJ+d+6mB8+fBj/93//p+LChQtq2+zZs/23uRvy3uQ9E0JcF4o5IYSQCCEkYv4gEDFXUm4S81smMf/bgZiPGTNGbZMHxt1RzI33SjEnxLWhmBNCCIkQjPpyKzF/pIv5w0DE/K6dmN9WYv63v5j/LWKuSbm9mMsq0dmzZ1fb5LV8b4j5ihUr1PcSyZMn98+syzki8bJN9hli37dvX//j5Rh5D+btcryE7BPM47dp00Ztk7GM843txvfGeYL5WpINF+Rcmb/98cZrCco5Ia4LxZwQQkiEEODBz2CI+X1dzO8pMb8bajE3ylfkgXD5agivPSLUhoCL6ErIHK2Ov3Hjhtom1xCZl+/lOnK8Iebyvf12+d4QcznPEHcZx5iffG/MXY4xxpevxrlyfavj5SshxHWhmBNCCIkQgifmtoc/P0bMb9qJufHVyDQbciuI7ErG2siim8Xc+N58vMiwOZNulmIDQ+qN7eYQyTePZz7X+F6+GseYQ64t22Vs++PN3xNCXJf3/5IQQggh4UjAUpanwRBzLSzF3CbnAcX8phLzmzetxdyoLRexNYuxfJV9Iuj2GXPje+N4I3Mtr81jG9sDy5ibMV/fGMf8vXw1suEythk510rMjWvJ94QQ14ViTgghJEKwPfyphVnMVbvEx7qYPwqZmOtyHhwxFzk2vjeLsfG9yLQIuoRgJeaCbJfv5atk2Q3pDk6NuRwvom0ez5ij+Xv5KphrzGVe8nnJuVZiLhhZf+M1IcT1oJgTQgiJEOwXGHIo5g9NYm4qZ7GJ+R3c0ctZrMVcC13MIwojWy0SLoggG4JPCCEhgWJOCCEkQnj+/Lku5s9MYv5EibmtXaIW/mKuRUjFXK8zl6x5RGNkwSUkY25fgkIIIcGBYk4IIYQQQogTQDEnhBBCCCHECaCYR3EuXbqEXr17oVPnToE+MHTgwAF1TM9ePfkrWkIIIYSQcIBiHoXZv38/UiT2QKnklVEpVW0kiZkCq1ev1ve+Rx5oShw9OSqnqoPSyasgRSIP7Nu3T99LCCHOhyQQjA4qEtLhJKIwd10hhJCQwH85ogjv3r3D7du39VfA69evkSN7LjTwaoWR2adoMRWt0ndB9iy58PbtW/0o23nZs+RES23fCP24ht6tkCVzNrx69Uod8/LlS5V5N14TQkhkYqzKKYJsvJYHMo3X4Q3FnBASWvgvRxRg0aJFyJn9J2RKnQ1FixXH1atXcfToUaSPlQlDs01E70zD0CfTcAzMMgaecdPh2rVr+pnA9evX4Rk/HfpnGaWOkWPlHJ/YWVTpy7p165DZLxvSJfBFlkw5MG/ePP1MQgiJHIye5Y6QbLrR81uEXRbzESTDLm0OZZtZ7OV4Y5uEcbyjccxibu5jLiuMEkJIYFDM3ZyFCxci0ffJVTa8f+ZRqOZRH7lz50Hbtm1RKlklDMk6wSTmY5Vw7927Vz/bVlvuEyeLknZDzOWcssmrIl++fPBI4IXWGbphYNaxaJ2+q7rW/Pnz9bMJISTiETE2FuGxQiTa6DNuSLy0bZRzJOR7Y3EfwRBt++drHI1jHC/fy1fZJ9/L8caCRIQQYgXF3I35+++/kTxRKrT36YWhmkz3yzwSw7JNQomk5fHv//4HdT2bYVDWcUq2bcI9HnkTFsbixYv1EYClS5ciT4JCap9xnAh8fc8W+Prz79A0bTuVQRdpl2t00K6VPGEq3Lx5Ux+BEEIilqAy5rLPeNhdvhqvRcqNLLk5621fr24sJORoHONcY5s5IrLWnRDielDM3ZiePXuicOKSSsZFqEXMRaAHZBmNcimqoW2GHmqbIdxDs01A6eSVMWLECH0EYPTo0dq2SmqfcVzfzCPQyac36nk218Ya4z+2fJVrFUlSCt27d9dHIJGJ1P1XqVIZBQrkt4xZs2bpR4aciRMn+P/q/mORG7nSpUsFmFvjxo3w4sUL/YiQEdK5GdcvXryYWtiGuDZB1ZgHljG3EnMzcp4cJ4QkY04IIcGBYu6myLLW3qnSo4tff1XCIkLezW+Av5ybS1OMGJR1LGqlaYwq1aqoGnTp2lJZk7qaqRsFyKxL9NHkXARfvhdR7+zbV9s2XBt/lLqmV8r0ag4kcglKzCVCKsDycHC3bl3VuWEh5iLR9nMyokiRwjh//px+ZNCEdm4Uc/fDXP8tYc5UO6oNdyTmkiGX4+yPD2mNuRxrXw5DCCFmKOZuyvDhw1EgcQmV6e6ryXg3v4FI+kMqJd6GUNtHf2271KIn+iE50sb0RYZYmZHyR0+0StdFPfxpdY5kzGukbogE3yVBF99+SvzlmgUT/4Jhw4bpsyGRhVnM7UX11KlT/gIcksx5WIq5eQ7mscwZ9JDcOFDMCSGEuDIUczfk6dOn8E6dHp18+6ps+RBNlMulrIbvv/8eOeP/HKBe3Cp6ZBysMuRynmTDrY4xQsbKlSAfPv/8c5RIWk57PVFJvGTQvVKlU7/KJZFHYGIurF+/Tu2zF1L7LLYhx2bxNcJ8rqPzrDCPZXVjIHOzOj885uZIzM03CBKOMvjG5yjRo0cP/xsOij4hhJCQQDF3Q+TXqLni59Mk2RDr4WrxoJixYqNFuk7+deGOwizjUp5i3mcfkn1vma4zfvwxBuLHSKKkXmXNtWvnTpAfo0aN0mdFIoOgxNwQT7NwOiotEeEMTH4DO88Kq2sHRXjNzUrMzdl8+zB/lmYptw+KOSGEkJBAMXcznj17Bq806dAmQ3clzSLn5VPWwFdffYWMcbNjsMqWBy7bIYvhKrOeM9HPiB07Nkomq6CuKdeWh0u9UqdTcyKRQ1Bibuw35Nh4bSWoxjazABtjBuc8exxlqR0RnnOzn4txjhxjvrGw/w2D1XHmOZivSQghhAQFxdzNmDhxIrLHz+tfhiIPeCaOkQJfffMNGnu31cR83AcPfX5MyFjy0GjL9J01MY+LpHFSqu1ybZlDjvg/Y/z48frsSERjFsfgiLkZQ1blXLNkWsmvGUfn2RNSMTcT1nOzn4ujudl/nsZx9p9fUDclhBBCiBUUczdC6mXTeqVXC/3YsuXjUSlVLZUtzxA3s8pky0OgbTN0D7J2PDghY0hWXMaUBz4zxs+usuYVU9ZU15Y5tMnQTc3JUZ0xCV+CEnMrsXRU9hGU/AZ1nj2OpDYwwmtu9iLuSKzN40tdvKPjHIk9IYQQEhgUczdClsPPGi+3kmLJZEuXlRQx0+DLr79CI+/WGJl9ilr5UxYHCqrOPDghY9T3bKmNWQ8jtLEbebdBjJgxkSqep5J2lTXXbgayxcvDpfojiaDE3F4sjdfm441tVg9Z2h8T2Hn22EuuPXK+WWzDc272Iu1IrJkxj6I80P7evLiivyCEkPCDYu4miJDkyJ5LlZSIMEvJivQf//6H75Euth+GZBuPXpmGwi9OdnTI0Mt/QaCPCWnD2MGntxqzZ6Yh6hqSmf/xxx9ROVVt9VrmIi0Ys2fNqeZIIpbAxNyQStlniLFRQ22WaSPbbCW/ITnPCvODk+b5medmnB+ec7MXcfPnxhrzKM7V4cB27Ufl0czAO+u/x4QQElZQzN0EWTo/Y5wcGKzJsGSqpYwkdey0iBb9BzTwaonROaajXIrq8IjurfaFRZ25jCELFaWOnhZlU1RT12jo1Upl6JPF9FDyL3MZnG0CMsXJGWCpfxIxmMXRUZiF1Zxdtg+zZJpLQyRbvGjRwgDHmiMoOTWPZR/mTHR4zs0qQx7Y9cw3EeabCyNatGihvgb13okTIxJ+sYFNyiWucDVjQkj4QzF3A/755x9kz5ETjb3baKI8VvUgr5OmqSbIX8I7jq/KnouMx/suMfIkKBRgef2PDRkrb8LCiPttIlU6I11f0sfNiBgxY6BaqnrqtcypiXdbZMueA+/evdNnTSKCoMTcqoTELJoilrdu3VJjmCXZnNE2tgfnPEeYxzPCfMNgEF5zsxJzwX5ejt6LeXzJnLOUxcV5o/2ZSYZchHz3d8CdZfoOQggJXyjmbsCqVauQNqafEvI+mSRbPgZpYqbDV998hdppmqhMdnWPBvi/T/4PtbTX0kVFpDossuYyllxDxpb69VE5pqka9pixYsEjjpd/1lzmli5WRrU8NSHujiHqVjcXxAW4Pt4m5fsTAc8Cv6kkhJCwhGLuBuT+6Sc09G6FQVnGKQGu59kcX2pSnjKmp8qUS9Y6xY9p8NnnX6Kjbx9Nlm3L6/fRIjS15iLaxnnyVVYY/fyLr5DsBw8l6hJp4/loch4TNVI3UtcflGWsegA1V+6fVIafEHcgNL+RIE7MvXXv68iltlwy54QQEoFQzF2cdevWwStmBiXDfaSeW5NgeQDzq6+/QnWP+v513ylSpUSGpJmVVMtxUl5SM3VD9YColLrYy7ejEBHv6jdAtVyU72Us+eqbNAuSp0qh6tklay4ZeilnSR8/o7qWLWs+Ft4xfbFmzRp99oS4Po7knFLuYlxqYcuSS105IYREEhRzF6dI0aKo79VCZcoHauLbNG17Tcq/RrIYHuifZZRqnZgpYXY0adIEPyUpqNoXimDLdlm2P/pXsdEz42D1EKe9hNuHyPWw7JOQLd5PyKmdKzcBsl3GzJO4kLqGXEu6sfTPPBoecbwRPVZMVdpiy6SPU+JeqHBhffaEEBLJSFb8eG6blO/8zFbGQgghkQTF3IXZu3cvvGJlUFIt9eIiyj6xMuOrb75W9d6SLZcHQkuWKoWu3bqiYspa/tlxOSdTkuyoX78+PKKnVa0URbAd1Z1L3bqs5PlLsgpIlToVMiTM5C/zct1KqWqra5QuU1aVrMi1a6RugLjx4sI7tq8ta666uIyFdywf7N69W38XhBASSTw5ZqsjFynfGwt4tE/fQQghkQPF3IUpVbo06no207PlY9A8XQdky54d2bPlQkff3hiTc4Z64FJKR6pXq4mW6TopmZbSky5+/ZElfQ41zsiRI5EoWjKV2Zb9IuAi8DKuZNbldQefXsgSNzdKlimJP/74Azkz5UEX335qLFuv8s6oUqmqupY8iCrX7uTbB3nz5MPP+fOpchojay418CVLllTXJoSQSONsBZuUH07HBYQIIU4BxdxF2b9/P1JG91TlKlJiIgItfcxXrlyJ+QvmI1V0L2SOmxNly5fDkydP4OORSS0CJMeKfMsqnaXKlNFHA3bt2oUixYrBI4Y3CicpheqpG6huK2WSV9HGzY60nhkwfPhw/WigTLmyaOjd2pYJ18aUjHuGlBnx+PFjVKhUSV1b5iBz2b59u3/XGDlW2iqm1PZJxp8QQiIcWclTkAc9L3fgwkGEEKeBYu6i1K1XTy2FL0IuGeuW6TrDx8cPb968UfulVGTt2rV4+fIlDh48iAyxMquMtZSeSAa8ZLKKGDhooDrWzNGjRzFu3Di0aNUC9RrUQ7/+/bB+/Xo8evRIP8LG4CGDUSJZef+e6DK2T+ws6obh9evX6tp79uzRjwZy5MipbgZE5KX0RR5MrV2njr6XEEIiABFwI0vOWnJCiBNCMXdRSpYqjRbpOmF4tskYkX0KcsXPjxkzZuh7AyKlKsWSllVCbtSEZ4qT44Ml2kPCjh07VCbdqFmXsYsnLRcgq25GVibNEDuzmu/I7FNVWc0vv5TS9xJCSDgjpSpSsiJSLosGGVlzQghxIijmLsqkyZOQPlYm1ZdcVvlM55Uez58/1/cGpEq1anrnFlvZiYh0+mR+avXD0HLnzh01howlY8rY0nGlcpUq+hEBkRU/8/6cDyWSVUDL9J3hGSMDpk2fpu8lhJBwRCRcZFyk/GAq1pMTQpwWirkLM2LkCPycp4DKPB8+fFjfGhApZcnqmwNd/AaoBzWlvrt1+q7I/3NB/YjQUyB/YbRK30WNKWNLf/MsGbI7XOlQljdv1rIZypYvj2nTKOWEkAjC6Lxy+hcuGkQIcWoo5m7OuXPnkDaur5JnaYUoNenSSrFlq1b6EaGndZvWqKrq3G1tFmWV0bRxfHH27Fn9CEIIiSSkntxofyjL6l/pbvueEEKcGIq5m3P79m14JPREj4yDMTy7rR49a7zcWLRokX5E6Fm8eDGyxM2lxpSxe2YcAo8Enh9VIkMIIR/Nq5u2enIpXxEpJ4QQF4FiHgUYNHgQUsdIhxqpG+KnBAVRqHBRPH36VN8bep49e4YiRYshtzamLO+fRrvGwMEfdnoh7o+UL12/fl39tuTYsWPYuWOHih3bt+PQoUNq+59//unwOQhCwgzJkstiQVK6IiUsFHNCiAtBMY8iyMI/UnoyZsyYMJFyA5FzGVPGlmsQ90ce/N24bh0G9uuHxg0bqoWuChQuhJ+LaFG8KAqVK4MCZUsjf5lSKKBFofLa65IlkL94MRQqVgyly5ZF40aN0K93b6xesUI9e0BImHBrnm1ZfZFyWWaf9eSEEBeDYk4ICRLpqrNq+QrUrlED2XLkQN4SxVCzY1t0nDQGA5bOx9gdGzH18B5MP7YPs04dwqzTWshXLWZr3884vh/Tju7FxL3bMHTtMvSYPQ1NB/ZFyVrVkadQQdSsXh1zZs1Si2EREiqk04oh5Rcb6BsJIcS1oJgTQgLlyuXLKFe6DLLm+UmT6T4YtXkNfj1zBPN+O4n5Wsw5d0yT78OYefIgZp44gBkWIdtlv4j6r2e1cy+e0M49hXkXTmDKwV3oOWe6kvSCBQti+9at+pUJCQaSFTfaH0rGnAsHEUJcGIo5IcQhUrbyU+7cqNGutcp6L/j9tBJr+V6y42ERs04dtIn6pVPoPnMyfDL64eCBA/oMCAkEqR+XOnLpTc5l9QkhbgDFnBDikI3r1iNnoQIquz3n3FFMP7rXUq7DImac2I8Vf19B9bYt0TYM2nkSN+fOsveLBkkHFi4aRAhxAyjmhBCHbN28BR5pUqPTlHEqWz7n/DFVmmIl1qENyb7/evYoFl05h75L5sHbzxedOnTQZ0CIBdKTXIRc4mwFZssJIW4DxZwQ4pDNmzYhR/6fUbRKRZSsXUPVgotMz7t4UoXUl8uDnv615ZpkG2FIt3+ckDhgqzM/d9Q2xm8ntfMPo/+KhSjRoA7y5suH0iVLoWPHjvoMCLFD6sgNKeeiQYQQN4NiTghxyPp161BKE3LJaDcb3E+1QcxTohjKNqiLJgN6o+fcGRi5eQ2mHN6t5FseApVjpexF6sZF3OW1PCwq8i6dWcbu2ID+i+ei5cghKNWoHrJq4p89Rw60a90aV//6CzNmzECTJk30GRCiI4sGGZnxSy1spSyEEOJmUMxJ5PNgG/sNOyki5sWqVsLc88fVw5nyoOaAZQvQsE93FKtWBbkKF0SWn3Krji05CxXEzyVLqBCBlwx7oQrlkPeX4mqb1Kpn1o71zZYV6bJkRg7tdZv27bBm5UrcvXNHvyIwduxYijkJiPwbIfXk52voGwghxD2hmJPI5d46W+9heXiLcu50GGIuWW+jJEW1O/xNSllOYOqRPRi9bT36LJyN9hNGo+mgvqjXowvq9eyCut07277XomHfHmg9aig6Th2P3svmYeHRA7jx7LF+lYBQzEkArg5/X7oiiwaxnpwQ4sZQzEnkIjIuUi4/dNlZwemwF3PzQ5sSUp5i601+FHMvHFfdW+Qh0QWXTKG9lmz7jHNHseDCCZy9fxv/6ONbQTEnChFwebDTkHIpXyGEEDeHYk4iH7OcS09iyrnTIGJevFplh2IenJhydA8mHt6FDZfO4v7zZ/rIjhk3bhzFnACXO9j+TZDfqMkDn4QQEgWgmBPnQOT8aGbbD2IuFuI0qIy5JuYq4x0KMZ+gCflM7bzTt2/oIwbNxIkT0bhxY/0ViXLIQ56C/Btw+hfgyTHba0IIiQJQzInzYPwglrpz4hRs2bIFaby90WveTCz641ywM+fSfWX8oV1YdeEU7j57qo8WNLdu3ULx4sXRtm1bfQuJUkhmXDLkXFafEBJFoZgT50SyZpI5p6RHKps3b1YdV6SrSuWWTTFk9VL18Of8306qmnJpj2jfv3zKkT2YdHg39l+7grf/vNNHCpzbt29j1qxZaNq0KSpUqID27dvre0iUQWrIjXryiw30jYQQErWgmBPnxLyy383p+kYS0UgpS6k6NTH18C5Ub99atTwsULYUanVuh85Tx2P4hpXavt3qIdDZZ45g9rmjWPnnedz7540+woe8e/cOd+7cwf79+zF37ly1mFDt2rXRt29f3LhxQ/UxZylLFELK2E4WtP2/zmw5ISSKQzEnzos5g0Y5jxRUjXmVimqVTumwMmn/DnSZNgFV27RA4Urlka/UL8hToiiKaMf8Uq+WWjCoW/9+mDR+guquIjFmzBj069cPPXv2VCUq9erVQ4MGDVRWfMiQIdi+fTsePnyoXxEYP358iB/+lBKYadOmoUzFyhg6fKS+lbgEUr4m/49Ln/JH+/SNhBASNaGYE+fGnDnn8tsRjn27xJknD2LO+WPqYVDJkE/avx0jNq1GlznTMXbhXKxavgKLFizAvHnz/EOy4osXL1ZlMceOHcP169fx9KnjuvNRwwajZcuW+ivHvHr1Chs3bkS9unWQPHtBJKjUBR49VsI7V0H9COLUGA95Pjtn60/ObkyEEEIxJy6AscCItE8jEYq9mJsf8FQ15ScOYMrxfdj391/6GaHjwZ2/sWz+bFSrURMpMueFt29m7NtnnT09c+aMyr5nzFMIMfNWRYr2c5Bu4hn4zvsb6cadQO4iJfUjidMiN9lStsKOK4QQEgCKOXENZEluA5a1RBgi5iWqV8Gcc8c+EHPpvDLh0C7svxq6TOezxw+wcdUyNGxQH6mz58c3eaojZpOp8BhxGKl7r0NC70yqFl24d+8efv31V/xSpjziZi+BxPWGwmv4fvjM+gs+M/5A+knnkH7qb0jTfxMqVK2uzjFz//599XDp0aMUwUjFftEg/r9MCCEBoJgT10K6NcgP9PM19A0kPNmwfr3qyDL3wgnMPnP4Ayk/cO0P/chg8uY19u3Ygo5tW8M3bxH88FMV/FBrBFIM3Y8MM/9ChumXkX7yefjNu4UkDUaicuXKaNumDTxyFka8sm2Rus967ZjflZCnn3IB6Sac9g85N2WnhWja4v0KkdeuXVMPlZYuWxbNmrdAnTp19T0kwpFSFWMhMaknv7NM30EIIcSAYk5cC2mfKD/U5Ye7ZN64EFG4slXvY16nawfVfUWW15fa8slH9+DQ9T/1o4LHpHGjkDlPQUTLWhLfV+qLpP13IN30K3rG+3wAyZYMuPfoI4hTvDGSt5yqtvnMvooM035XZSvmY40QWU/RZqZ60PTChQtooQl6kaLFMH3GDLx69RpDhg7DnDlz9NmQCEdW9ZX/b+Wr1JUTQgj5AIo5cT2kLtWQc2mzRjkPNyRjXqxqZTQZ0BsFypbWBL0jei6eg/0hzJT379ML/0lbCAl6bkC6aZfhM/NPpJ8cMOMdME5pAn5WHZdhxhUl6tbH2SRejks7/Q98la8eUnt4oFq1ali9erVqzSjcu3cfP+XJqx4YJRGMtEMUJEMuD3karwkhhHwAxZy4JmY5l7aKJFyQGvPi1atg8Z8XMGLjKlTr0AblqlVFg3r10blzZ8yePRsbNmzAyZMnVdmIdFt5/fq1vxD/888/OH/6BGKkzQmPMSfhM/2KJtPWGe+Qhoi9ZNFTjzqG76sMQIwMeVGteg3s2b1bXdtM/wEDMXXqVP0ViRDkhllKz2ShMMo4IYQEC4o5cV2kZlV6IPOHfrhh7soy9dQBbL5+Ga806f7t4kWsWbMGQ4cOVf3IpWykYcOGKqpXr65CWh7WrVsXGdN5Ilb5TvD99ZqlYIc8TiHD1ItINWw/vinZAXEz5EaThvVx8vB+fdYBkQdIc/+UBy9fvtS3kHBH/p+U7LjcOEv3FfPD24QQQhxCMSfugXR3kAfLIlnS37z9BzcevsTlO89x+I/HOHj5MXZefIAt5+67ZAyctEiJ+YzThzHn1CE8eum4bOj58+d48OCBWuxHepVLBl2+9ujYDj9W7oMMs65aSHbII70m5Sn7bUH8DDnRtV1rXL5wVp+BNYO1m4dmXQdZvj9XCPn7I3+PJOTv1bX7L/Hqje03Ek6J/DbLqCffG4uLBhFCSAigmBP3wOj2IEIQCQuViIyLiG+7cB/bL+gifvZDyXK1EDEvqsT8EP54eF9/tyFj/szpiFasOdLP+MNStEMaPr9ew1dFW2Jo36AXnJIbhew/5cOao9cs358rhvz92qbF3t8f4q97L9TNoNMgD3VKhlz+Xzya+f0iQoQQQoIFxZy4B5IpjwQ5//vRK5XRVDLuBiJuHyLmBSpXwKHb1/V3HHJOHj6AGNl+gfeU3xx2VAluyIOeacafQYz0P+HS2VP6FRwzdOgwtOg+1PK9uXps1kIEfefFh/jz7nP9HUcixkPY0spUasv5UDYhhIQYijlxH8x1rfJgaDiuKiilBPt/f4QdRnbcTaPv+HkoX/PDBXtCgiwk5JvvFyQbuFv1KLcS7uCE1JX7zL2FTwu3QMN6tfXRHSOLCvlkzoZVh/+yfG/uFHJjuOu3h3j26q3+7iMQ4/87aV9KCCHko6CYE/dCsnTSQjEcxfzh8zfY/dsDlbG0kiR3iikrdiFN6tTYuGGD/u5DR5XqNRCr+Uy1OJCVdAcWIvPSfSVp/234PEcV5C9UFHdv/62P7JhBg4egccd+lu/LXUPk/NajCHzIVUpXpOuKcTMcCWVkhBDiTlDMifshcm4sYCKicGue7fsw4Nr9F9h18aGlFLlrtO83BqlSp0Hr1q2xb9++UHU3GT6oP74v2wUZZv5pKd9WofqTa0KeasRhfFW4OVL55cDYoQPx5lXQ13/8+DGy5f4Zq49ctXxP7hxS2iJ/T8Md6UtutCyVMjJKOSGEfDQUc+K+yK/Yje4Q0rXFnhDWwEqmPKpJuRGz1h9GxTrNkCFjFuTPnx9dunTBsmXLcOLECdy8eRNv3rzRPyVrDuzaimi5KwXvAVBZWGjWX0gz7hS+K9MViXxzoVuHtrh946o+WtCMGDkKzboNtnwvUSFEzsM1cy5SLv9fSXAFXkIICTMo5sS9udL9vUCY5VweUBO5CCYvXr/D7t+ippSbY8XBKxg0dSmqN2mPAiXKI3P2XMieIyd+zpcP5cqVQ7169VRfcxF3WYBIomvXrqhWoSyie+eA9/hTSOdoFc+JZ+Az8w94T7qAaNUHI0a6XGjRqAH+vHRB/1MIHrLYUcasudyqE0toQm4iH78Ip5pzEXHpunJ1uL6BEEJIWEAxJ+6PyIMh5yLqhqzL4kTBRB70jAo15SGNtcduYOGOsxi3cAv6jJuLLkOnqEy11HYb0aRzf3QeNBGemX+C56DtSD/1NzspP4X0Uy4g/bTLiNloEqKl/xnVq1bGiUMh7389f+FCZM31MyYu22E536gWIufv/gmjdorS+lBk3Oq3T4QQQsIEijmJGohMGHJuhPRbDsaCRNcfvMCOC8yWf2xUrt8KyZpPQoaZActZRMo9x57Al1nLoFjRItizdaP+yQefV69fo227dshTpLTK6ltdPyrGtvMPcOHvZ/qnFEysylIeaTdJsliQ/H8jD3uydIUQQsIF7V9ZQqIIl1p8KOfXx+s7rZFs4w4XXrnTmaL7iBmIW7KFeqDTX8ylr/mUi/g6S2n06thG/9RDxuXLV1CwSFE0aNfb8rpRPaSVYohWCpX/T8wPTMv/I8aiQdIWMRg3s4QQQkKH9i8tIVEAq4y5hPxqPhBk4Rb/lTyDiM1n7mLd8ZthEjKW1TVcOeZsOoY42Usgw7T3Cw1lmHFFla+UK1Na/8RDxpq165A1Zx4Mmb7c8pqM+9iqxbmbwcyaS7mKSLiEZMn/7P/+/xURdkIIIeGK9q8tIW6O9DM3fg1vFUZrRQuCW1veceAEpMr4E+Kk9kEcjwwfF9oYMpaMaXUtVw6vXEXgPeqw/0JDUtbyXeHGWDBrmv6JB5++/fohe76iqsbd6lqM97Htwn39UwsCs4hLRyOjhIV15YQQEiFo//oSEkUQQZcHP42l+42QbRbIr/9lyXMr0THH+MVb8UPOckg79gTSjtNizLGPCxlDG+tHbUwZ2+qarhrFKtZGqk4LkGHGZZU19558AbGyFseFk8FfDOrmzb9Rtlx5VGvc3vIajA9j54WHuP8s8JaWqm7c/gaWpSuEEBKhaP/yEhIFkV/ZS+2sdGaRh9ksuHb/ZbDKWGq17QPPobvhM/NPtSiOZIM/KmRhHW0sr6F71NhW13TVaNF9KBJW7636lMt7TTZgJzIVKIkXTx7pn3rg7Ni5E1ly5ELvsXMsx2dYx9ZzD3Dx1nP9U3SA/P9glnIjLjbQDyCEEBLeaP/qEhLFkUyhRZeJU9eealJz7wPJsY+6PUZpknlBtQFMPfkSUk/SvmrhoYX3lN+QXjLDUy6p1x/sm3QW3lN/115f9N+XRhtD6rBFXGVsq2u6akxcuh0xcpVX/cozTL+MmM1moGKVqvonHjhjxo5Dxhw/Y+a6Q5ZjMwKPg5cf65+kA+x/k2SOIB6SJoQQEjZo/+ISQqw4/MdjbDlrLTnmqCdiPu13pOm6GBlrdkTmOt2QqXZXZK3bFWkaj4TXxPPwajwCWet1V9sz1emKLFqkaTEeXuNPw7Nef/99met2g1/1Dkjddanq6y1jW13TVUMW/UmavQjSTTytsuY/VOyFfj2tS4kMHj56hNp166JM9YZYf+Km5biMoGPXbw/1T9QC80qeEvLwp5SxSJnXvXUsZyGEkAiCYk6IA/b+/jBYD37W6zEaHpMuoWD3abh94Rie3LmBx7eu4dmd6+gxdia+bDYfg4aOwPO7N9X2x7ev4+nta+g7eS4+rTYcs6ZNxvN7f6t9cu7lI7s0WR8A7xl/up2YS+QsUhap+6yH77xb+CZPDaxZtlj/xD/kyJEjyJ0nn1s+CBvREegDoNJxRVbDlcy4PItBCCEkUqCYE+IAERkrwbEPEfNUEy+iWP/5ePs0YGZx+IL1+KzRbEycNVff8p5Jq3bgP+UHYOOmgAvq3L/xJ7wbD4P39D/cUsxrNGmPpI3HIN3s64ibsyTOnziiv/OAzJo9Gxmz/8RVPMMwCCGEODcUc0IcYCU2ViFinnLCBZQYsAB4G/ABu9GLN+HTBjMxba62z45pa3fh3+X6YdvWrfoWGy/u/420TYa7rZgPmroUcYo1QsoxJ5EhXwk8fRhQGF+9eoXmLVqgUOkqWHnwD8sxGKELQgghzg3FnBAHWImNVYiYp5nyO3J1GI/NKxdh19ZN/tGkz0hEa7cMrTp1C7BdotWgCfim/iT0HzAgwPZV82fCo04/pJ35l1uK+YLtZ5AwdxnE77wCJcpW1D9tG5d+/x0FChVC825DLM9lfFwQQghxbijmhDjASmysQuQ5w9Tf4NFvM+LUH2OK0UjSfr7qvJK49Wz1OsC+jouQQduXoOWMAPviNhiLNAO2qS4v7ijmEn6FK+C7Mp3RuUtX/dMGlq9Yicw5cmPU3PWW5zA+PgghhDg3FHNCHGAlNlYh8iy9x6XDStyemxCn+wYtNqpIMfwQfKddQopRxwJsl0g58gh8Z1xGsmGHEdt/3wbE7bUZ6bTx0k0867ZiXq5RB/wraUasWL5cfdZdunVH7oK/YMnuC5bHM8ImCCGEODcUc0IcYCU2ViGlLN5TLyNj+ykYMGAAho8Zj6GjxmHU2HEo2rIfEgzYixJNu2uvJ2DY6HEqho8agwLN+yG+JuHlmnbC6PET1TkjtGN69+6N1M3GIp2bdmWR6Dx0Cr6N9iPWrF2DSlWrolbzzpbHMcI2CCGEODcUc0IcYCU2VqEe/px4EcX7zwPeBXz4c9TCdfhf/RmYMnO2vuU9k1Zswb/K9MHmDev0LTZeP/gbaRsNgZebPvwpMX31fnz3/ffw9smI/hMXWh7DCPsghBDi3FDMCXGAldhYhdEusWi/eXjx4LZ+to0hc9fg88a/YvyMD8V8/PKt+KTiIKxdF1DMb//1u1u3S5RYdfgqfqlSD7PWcxXPiAxCCCHODcWcEAdYiY1VBN0ucQam/jpP3/KeaWt24l9l+2Lrls36FhvP799CWjcXc0bkBCGEEOeGYk6IA6zExipUu8Spl5Gr/QRsXbEAe3dsVbFn2yY06DEMP3Rai1bd+2HP1o3v92nfN+gzGt+3mIse/QaqY419a+bPRJp6A922XSIj8oIQQohzQzEnxAFWYmMVIs/S2tCj3ybErTkQ8eoMUyHfJ20/Dz7Tf0fSTosC7qsxAEk7L4HPjCtI1OZXbd8g/33xag1GmoHSLvEixZwRpkEIIcS5oZgT4gArsbEKkecMk88jzYiDiNFuCaK3WaQiRttFSNp3C3ynXEDi3pvVa/O+JP22wVeT7wQ9NwbYF7P9MniNPoL02pgUc0ZYBiGEEOeGYk6IA6zExiqklMVr2hVkbjMO48aMwuRp0/2jYrv+iN1tA6o0bRdgu0TVrsMQo/V8NGnfNcD24UMGI2W9gUjHUhZGGAchhBDnhmJOiAOsxMYqAjz8iZe2k3XGLtmk2iXOmCv7AjJ97S7VLnHHti36FhtvH93hw5+McAlCCCHODcWcEAdYiY1VmNslvnp0Vz/bxtB5a1W7xAkz5+hb3jNhxTZ8UmEg1q9fr2+xcffaFbdvl8iInCCEEOLcUMwJcYCV2FhFXU3MPaZcRtFes/D23jXtzDfAP6/V1yEzl+KzRrMwdsJE7fVb2/Z/tP3avlFzV+I/5QdgxZKF2ut3+jlv8eCPc/CqPwBpZ13TxqaYM8IuCCGEODcUc0IcYCU2VlGrbR94jjqCdN0W4ZeGHVCmRQ+Ubt4d5Vp0R+Ymg5Bq3BlkbdQX5Vv1UtuNfRmbD0fKkUeRrV43/31ltXOL1WuD1J0XwmvMUTW21TUZjNAEIYQQ54ZiTogDrMTGKsYt2oIfc5aH17iTSDLsMBIP3u8fHqOOIf34k/AYfQKJTNslUo8+jgwTTiPVqONINOj99qTDjiDt+NNqTBnb6poMRmiCEEKIc0MxJ8QBVmLjKDoOnACPTHkQJ7WvFj7vw0Mig+2rebvaJ9ut9vkiVabcakyrazEYoQ0S8bx69QpVqlRGgQL5VTRu3AgvXrzQ9wbO27dv0a1bVxQvXgwPHjzQt4YNxrxCMh/jnPCYT3Cx/zzNUaRIYZw/f04/MmKYOHECtm3bpr8i5OOhmBPiACuxCSw2n7mLdcdvhknIWFbXYDA+JkjE4kgie/TooR8ROBTzD3EmMRcpl+tSzElYQjEnxAFWYsNguHKQiOXmzZsoXbqUv/xaia0h34ZcWu2TbefOnVNj2R9jsH79Ov8xJOxl0f46GzasDyDmVjcB9vLuSMyDurYZ+2NnzZql73k/RxHsIUOGqP32sm0/JysMYba/AbLa7mju5s9j165d/vvl9d27dwN8lhLBvdkiJCgo5oQ4wEpsGAxXDhKxGGIu4mYlq/aybIQhvo72S5hF0BBO+zCkN7BxPlbMg7q2GUfHGu/Fap72Ah4cMT916tQH5xrnmUU/sLkH9pl17dr1g30UcxJWUMwJcYCV2DAYrhwkYrGSO7PUGuJuJboi8ubzDdG1z8LbvxbsJdvqOkam2DjP/hwhKDEPzrUNjGPNYmwvy+b360h0jXPkGPuwfy/ma9nLelBzN2fFjc/efgzznxUhYQXFnBAHWIkNg+HKQSIH+8ysIa2G6FlllwUrwbSXZWMMqzDOM44xy679OFZCbX+M8dp+/lZhnrNgNQfBuEEw34jYn2smOGIuGOMan629RAc19zNnTgf52VPMSXhAMSfEAVZiw2C4cpDIxcjSGjLnSFYNgiPLwZFjq+vYj+NqYm6WcCvMxz169CjAvIWg5m6IeWCfB8WchAcUc0IcYCU2DIYrB4lYDOk0y6hZ5gIrMTHXOQcmh1YlGfYEdh3jPONaZtG0P8ZezINzbQPjWKsMtLEtLMVckM9axlq0aKH/Z2oQ1NyD89lTzEl4QDEnxAFWYsN4HxtO3ULTLgNRpnpDlK/dVIV833XYVMvjGZEfJGIx5E/kzRyG7JllOLD9gcmhYAiifRjHOLqO+ZjgjGMv5sE5x4yjY40bl5CIudU4EmZJNn/+VmMGNvenT58GW8wlHP3Wg5CQQjEnxAFWYsN4H5OW7cRXXmmQatxQpBjWFylHDkCyvl0RM3kKbDp9x/IcRuQGiXjs5TwoQTTvD66YC/aSab/fXs6nTJn8wTj20mvfUtFKzIWgrm3GyMIbYc5ih7WYC8bcHImzo7kH57M3/9kG9p4JCQkUc0IcYCU2jPcxau56RC9RGFnPH0TGg1uQ6ch2ZNy/CbF9fbHm6DXLcxiRG4QQQpwbijkhDrASm6gaqw7/hSoN26DzkMnYfPae2lajWUfEqlhaCbnP1pXw2bYKfpqYf5PWE33Hz1PHLD9wGfXa9ETlBq0DjMeInCCEEOLcUMwJcYCV2IRHzN1yApOX77Lc5yxRsko9xCz7C6L/UgSp02eEX468+D53dnjNnQK/3etsYq6F3571qqTlm9QeyJm/GOJ5eiNunar4PmdWdBg43nJsRsQFIYQQ54ZiTogDrMQmrKNOy64YNGgIFi5ahKp1GmL5/t8tj4vMmLJyD75OkVyT7g3IdGwnPCaNQNJeneC3d6MKX03MpZQl44HN8N25Vn2fYcMSJO7aFl4LpyPLmX3w1r7GTpocq49ctbwGI2KCEEKIc0MxJ8QBVmITllG3VVfMX7BAvxpw6PARtO45zPLYyIxMOfMhWb9uyHR4my0rvm+jTcJ3aUKuffWaNxXJBnRHiqF9kG7FXE3Mt2r7bILut3s9fLasRKajOxC7WgVUa9ze8hpWMXr+RtRp0QW1IyHkunJ9q3m5chBCCHFuKOaEOMBKbMIq6rXpgVmzZ+Ptu39w4+bfePjoMa788Scate9teXxkRa8xvyJanpzIrIm1zzZbuYqESLnUlMcoWRRJvNKhWIWayF+iAmKkSIkErRqpWnPZbz7ed/tqfJsyOWZvOGJ5Lfuo0rAtvvXyRNzqlRCnUtkIC7net96e6vpW83LlIIQQ4txQzAlxgJXYhEU07NAXU6ZOVVJ+8+9buH3nLl6/eYvmLVth6qq9ludEVrTqNQLfZcuE9OsWIeOhrfDZssL2kOfejYj2c25UrNsC60/c9D9+4c5zKsOesFVjZJLjRcy14+UB0TQzx+OzhPExZcXuANdwFJK5jlu9IrKc2ouM+zdHWMj14taopK5vNS9XDkIIIc4NxZwQB1iJTUhi5Jx1WLbvUoBtzboNxrjx4/2l/NbtO3j99h169OyFIdOXBzjWGUI6sMicv0+WFClHDYDv7vXIeGCL6lsuD4BanbPi4BXETJoc6VbOg59kynetRcI2TREneUoMnLLE8hyrEDGWDLbIspF5j4iQ68WpXI5iTgghJMKhmBPiACuxCW4MnrYMDRs3RtU6jbDh5N9qW+veIzFi5MgAUv5Gk/K+/QZgwOTFH4zhTDFo6lJ8k8FblahI9jtm+ZLoNny65bESRctVR/KBPdWxGTYvxw9JkmDO5uOWxzoKinnYByGEEOeGYk6IA6zEJjgxbNYqtGrTVo1x+sxZVG/QAh0HTsCgwYOVlP9967YK+b5f//7oNWa25TgSsojP2AWbLfdFZEi3mG/SeaoHP+Uh0B+L5Ffv0+pYCelbnqRHB/XQZ4ZNyxHX09vyuMAiUDGX+nVTDXuIIojzKOaEEEIiC4o5IQ6wEpugYsyCTWjWshVevHylasefv3iJLdu2YcjQoep7s5QPGToM7fqNsRxn4+nbqFq3CWbN/hWTp0xB7abt/Bf2ieiQRYLyFiuL6L8U1sR8k5LteI1qo37bXpbHS/hkzQ2PiSNsrRM3LcP3fhlQrlYTrDv+vh49qPhAzLeshO+O1fDRbg7SbFkBL+17v70bPhDrQEM7T1o6yg2GI0GnmBNCCIksKOaEOMBKbAKLRbvOo079hpqAv8Lde/dVtxWJBw8f4dnzF6p8RUKkfPToMWjZw7o1ogh4zYYtcOr0Gfyjz0UeFp22ep/l8eEZs9YfQpL0vkrEfXeth8/21arO3HvRDMRMnBQLtp/54JzeY+fgW590qr5c5FdEOIMmxLGrlEeqjFkxY+3BD86xCnsx99PGSbN+MRJ1bo3crZvDr1VTxB/eDz77NynRluvYS3aA0OYiD7Am7d4esTu1cij2FHNCCCGRBcWcEAdYiU1gUaVeU/zx51+q9aEIuSHiRkimXCR90uSpaNZ1kOUYEjUbtcKJk6dUhv36jZuqDn3FylUYt2iL5fHhGe37j1VlK1nPHVTtDiVr7bN1hSa4W5CkZ0fES5YS3UfMwOLdF/DrxqNq+f1vkySBp6wIKllpkV09S53lzH788HPuYK8AGkDMt6+ClzZO6vq1sGzuPLx68BC3fr+Mdl27IHrTeog/qj8SzRqPdLvXaTcEmqCreeqhCbnUxntsXIq4C6YidZUKGNSjJ7zr10bcCUORQaRezqGYE0IIiWQo5oQ4wEpsHMWEJdswctQolQ23knIJyaJLr/IceQtajiGZ8sq1G+PIkaOqFEakXCRfHhKtWrtBgLaEYR2SxZY2hrLKpwrt+yV7LmLlwT+QILUnPOdMUmUsRrtE351rVJmKlKv8WCgfoqdPhx980iFWpTJIu3yOJrebbGUnUi6inSOv08wYh8Re6YK9+qdZzH33bkTcAd0wadx4/U/nPbu3bsP8+fPRsGMHJG9cD8mXzbZlwrXrSpbdW7uhiN2zA/I0a4za7dqi39Ch6ry/LlxEsw7tkahxXXiunm/rzU4xJ4QQEolQzAlxgJXYOIp6LTqqbLnIt72Qm+PR4ydYt349qjf6cPGaSpqU7z9wEC9evVZSLtl1Ga9arXqYt/XkB8eHVXQfORNfJU6E73NkwXdZM2qRCd9l9kNiz7TqZqHn6Fn4Pnc21ZdcWiWK9GbYsFR9Lyt/SojQ+u7QZF07RvbLtgwbl6qsuTpGk3gZu8+4uZZzsIoAYq6JfZxWjbF323b9T8eaA9r+rNWqIMm8ycikXTPNpmVIUr8mxowYied37+lHBWTXylVInCUzUmg3DrJSKcWcEEJIZEExJ8QBVmJjFZtO30Grdp3w8tUbSxk3h2TTpTRl1eo1qN7kvZxXqtsMu3bv0cZ4L+UPHj5EjTr1VYmI+XphHeVrN0XSnh2R5fReJdWq88qR7fg6nZd/i0Mvnyyqd7nn7In4Pk9OfJEkkTpHZFzKTCQ7LqUuvpJN177Kvs8TJ0C0fLnhNW+KWrLfN9tPH1w7sAgg5tqc4vTpjKnjJ+p/Ou+ZOHEili5ajHcvX6nXV06dQbpqlZFsw2LE16R8w/IVartw/dIl/Hb+vP4K2LF+Ayq2bolkPTog3YYlqoaeYk4IISSyoJgT4gArsbGK+dtOYfCQoXj1OmgxlzDkfOmyZajZvBOqN26Lrdu2q/NFyu8/eIhHjx+jdv2GwX5Q8mOiYKnKSDl6kMpqq9ITkVPt++9zZcPMdYfUMfLgaXyPNEjplR4DJi3CxGU7lGjH08Q300F9hU8pA9HOi1OzMvyy58H4xVtVr/PUPpkQJ3mqEK9qahZzmZPXpuXwrFMDK+YvxGPtc7x24SI6de+O75rXR8xu7VC+UUM80bPi27duxRfZMmPo6FHqNd6+xcDBQ5CoYW3kaFAXlw4eRpMOHRC/ST0kWTwDftq8fbUbDJayEEIIiUwo5oQ4wEpsrGLi0u2qa4rUhVuJuKMQEZd2iEuWLlPf37h5E/fuP8CTp8/QqFnLcFmev1L9Vihbs7G/8Es9eYIkyeE1dzL89rzvUCIlKTFKFkGpag1UTfiS3ReQv0QFxEucDIOnL1PnysOoP+T/CZmPapIu2fIda1SPcxF6+7mvOXotwOvgRAAx1+YkXV481y9CgvbNkbN9K2SQrixDetu6shzZjh+H9ELDtrb+8Y+1G5u6NWri2ZMn6vXo0aM1ga8H7+M7kap5Q6SuWA7xJ4/84MFP9d4p5oQQQiIJijkhDrASG6sYPW8DZmuCHVIxl8y5SPjjJ09VplykXNoqNmvVBtPXHLC81sdE12FT8V2OLEjcsRW+S50KGXP+jO+SJ0OSbu1smXIJXU7l4c50K+eqFofxkqRA9FQeSNi6CVJPHY0YCROpfuTSSvHbzL62TLuUtEiNuSbJX2dIq/ZZzSEkYS/mal7yQOnejfDUvnprQu1rupnw1eYRs0UDbN+4UT0MunbdOvXnePrwESSqWRXeu9fDT5uj94q5qsOL+UbEHBRzQgghkQXFnBAHWImNVUxfvR9jx45T9eFWAh6ckMWIrl2/gY5de6gsttV1PibWHruOuMlSqMx4lrP71aI/yfp2gfeSWWrBINVpZftq9fCj0Q9cupTIA58i4+k0mZW68ywn9yBurSqo2qidGjelTyZE982AGL6+iOHnix+171NnzIJVh//6YA4hDSsxDyzkZsJj/SJ4lS2FNs2a482bN5BG8NXbtEb8WbYHO1XrRr0u3moMCYo5IYSQyIJiTogDrMTGKqSlYNcevfD6zVtL6Q5OPH7yDKvXrEWlei0tr/GxUaNpB8SuUk6VnRhyKpluVcahCbkIuEip9+KZSL9moeqk4rfHJrJ+e6Xcw9ZKUC0WtHkZvk6aWNWfS4mK1NjLQkMS8r3cBFjNIaQRUjGX3uVS0hKtdhVsXrVa/Rnu2bIV3xbMiwz7N1mfYxEUc+KMPHnyBPfu3cP9+/fV17DAPJ6MTwiJfCjmhDjASmwcRd1mbVQnFek5biXewQkpaxk9Zixa9x5peY3QhmT0v/NIpbLkAeqpZYl7TbRlW/ym9RDNyxMembIjrnda/FAon1rdU0mxJufvz1mBTEd2IPmQ3siev5jl9cIqAhNzubFQCx6ZtklGPP7sCajaqiXwzz8qY96/T19Uq18PCccN8e/DLu9XZc1N55qDYk6ciWPHjqFUqVKIHz8+okePjhgxYqivXl5eGDRokPZX3VgfOHjI8QMHDlTnm8eT8eU6x48f1490TuQGQp4hka8fG48ePcLDhw/1kQlxDijmhDjASmwcRechk7F23foAS++HJoShw4aj46AJltcJTbTpMwo/FMiLzMd22uqqDdHetkq1R5SVPaUzy+wNR9TxUoYiNwffJEqo5Fwt1iPHK6ldp0paEndujTR+WT64VljGB2KuXV8eAE2riXXSxTORfMUcVW+uHjzVwnvPeiSsVQUnDhxUn+OmjZswc9YsPNdumHxrVEHKjUuQUZPzNHOnINXKeWo1UHNdvREUc+IsbN26Fd988w0yZcqEMWPGYNny5eo3a3PmzkXTZs3wv/99iqpVq+Lt27f6GYEjN6uVK1fGp59+imbNmmPu3HlqPBl39OgxyJgxI7799lts3x74egGRwa1bt1CuXDkkSJAA8eLFUzcSHxtx4sRRUbFiRdy+fVu/EiGRC8WcEAdYiU1gUbFqTdXqMDRZc3kQVBYTErFv3aY9hs9ebXmN0ISU2uQtVhbf58qKdJqQ+u7WV7g8uAVJe3VEtryFLc/rOHCC6rAiD3SqGvQda5B+7SJEL1FYtUo0epyHV9iLuZTWJJ8/FV5NG6Bqh3Yo27a1eiDVa9tKeGtzlLaJI0aMVH92b1+/QYmixXD29Gn1euPqNYhTtQISbVqCpHWqI2v5sogzuCe8d6754CFQijlxBqTEJGHChChcuDDu3L2Hd/9oYv32H9VqVVYYltdz583Dl19+qaQ9OIwaNQpffvUV5s1foM6XcWQ8CXktz7oUKlQIiRMnxoMHD/SzIh/J8ks2XyS6/4AB6oZi9q9z1EP3oQ7t/DnaOP37D0CsWLGUnBPiDFDMCXGAldg4iqEzVqBT1x5KzP++ddtSvh2FIeXPX7xE0+YtMWbBJstrfGw06zoI0VJ7aHK9UJVzSB15tNzZMWruesvjJZJ6pUPaJbOUzEsrRKlTL1GpjloR1Or4sAyzmMtNgcfq+cheuybO7rdlxDWbwJyp0xC3RmWk1GR94ODBql+5MHbcOPyndDE06dpFvRY2r1uPvPVqo3LzZrj/11UMGjIEyWtVRfwpo1RHF9XxhWJOnIRff/0V3333HY4eO+7/mzhZGVjWPLh48Tf1b4YUsdRv0ABp06bF69evbSc64NWrV6p8pWGjRuo8Of+CNs7WrdtwQBtX/t2Sf4OOHD2msuZz5861negESLmJzGnI0KHqtXweYRXCgIGD8P3336vyFkIiG4o5IQ6wEhurkOx2y9Zt8OLla5VxEtGW1ofG92YJtw/ZL8v0yw/EFq1aY+Svay2vEVbhlTk7vBZOV1liyUB/n94bC3eeszxWImf+Ykitias8ACpiHqtiWQybudLy2LAOs5hLfXjsbu2wZO48/U/nPZfOnMX1S7/rr4BNK1chfq0qSHtoK2J3aYNe3XtApQMF7esL0w/fS6dOo12vnkjcsDa8NfEXOaeYE2egU6dO8PPLqJ5dkY5P8tsgv4wZUbJkSfz000+4+NsllfGeMXMWfvzxR/z999/6mdbcuHED0aJFw6zZs1XmXaQ8d+6ftPFKqRIWWSRNWr7K9Xx9fdGly/ub2ojgxYsX6j1YxdGjR5WYS2laUN2v5IZDntd5+uy5+iqvrY4z4uXrN5g+Y6a6CZL6eqvrS8j8CIkIKOaEOMBKbOxDepg3a9FK/UCTXzdLP/JHT57i7Lnz6h992S6Cbv/DQLJT8gNQfrBe+v0y6jduFmjmOixi4+nbSJg8pSbmM5SUS8b8+xxZ1EJBVsdLpEqfEV7zp6oHK6W2PGa5khEmrAEy5vs3IU7rJti71XHt63Pt8x83ajSS1KmO1BuXqHr09HvXI1bHVqjTqhUObt+Bd9oPantWzJmHhHlyI9WcyeocijlxBjp37ozs2XMouZR/J+rXb6BKUd69e6dEesfOXep+UxYpEzEPKtsrDzqKmP86Z446T+rIpXZdxpNxS5Yqrf69kutly5YNXbt21c8Mf06dOoU0adLgq6++sgwp1/nXv/6FSZMnW4q5+beOv2k36fK8z/LlK7B+w0b8pv37Kttlv1WiRMR8wsRJany5jtX1JTw9PXHmzBl9xoSEHxRzQhxgJTbmEJFu0botnj57of7RFymXH2zyq+BSlWqgTuOWWL5ihao5l+3STlFCfrDIokKnTp/BwEFDUKtJ20Cz1mERsmBRWr9siFWxjO2BR71FYiJNWn8uXs7ynMHTluE7vwy2Gmx5UFSTVmmn+JVnatRr08PynLCMAGK+dwPiD+uLfn376X86Nl5rEtG5Z0/U7dgeeZo2QuweHeC9XZur9GKXh1WlNl6T+kQzxiJxq8b4qUUTtOnVU517YNsOlG7YALHaN0e6bbaVReUcijmJDP766y9s2bIFmzZtwrZt21C+fHlNnDOrfyukBrxJk6aYrImpkCtXLuzavUcJtmR7JZu8cOFCdf7mzZs/CNm+YMECfP311yrrLOft3LULuXPnVuPJuOUrVFT/Tsn1RPyl5lrmIfOR82V+4UWbNm0QK3Zs7b3MUL8BmDJ1GqbaxeQpU3Hs+IkPMuAi2w8fPVbrQLRt1x6JEifG//3fv7T4P/zfv/+DREmSon2Hjmq/HGcv5zKejCvj219T5iHzmTZ9BmLGjIl27drpMyYk/KCYE+IAK7ExYvT8jWjW0pYpN6T82YuXSrYrVK/nf1y34dPRqHVntO3UDd179kGv3v3QsWtPNG7VAY3a98aUFbsDjBseIRnxHz08kLRvF1WOomqpt6xUci615t9lzYjKDVpj+YHL6vjNZ+6i74T5+DFBIrW4kGozKA9GKmndpNoufp87e7iLq1nM5cYg/c41SNy8oZLzM4eOYO/mLajStAl+6N4OCedNhodkybX5iYybH+aUkBr5DHs3IvmuNUhVqyqaNW6MJE3rI/GCqfA9oIm/qfUixZxEJFIb3rJlS1VK8dlnnyl5lgzt559/jp9/zqdK3QwxnzhxojonZ86cSswlkz5nzlx88cUXgWZ7JWS/HDd33nx1noi5CL4g4xpiLtfLmzevur6cJ/P5VJuXzE8EOqha9tAg9fTy3kWCBfs6cCPkt5L2Yi2/eZTfOubImcsm41r857//wyf/+1R9NbblzJUbv1++oo43n29k262uJyHIzY98Bs5Ud0/cF4o5IQ6wEhsJ6QveuFkL9Y+2IeVSz3ju/AWUr1ZXLVdvf448LLni4BUs3/+75f7wDOmuIi0Rs547ELA9oGSUpUPL5hUqkx7H0xM+WX9Ccp+M+DazH1JPG4OMB7ao48znZD6xGylHDVCdWayuF1YRQMy1a4s8p9+xBnEG9kDq9i2RtH1zJJqm3TiIWEuG3ELI7UNaPyYd0ANxh/ZBhn0bbVlyu2Mo5iQiadiwIb7+5hsMGjwYh48cxaHDR3Dw0GHs238AJ06eUmVv8ps2KzEXib585Q8cOHgQBw8eUuc5igPafjlOjpfzrMRcSj7kN3xy3f3a9eU8mY/Ma8jQYap1Y5MmTdQ5YYl0XalVq5a6cdi8Zas2j1eWZSf2IXOVLPgvpUor+RYZ/++nn30Qsl32lyxdVh0fnAf05fpyo7Jp02Z1k1KnTp0Q94wnJDRQzAlxgJXYSLTpNRx//PmX+gdepFx+9fvX1WuoXLOBWgnT6pzIjLXHbiC5dwZ4TBqui7YuobrIitRmPLgV6VbNR5rpY+AtD4dqAuuniauScpPwqoV9tOO/SuMR7jXx9mJuzFnmll4LJdZ668dgh/Z+pL7evkWiOSjmJKI4ceIE/v3vf2PMuHHqtQizZHTl3xYJeYhcJNGRmEsXKHmGxTg+OHHr9l11niMxF2m9d/+h//EyH5mXIAug/evf/1I14WHNs2fP4Ofnh2TJkqkMuFwzKDmXevily1fg//71b/z7k/9aSrkRsv9f2nErVq5S51mNZ4RcV67/2++/I2nSpKq0R+ZHSERAMSfEAVZiI9Fp4Dgl4vIPt2TNr2v/iFeuUde/FMQZY9DUpfg6Q1pk1GTWJuJbVImKlKYYZRyyXbqvyIOehowbgi7iLmUvmY7uQIJWjVCodBXL64RlWIp5BATFnEQUixYtUm36pMRCZNhKEiUcibl9WUZwQ84LTMytzhGZF2H+9rtvsWTJEnVeWHPhwgW1Cqn0Upc5SumK1VyMkH9/69Srr7LhVjJuH3Jc46bN1Pu0Gs+IO3fvq/dboGABtTLqxYsX9RkSEv5QzAlxgJXYSLTqMUQ94ClZ83Pnz6OKJuXh/fBmWESOfMWQpGdHJdfJB/TAd9kzI1G75kq+rZaoF3lPM32s6twSt14NZNi4FBnWL8H3iRJFyPulmId9EOdCxFw6qkgnkbv3bNlxqxAxb9iwkarFFuShTenK8jFivn3HDtV2UZBxS5cpG6iYS/ZeWjRG+z5auIm5sHLlStUhpU3bdqpjiqP5yHYpIcxXoGCIxLxAocLqvMDGlQf0W7dpo36bsWrVKn1mhEQMFHNCHGAlNhLywGaH/mNU5rx17xFYsuei5XHOFrM2HMZX8eLhK6/Uqj9595EzkbtQSXyf2Q/p1y+G7873ci6Z8/iN6yChh6eqUa/WuD1ie3njyzSp0LB9H8vxwzoo5mEfxLlYvHgxfvjhByW8QYl5y1at1Cqgw4cPR/LkyVXdt2R1rY4PKuS8Q4cPq3FkPBm3br16gfYIFzGX3ueS4V+6dKn+DsKHnj174l+aFM+cOQuvNDm3mo8h5gUKFgqRmBcsXCRQMZfrzZw1W90c9O7dW58RIREHxZwQB1iJjavHlJV7MHHZjgDb0mXKgTQzxykZV3Iqddz7NuJbb0/VZtE4bvHuC2oxJfO54RkixnGrV0SWU3uVLEdUyPXi1qhEMSfhTnDFXPbJb+lk0aGWLVth2vTpqrbckVwGFXKenD912nQ1XqdOnS1bEZojIsVckCX4o0X7Qa12KiJtVW/+/PkLNGzUOERi3lx7v1alLDK+lMbIQ7fS77106dL6TAiJWCjmhDjASmzcMfIWLYPUU0Yjy+l9qnxFWipmPLQVMf38sHTvb5bnRERUadgW33p5anJeWWWwIyrkenJTIte3mpcrB3EugivmIo0ixtKtRORRRNXquJCGjCPjybgyfmAPW0a0mN+/fx8eHh5Inz4Drt24ifsPH30wvydPnmL12nX4zyef4N//+cRSxo2Q/f/573+xYeMm9cC+eRwZV8p7rl67jnTp0qnFjuT6hEQGFHNCHGAlNu4YJSrVQZxaVeAxbihSDO2DlCMHIFn/boieLHmEt3Y0h/SKr9Oii8pcR3TIdeX6VvNy5SDORXDF3BkiosVcOHLkiOqlXrFSJTx9/vyDVZQl8y9yXrlqNZUNl77lVlJu9DOvXrO26shi/5sGGVduUipUqKCud/ToUX0GhEQ8FHNCHGAlNu4YUnteqV5LlK3ZGOVrN1VRpnpD9Brzq+XxDNcN4lyYxVw6gUgpiZRZSBbbPmS7yLGIpC3T7fg46RhltHJ1NJ6cb2Tebdl4x+PJvCQiWsyF2bNnK6nu27evmo9ZqI25y6qeRYsVV8dJ/Os/n6je5fLV2FaseAn1mRifoTlkcbjeffqo4+R6hEQmFHNCHGAlNgyGKwdxLsxiLhItC/r07dcf3Xv01KKHKXpq4thXtUiUbO+48RP8t9sf17NXLyxctBiPHj3GgoWL1Gur4yTGa+PIeLt271bjWx0n85FFhmR+kSHmgqw4+r///Q+bNm92WIZy685d9B8wEF7eafH5l18pyf7iq6+RNl169B84SGXFHzx4+EE5jIwn5S3//e9/0bZtW/2KhEQeFHNCHGAlNgyGKwdxLsxi/ubtPxg0eIhaZKdfv37o06ePf8hraW3YqXNn/PnXVSRKlBjt2rVTWWTzcfK6XLlyyJ49hxo/a7ZsKF++nOVx7dq1ReLEidWaDB06dkKePHksryvzkVU/37z7J9LE/O7du/j2228xYeJEy84xItvS81yy+1ev38Bu7QZm3foN2L1nr8qSy/Y7mpjbS7mEtGSUGx0Z/969e/oVCYk8KOaEOMBKbBiMsIxxC7eiQq0m8MmSC6k806uv8lq2Wx3/sUGcC7OYv37zDv0HDFBCbMXkyZPRsVMn1fNcFhh68+aNvicgu3btQt6ff4bm0ciTNy/27Nmt7wnI69ev1TiyaFD7Dh0xbdo0fU9ApGXggIGD8Prtu3AT8wcPHqBp06b4WZt3/vz5A0TBggXVTYlkzB2JuRGSOZfWkhJSS258H1i/d0PMP/30U3VzItezn4PMS+b38OFDfcaEhB8Uc0IcYCU2DEZYxMbTd1CuZhN88p//4LNo0RAtS0bEKFxAfZXXsl32y3FW54c2iHNhL+YDBg5E586d9b0BGTlypMqYi0hnz54dt2/f1vcEZO3atfg5Xz4l5iLo69ev0/cE5NatW2ocWXVUMuajR4/W9wREWjQOHDQ4XMV8gHZDIuPWqlUL1WvUQLVq1T+ISpUqYdPmLXj46PEHcn3r9h2VFZfe7nKT8VOevMjg66e+Gq0gpT7d/qFPiYePn2Djps2oVLGS5XVlPjW1eX333XcYNGiQPmNCwg+KOSEOsBIbBiMsokjZapp8f4LY5Usj7dLZqm98piPb1Vd5LdtlvxxndX5ogzgXFHMb/fv3V5+DiLVge/BUHkY1xwv1AKp9OYpIuWTHR4wche+1MYyHPc3xw4/RMWrMWPWwq72cy3gyrqNrClJjL73NB2p/PoSENxRzQhxgJTYMxsdGn/Hz8G9NFuLVrIxMx3Yg01FNyPesR7q1i9RXEXTZHrd6JXWcHG81TmiCOBcUcxtS2+3t7Q1PTy/8+ddflllxRyGZ8jFjx/lLuFW7RGOflKyIbFuNYxUyjz/+/Atp0ngibdq07G1OIgSKOSEO2HrugaXcMBhW0X3EdGTLUwiJkqYMNKRTxBfx49mW/z+8DZ4zx+EzrzT4vy8+x2feaeA5a7zaLvu/iBdPHW81jjnkunJ9q3mZgzgXIakxnzJlSvBrzPPZasxFzF2hxlw4c+aMegCzZMmSePz0GW7fuWcpy+aQ2vHjJ07ix+gxHEq5EbI/ZqzYOH3mLO4/eGg5njnkYVLp2FKixC/qPZ89e1afKSHhC8WcEAfs+u2hpdwwGPZRplpD/Of//oVvPFIh1i9FEKtkUcT8xTqiF8mPpN3aqdVVM2xcis80SfdKkgx9e/ZC2mTJ1WvZLvvlODneahwJuU6sEkXUdeX6Mg+r+UnIjSZxLsxibuvKMhiZMmVSJRNS3mGEvM6b11YvLRlc6crSsWNHVZsd4DjttSySky17djW+dGWpWLGi2m4+Ts7r0KGDrSvLX1e17zuqBxytrpsxY0YMHjI0QrqyyOchAt25Sxe8ev3GsibcHJIt79Wnb5BSboQcJ+0f5Tyr8YyQ68r15TcUco7Mi5CIgmJOiAMOXn5sKTgMhjm6D5+B//zr34hTtQJ8d661laJIHN5mHaqWfBP89m5AqvHD1A/+nTt2qr9z8lVey3bZL8cFNZaEXFeuL/OQ+VjNc+dFirmzYRZzyc4ePnxEyXmfvn1VX3Ej5LWUuezZu09J46RJk9FHtpuOMY7rp4nnkqXL8PDRIyxeslS9/mA8/dhJkyer8fbs2avGt7quzEdqvyOqj7nccPz73//GwoWLVAcWqxaHhjxLzXiJkqVCJOaly5QNspxFrjt/wQI1D0elRYSEFxRzQhxw6tpTTWjufSA4DIY5MmXPozLWIse+u9f514lLOUpG+XpoK3y2rVKlKebw3b0eXgum4f80mW7boqWqrW2jfZXXsl32258j48h4alxdzOV6cl25vsxD5mM1T7nRJM6FWcxlSf4bN24q+T195owquTDH+QsXVE9uEccrf/yJM3b7jTh77jz+unZNE9c7qke5vLY6TuLKn38qwZVxz5+/YHHMGTWfGzdtK2ZGhJi/e/cOhQoVQvToMXD02HE80eTbSs4NMc+TL3+IxDyvdrzVQ6ASch3Zd+ToMfwYPTqKFCmi5kNIREIxJ8QBv995jq3nPxQcBsMcCZOmUGUlhiSnnjAc0aqVx3dVy+PbiqURv3lD+GxeDp/tH8p5xn2bkKBRHSUM3332hfoqrzPu3/TBsep8bRwZT8aV8eU6cj3jZkDmIfP5cJ731I0mcS7MYi79tqdMmYqkSZMid+7cyJEjh3/I6+TJk2Po0GFKouVBRCl5kRpx83G5cuVCmjRpULp0Gfzzzz8oWaqUei3bzcfJeXJ+2nTplIwOHjJEjW913aRJk2DqtOlqfhEh5oI8mCqfg6+fnxJmqQm3knPJfJctXyFEYl6hUmXLjLmMb9Se+/j4IFmyZA4fsCUkPKGYE+KAZ6/eYvsFPgDKCDyUmJcs5l9aEq1SGXRt2ASrFyzCqnkLkNbXDykXz4TvzjUfyva2VfDbuxGpxg1F3NZN1Fd5bZlh186XcWQ8GVfGl+vI9eS6cn2Zh5WY77j4ELcfv9L/ZhNnIaCYv0O//v3RsmVLPHnyBI8ePfIPeS2rcHbo2FE9rCmrcf7+++94/PhxwOO01wsXLkTun37SxBzIpYn14kWL1HbzcXLepUuXbONcvoJ27TuounOr6zZv3kItdR/eD3/as3fvXnz++eeoUaOGEmlpi2gv01IrLm0SRbg/+d+nljJuhOyX48aMG29ZYy7jy3WqVa+urrtv3z59JoRELBRzQgJB6nLtJYfBMId0RVEZcyld0eLbKuWwffVa/W8QUKBcOSSZP9VazCW2rVT9y6VERb7Ka6vj5HwZR8YzkOvI9VRZi4i5Ng+Zj/0c5QZTHi4kzoW9mEudd7du3fS9ARkzZox/u0TJZstqmVZs3LgxQLvEzZs36XsCIq3/ZByjXeK4ceP0PQHp2rVruLdLdMTEiROVTA8ZOlQ9jGkv01JeI/NPkjSZnjX//AMht8Xnan8Kj9SqDEj6ltuPJeNLPb0cJ6usEhJZUMwJCYSLt56zbSIj0LAXcykxkWy2Qd5SpZBUasYdiXkwQ86XcWQ8A7mOXC8oMWd9uXNiJeZRsY95YDRs2BCfffYZ1mjvSzLd9iUtkuVeumw5vvjiSyXV9plzI1P+xZdfYdWatR+Usch4Mu6atevwqXZ848aN9SsTEjlQzAkJhFfaD0uWszACC2cXc/mtz8Pn1j2vSeRCMQ+a58+fq8x+4iSJcer0Gcse5CLWK1athpd3WiXh9uGdNi1Wrl5jWVsu4508dRqJEiVStfcvXthW+yQksqCYExIE524+w1aT6DAY5ghKzH8qWRJJV8+H39Ht8D24JdQh58s4Mp5B0GJ+D0f/fKIfTZwNinnw+PPPP/H1119j4qRJqpWhvVxLSDeVv65dVw+qNmjYCJWrVkPDRo0xfeZMtV32W5338vUbjJ8wUY1/9epV/YqERB4Uc0KC4N0//2AHa80ZDiIoMc+pSdKXeXMheqliiK4dF+rQzpdxZDyDoMR8x4UHePGa7d6cFXsxl5U/e/Xqpe8NiNRbm1f+dJTZ3b59ewAx37lzh74nIJKJNq/86aiuumfPntoNQ/iv/ClSvG7dOnVjIV+NWL9+PRYsWIBvvvkGk6dMwYuXrywFW0pSZLVOqRU3I69lu1VXF4kXmuhPnDRZrToqD87K9czXN+ZDaScRBcWckGBw/9kbrgTKsIygxFy6XxzbvUePvR8RtjFkPIPAxFxKWG4+fKkfSZwRs5i/1Uy6f/8BKFiwIJYtW4ZFmiQaIa9lRU/pniIPL0orwcmTJ6nzzceJMLdu3RpZsmRV42fOnBlt27ZR283HyXmTJk1SLQFlJdG2bduhUsWKltctUKCAEnOZX3iJ+Z49e/Djjz/if//7n+qIYhWyb8bMmZYdVQwpF2m/cuUq1q/bhgXzVmDj+u3a+7uG5y9fOpTz59o506bPCPLa0aNHV51iCAlvKOaEBJO/7r5g5pzxQQQl5uGJIzGX5yLO//1MP4o4K2YxVw8grlmL4iVKoGjRompxGyPkdfHixdVqmCKTNWvWQhF1TMDjZFvRYsXQo0dPlVHv1r2Hem071nScnKdtq1WrllpoZ8GChSimjW95XW0+a9etV/MLLzGXFpHx4sXDjh07cejwEezRBFhWOTXHzl27VXbfvm2iyPaDh4/UgkqdO/VGGm9PpMkcC545vte+xoZ3+rTo2rkv/tbOk+Ps5VzGk3FlfPtryjxkPtt37ECcuHHVTQ8h4Q3FnJAQcPrGU8o5I0A4nZgnS4kTV7mYkCtgFvPbd+7h0WPb8wCSnbYP4fHTZ0om5ZVssjpO9sliQNeu31Bf5bXVcdp/ap+M90QbV7A6Tnj46LHKOIeXmK9Zswb//e9/MXDgIPVaPoeHj7SQr3rIttt37n4g1vcePMBff11H3jyFkSLT52gzJTVG7ciGiQdyal+zovXk1Eie8TPkzVsEV6/eUC0WzefLeDKuuqY5tOsbfx5SYvTJJ5+okhZCwhuKOSEh5I87z7HzAstaGLZwNjFPliKVvpc4O2YxlzKMJUuWIru+4mbOnLn8Q17L9hkzZimZlCy21IfLip7m42RBIelg0qJFS7x69QrNW7RQr3PlCjie7bycKKGNIxnz6dNnBHpdaUco8wvPGnN56PXf//kP5i9YqOrCrcpO7EPm/vjJU5QqWQnpC36JKUdyYfKh3BizKyfG7MyBsdpXeT3pcC6kzfcFypWtpo63Wo7fPuT6Mo958+bj3//+t+rnTkhEQDEnJBRIzfnOiw/Z45zhdGKeJnVqfS9xdsxiLgtAycqfZcuWVatO7ty50z/kdf369dG+fQdcvvIHPDw8sGLFCuzevTvAcVID3bdvX2TLll2NnzVrVvTv30/VcJuPk/OWL1+uxpGadakxl37hVtctU6YMBgwYiDfvwq/GXHj79i0KFy6MmDFj4tjxE3jy9HmQcv5Ek+zFi1chgcc3GLU9K8bvy4XRO3J8EBO07SO2ZkHc5F9rn9t6JedW4xkh15UuLkePHUMMbT5S1vPuHR+iJhEDxZyQUCI9zs/ceMrVQaN4UMxJaDGLudGVRbqgWDFhwoQAXVmePrUuV9q6dWuArizbt2/T9wRElts3d2WRh0Gt6NGjR4R0ZRGkhaM82JoxY0aV1b53/2Ggci59yWvWaIDC9WJi+vE8GL39Qyk3YvqJPMhfKwbq1W2G588/fIDUCLme0Svd188XyZMnd9iakpDwgGJOyEfy+MVbnLj6RGXPpT2d9I62EjiGewbFnIQWezFnH3OorL90QqlWvbp64NT+YU8jbGUsz5AvfyE0HJYMkw5aZ8uNmHQoN2r3T4L8BQprNyXPHZazyPVE+KtUrYovvvgC+/fv12dGSMRAMSckjJB+538/eoVT156qJdBZ5hI1gmJOQgvF3Brp2S4rdg4dOkzVeVsJtBLzx8/wc/6CaDQieGJeZ0ASJfKBiblcb/CQIer6jn6LQEh4QjEnhJCPQESYYk5Cg5WYO3rIUMTZLOb37t3T9wREFsgxi/nGjRv0PQG5e/duADEfO3asvicgXbp0iZSVPxs0aIDPPvtMb9X4yrKkRTLbVavUQbFGsWylLBZCbsT04z+hUL2YqF27seXS/DK+POC6es1afPrpp6rmnpDIgGJOCCEfAcWchBZ7Me/brz/atm2rHoR88+aNf8iDh4MHD0b7Dh2UmEsN9o0bNz44Tl7LQ6HSnUUaHebMlQurVq20PO769etqHBHztu3aY+jQoeo69se1adNG1b5HtJhLH3a5cUiYKBHOX7iAR4+ffiDn0uZx/tyliJfqS4zdnR3j9+a0lPLxe3NhzK5siJvySyxcsEKdZx5HxpUHQs+dP48ECRKoTjYvX3JxLhI5UMwJIeQjoJiT0LJo0SK14qXItpRQTJ4yFWnTpkW5cuVQunRp/5DXPj4+GDJkqOpPLt8XLVJUdUwxHycdXURmZbuU1pXStmXPnkNtNx8n+6XTiK+PL67fuKlJ/xBtTF/L63p7e2PK1GlqfvLgabRo0bBkyRL9HYQvly9fRqxYsVTmXx7IvHvvfgChlnpw6bFeqFBJZCz+NaYdy41JB3OrVoki5PJVXk85mhs+hb5CsWJl1fH2ZSwy7v2HD5E378+IHTs2rly5os+AkIiHYk4IIR8BxZyEFhHcb775BucvXFQZYVkef//+A9ixcxd2mkJe7923X7VKFKk8fuKkWqnSfIxx3O49e3Hu/AW1aI58ldf246nQzpdxbmrjybgyvtV19x84qOZlyyhfwFdff6WW6o8oZFEfWdynWfPmlj3IZTXP3y5dQcaMOZAm1xfoPMcbE/bnxFRN0sfvy4HOv3rBI/vn2v6c+P3yH+p48/ky3pOnT7Xxm6nrbNhgXfpDSERBMSeEkI+AYk5Ci2RmpQOJlKhI6Yms1CklI1bxRgvpUiJlGHKcvHZ03MtXr5XEytfAjpNxZDwZ19FxKrTjtC9o17696lTyxx9/2N5ABDFgwAC1yM/yFSu1+T4PINZShvLo8WNcu3YDTRq1gYdXCqTOEg0++X/Qvv4AD88UaNmiI65dv6my5fblMNKvXMaV8QcNsq08SkhkQjEnhJCPgGJOPgap7f7X//0LderWxYKFC7Fq9RqsXLXKaULms2DBQtSqXRv/+te/MHz4cH3mEYd0oPnuu+8wcdIkdbNhFmsJkW0pR5EbjAsXfsfSJWsxd/ZSLF+2Xr1+8eKV2m8v5RIvX7/B+AkTVYmOPBBLSGRDMSeEkI+AYk4+lsmTJ8PT0xMxYsRQK186W8i8ZH5TpkzRZxyxXLt2TT10OnPWLNU5xV6uzSECLr8FkEy4fLWvS7ePF5qYT58xS4m5PFBLSGRDMSeEkI+AYk7Cgn/++Qf379/HgwcPnC5kXjK/yEJ6rn/77bcYPGSoei3tDsMqhAEDBirxZ8acOAMUc0II+Qgo5oSEP9IlRjqm9OvXH7/OmYtZs2Zj5keEnP/rnDno27ef+q1ApUqV9CsRErlQzAkh5COgmBMS/kidefny5ZEwYULVazwsIn78+Go8kfI7d+7oVyIkcqGYE0LIR0AxJyTiePbsGZ48eYKnT59+dMg4Mh4hzgTFnBBCPgKKOSGEkLCCYk4IIR8BxZwQQkhYQTEnhJCPgGJOCCEkrKCYE0LIR0AxJ4QQElZQzAkh5COwF/Nvq5TDtlVr9L3hi1xHrkcxJ4QQ94BiTgghH0FqDw/ELFlMiXGmI9sRrWIZ9G7eCltWrgr3kOvI9eS6Ssy1ech8CCGEuCYUc0II+QhUxrxEESXGfns2wGPsEESrUArfVygd7iHXkevJdZWYa/NgxpwQQlwXijkhhHwEBQsUwDdpUsN351r4bl+tSfJ6ZDyyXZWXhHto15HryXXl+jIPmQ8hhBDXhGJOCCEfwayZs/DJv/+DRG2aIfPJ3ch4aCsyHtwScaFdT64r15d5yHxI1Oa3W8/x8Pkb/RUhxJWgmBNCyEfw+vVrFCpYCP/77HPErVIeSbq0QeL2LSIs5HpyXbm+zEPmQ6Imr9/+g/kHb6Hy5DPos/oPfSshxJWgmBNCyEfy8NEj1KxRE1998QX+83//F+Eh15XryzxI1ESy5G0XXVJSbsTms/f1vYQQV4FiTgghYcT169dx8ODBCA+5LomamLPk5hi47k+WsxDiglDMCSGEEBfk+oOX6LT09wBCXnfmeey48EA/ghDialDMCSGEEBdj5fE7qDHtbAApZ5acENeHYk4IIYS4CJIl777icgAhZ5acEPeBYk4IIRHNq5v6N4QEH6ssuUg6s+SEuA8Uc0IIiUj+7A/s/Ay4Pl7fQEjgWGXJRdBF1Akh7gXFnBBCIpI7y4Dt2j+9e2MB717oGwmxRkpUpFTFLOUi6SLrhBD3g2JOCCERzdHMNjm/3EHfQEhApDxFHuY0Czmz5IS4PxRzQgiJaJ4cs4m5lLSw3pzYwSw5IVEXijkhhEQGZyvY5Px8DX0DiepYZcklZAEhWUiIEOL+UMwJISQykEy5yPmLK/oGEpWxypLLEvuy1D4hJOpAMSeEkMjm2Tn9GxLVePbqLSbuuB5AyCWYJSckakIxJ4SQyEQeAJWSllvz9A0kqnDi6hM0+vVCACFnlpyQqA3FnBBCIhPpZ+6k7RNfvXqFKlUqo3jxYnjwIHgrS759+xbdunUN0TlRDUdZ8mm7bzBLTkgUh2JOCCGRzeF0NjmXxYecCIp52GOVJZfXsp0QQijmhBAS2dxb55TtEx2J+fr161CgQH7/mDVrlr4noJjv2rXL/5jGjRvhxYuou6CSoyy5bJN9hBAiUMwJIcQZOP2LTc4vtdA3RD5WYj5x4oQAUm5Ejx491H5DzK2OiapyLjXjUjtuFnJmyQkhVlDMCSHEGZBFhy42cOqM+c2bN1G6dCkUKVIY58/bOskYxxjbzGJuZNLtj4kqSL24dFcxC7kEs+SEEEdQzAkhxNlwkvaJ9mJ+6tQpJdxGdtzAKG3Ztm2bwxpzI9Mux0QFrLLk0qdc+pUTQogjKOaEEOJMGCuCPtqnb4g47OWZYh5yHGXJZUVPWdmTEEICg2JOCCHOhNHXXDq1RDCGYBslKEbpilEbzlKWwPnj7gtmyQkhHwXFnBBCnAnpZS49zUXOI3jRIUO8RarNYe66woc/rVl5/A5qTDsbQMqZJSeEhBSKOSGEOBuRuOiQUa5ihH3ZisB2ie+5/uAluq+4HEDIRdA3n72vH0EIIcGHYk4IIc6IsejQ1eH6BuJsWGXJRdJF1gkhJDRQzAkhxBmRRYek3vwN65OdDUdZchF1Qgj5GCjmhBDi7DhJ+0QCrDt1l1lyQki4QTEnhBBnRerLj+e2LdX/4oq+kUQG8hCnPMxpFnJmyQkhYQ3FnBBCnBmjr7ks2U8iBWl3KG0PzVIubRFlESFCCAlLKOaEEOLMyBL9kjEXOY+ERYeiMlZZcglZQEgWEiKEkLAmwsXcWGjC3GrLHOa2WyFF+uuG1apy9i3D7FexI4SQCCMSFx2KqjBLTgiJDJxOzCVC2u/WvKBFWIi5fY9eIyjnhJBIwbzo0J1l+kYSHjx79ZZZckJIpBGpYm4v0eYsdUgy52Ep5oEtJx3SeRFCSJhxczrwZ/8IX3AoKnHi6hM0+vVCACGX18ySE0IiCqcSc8HIVttnp+2XgTay6lbLP5vPdXSeI6zEXDDGsV8Fz34J6yJFCuP8+fetzRy9X+MmxJircZycv2jRwg/Gsi+tsXofga3GRwhxI9g+MUyRLPnEHdcDCLmEbJN9hBASUTidmBuia5ZSe7k2QiQ5MDEP7LzAMJ8XWPmKvSybw3hvIRVz8xiGfDsqrTHLuaP3SjknxI2QbLnUmcvDoPJQKAkRf9z9MCnjKEsu2wkhJKJxOjE3Z45FzI3XZkG2l1qrUpbgnOcIK0k2jy2YjzGLvn3G33xccMXcPJ55u31pjfEZGTcz5vdlHBPUeyWEuBjSNlFqzS820DeQ4CAdVuRhTkPOmSUnhDgjTi/mZuzLRgzptBJzM47OCwqrTLUhx1YyLNi/P0fvNzAxNx/n6DpmjLEchdVnQghxUWShIaN94pNj+kYSFIaES2eVszeeMktOCHFKXLqUJSgxD+q84GKes3Guo+y7fY16SMXc/obE0XXMOCp1MYJiToibcamFTcxPFtQ3kMCQLLlZwu1DurBIRp0QQiIbpxNzexE1Z4ON441tVg+A2h8T2HlW2F/fwP6GIbwy5vZiHpyMuSHmgb0vQogb8Ub7t4DtE4NNn9V/WAq5lLZIv3JCCHEWnErMDQmVfUbJiJV0GplwKzEPyXlWmOdnjCUY49mLtGwLrMbcPDfjOPO2oMTcaj7279f8udnfhAQm9IQQF0baJ14drr8gjjh05bGllEvcfvxaP4oQQpyDSBVzR2EWZ3Pm2z7M0mkuWxG5NVoOWkVQsmrItVWYZT2wuZlvOhyV1EgEJeaCo/k4ev/mMM+XEOKmsH2iJbIgUIv5Fy2lXGLa7hv6kYQQ4hw4nZhbiaRZTEVGb9269YHEmrPGxvbgnOcIK+m2mpv5uhJWY5sz3BIyl127dvl/H5SYC/bzscr628s5pZwQN0daJu5PZCtr4cJDH7Du1F1LITeHPAhKCCHOQoSLOSGEkDBE+ppLrbmsCkr8MdojinxLJxapM5cM+ZIjt1V5iwg5l9gnhDgbFHNCCHFlHu2ziTkXHQqAiDlryAkhrgbFnBBCXB0uOkQIIW4BxZwQQlwdLjpECCFuAcWcEELcAakxvzVPf0EIIUETmoYcwUUaUti3xQ4pgXW1M8KZGl2ExXummBNCiDshiw+xfSIhJBiEtIV1cDB3oosqYh6W75liTggh7oKUsUjrROnUYvBA+yEhpS6EEGKHWczthdLcpjkk8huWkmrGaE8dnJbXEQ3FnBBCyIdIL3Njqf7LHd4/FCpyTgghdgQm5oL9auYG9plsI6tuv26LhPlcR+cFh8DEPLBxzevEGItPmscwr3kjK7QbNyT279l+sUfjZiWo9xxSKOaEEOJOSJ25yLg5KOaEEAuCEnMrGXZUXiJSG5ikBnZecHAk5kGNa1WuY4i7vWybI7AbCiNEzinmhBBCrLk+/n3G3Bw3p+sHEELIe4ISc3O2WWTYeG0WT/sMs1VZR3DOCworMQ/OuOb3aL4JsNpunrtxvnFd8zXsr2v1nkMLxZwQQtyBO8vet0ykmBNCgoFZToMj5mYMYZVzzSIblKQ6Oi8oHGXMDRyN6+g9OhrPXuyN145CxqSYE0II+RDpxnIw1YdifnW4fgAhhLwnKDG3kldHZR1BiXlQ5wWFI5EOalxHNxeOMvbGdYztgZW7SFDMCSGEOEYeAJUHP81ifqW7vpMQQt4TlJgHlj02jje2WT0Aan9MYOcFhZWYB2dcR2Ie3Iy5IeaBzZNiTgghJHAe7XufPaeYE0IsCEzMDXGVfUYHEitJNTLWVmIekvOCwkqkgzOuIzE3v/fg1JjLNnv5N46xes+hhWJOCCHuipE9P19D30AIIe8xy6mjMEuvOUNtH4akCubyEhFio02hVZjPC4ygMub2YYzrSMwFqzKVFi1aBDhfcFQuY5Zw+/dsf63gQjEnhBB3R1YDJYQQO4ISc6vsr1lmRV5v3br1gfias8zG9uCcFxhWYi4ENW5gYi6Yz5fMuX023MBezu0/G6v3HBoo5oQQQgghhGgYoh7cEpuwhmJOCCGEEEKiFKH5bUFEQDEnhBBCCCFRDkdyHllSLlDMCSGEEEIIcQIo5oQQQgghhDgBbi3mL1++VE/U/v3337hy5QqOHDmCpUuXYvr06ejTpw86d+6MGjVqoESJEihVqhSyZ8+OJEmShCqSJ0+OYsWKqXHka/PmzdGzZ08MGDBAXXPDhg04d+4crl69ijt37uDx48d48+aNPlNCCCGEEBLVcQsxlxqha9euKfEWAf7111+VFDdu3FhJcrZs2ZA0aVIktZPpRAkTqkgQPz7ix43rH3Fjx0acmDG1iBWMiIm4sWIjXhz9fO1rgnjx/cdOnDix//Xk+p6ensibNy/Kly+P1q1bY/jw4ViyZAl27dqFCxcuBKuXJyGEEEIIcT9cUsxlhSXpM7lo0SIltk2bNkXJkiXh5+dnE3At3st3IiRMkADx48VT8hwvdhwl1CLTqVKnhmdab/hkzYKchQogV+GCKgqWL4NSdWqiZO0aQYd2XJHKFZC7aGE1xk/a14w5syONNq5nurTq2kreNdmPFyeOJu/x1I2AIe0i6zLflClT4ueff1YZfLmpmDp1Knbv3o179+7p75oQYubtnSt4sfdXPN86AY9nNcbjaXUZjAiNZ2uHqL9/b26c1/9WEkLIx+EyYi6CumXLFvTt2xdVqlRB7ty5VfmIknBNcEV0RYITJtAz1YkSqa/pMvohZ8ECKF69Ciq3aoa63Tuh9aih6DR5HHrOnYE+C2Zj4IqFGLFpNUbqMX73Fkw7sgdTD+8OOrTjJu7bhlGb16gxRm1Zg8GrFqP3gllq7C7TJqD9hNFo3L83anVqh9L1aqFQhbLIlCsHUnt5qjkm0udqRJJEiZW0+/r6qhsOufGQ8puLFy/qnwYhUZN/XjxWIvRwZEnc65qewXCaeDDwZyXq757c1f+2EkJIyHFqMZeyDpHxZs2aIVeuXEiXLp0tE65Jq5SLSAZapDZFqpTw8PJC1rw/oUTNaqjZsS06TByNfovnKFkes30DJu3bjmlH92LmyYOYe+EE5v92Svt6HHPPH8ecc0cx+8wR/5h16pA6Lrghx88+c1g//zB+PXtUjSsx7+JJ7Von1b4ZJw5g8sGdmLBnixL44RtWosev09Fi6ABUbtkUeUoUg0+WzCqTn0y76VCZ/rhxkUi72UiWLBmyZMmCSpUqYdKkSbh06RKePXumf1KEuD+SHRf5sZIiBsNZ4n7PTOrm8Z83r/S/uYQQEnycTszfvXunylSGDRuGfPnyqRIPyYpLBlnKUKQkJHmKFMiQKSNyFS6ACs0aoe3YERi6bjkmH9iBaUf2Ysbx/Zh1+pAS5F/ParJ8+rBNtjUxFjmefmxfhIfMSa79XuSP2OanfZVtcsyUw7sxbvdmlWlv3L8XileviizazYZ3hvTqNwBSfiNlMPJZeHt7o1q1ali9ejVu3Lihf3qEuB+SJX8yt9WHAtQ3J54u7IDnO6fh9eVDKihDJCKQ0hX5+/by6Ao8W9nX8obx0bgKePfgun4GIYQED6cS8/3796NHjx5ImzatyhBLdlzVaMeIiaTa62z58qJ0vTpoOqgfBq1ajNkiuJp4i4T7Z7l1+RYRtpdjZ42A0m4T91nazYRIu2TYe/w6DXW6dkKRKhWQPnNGJJB6ee0GJXGixOpz+uWXXzBz5kxcv84fAsS9ELERwTELj0iQZM8JcSZeX9yDB0OLBPi7KjePrD8nhIQEpxBz6ajSu3dvVVMtoikZYckMS4Y8nZ8vytSvg9ajh2Hk5jWYc+6YKkURcVXy7UICHqIQWddCbjRE0KX0Rl5LeY5k0wtXLIcUKVOqLLp6iDRpUpQuXRqzZ89miQtxCyRTbl9LLjW8sp0QZ0VuGqWcxSznzJwTQoJLpIv5pk2bULx4cf9OKkbHksw/5UKD3t0xYNkCJapSqy31266UCQ/rkKy63JjMu3hCPXDabdYUlG/cQHWWUSUuiRKpG5uaNWuqciBCXBnptOIvN5roSNkAIa6AlLmIkBt/f+UGkzeUJKohpckvXrzA/fv3cevWLfz111/Ytm2bahE9ZswY1YGuTZs2KFu2rFoDpmjRoqpM1+iqF5IQh5S1aGQsccqqVauq9Wq6deumWmivXbsWx44d819L5tGjR6rVtjMSaWIuLQ/lD0b+EEQmbR1VEiBD5kxo1K8Xxu7cqEo6RESNGmzG+5DyHfls5HvpKiOtG5OnSI6E8eKrv6BZs2bFqlWr9E+bENdCso6G1Ei8PLle30OIa/Dmr5MBMufyPAQh7or8pv6PP/7AwYMHsX79etVJrkuXLqhfvz4KFSqkKiKMBKx/JE6MxImki14CJEoQD4nix9UjDhLGjaVFzGCHnON/foK4akyJJIkTBbhmihQpkDNnTpQpU0Z1vBs8eDAWLFiA7du34+zZs7h9+7b+jiKPSBFzuYsaP368erBTpFw6rCTR/sDKNqyruqjIw5oSM05E3ex4cENuWuQh0hna9+0njELGnDlUDbr0R/f188OaNWv0T50Q10Ayi+aH6aR8hRBXRH7LY/w9lmC9OXEXnj9/jqNHjyqpFblt1KiRylSnlWSr5nMSSZPaFlZMIvKdML5NmuPF1kQ6FhLE/lFtS+7hhRRp0iK1Xy54Zi0Azyz54ZW9MNIXrIIMRWogQ+HqgUcRLQpVhXfO4tq5+dQYaTL/rMZMkSadej4xYZwY2jVjaNeOpQQ+sXYTkESXdpmjzFVuEqQNt2Ta5VnHKVOmKFm/efOm/o4jjkgRc/lVho+Pj7p7knaAKT1SocmA3ppc7lf11FG5XCW0IYIubR+HrF6iFjuSmx0jcy53sIS4CiLihsiIoLtCp5W37/7BkA1/ovLkM5YxbONf+pGRw63Hr1B35jk1l2pTz+DSref6HhLeyEJExt9n6S5EiKsi2eR169apZwJlPZkcOXKoLHSyZLKyemJNbmUdFpHwBLZIEF/Jb6oMWeGZozB8itZC5nKtkbVGD+RqPAp5WkxEvg5zkK/jPBTquQqF+25A4T7rUaT/JhQfcQAlRh1BiZGHA49RWow4hKIDtqpzZYxCvdepMfNrkbf1NORuOgY56g1Elsod4fdLQ6TLVx5pMuVV8u4/VxF1be5JtfkmS2pb/DFDhgz+a8lMnDgRZ86c0T+J8CXCxVx6k9euXdtWvpIwITzSpEarEYNVW0OWrHx8yIOxw9avUJnzhPETqM9Z7mQfP2Z9I3ENzJ0tXKX7irOL+a/7bqp57L30UN9CIgrJkht/n6W0hS09iSsh7iAy3rhxY7U6uXTNk6SfiLhkvBMniKuyzUmTJUeyVGngmTU/fIrUQLbq3ZCn5STk77pYyXKRgdtQfPgB/DLmOEqOP4PSU39H6SmXUHrSRRWlJp5DqQln/aPkuNNanAp+TDijnWeMcc425qQLKD35N3Ut+b7k2JOazB9CsSG7NfnfjEK91iiBz9VgGDJXaAvvn0oiVbrMSJYilfYekylRT5Iwnibr2lft/WbLlg0VK1ZUZdi//fYbXr58qX9KYUuEi/mBAweQOnVq1UlEHlas0qqZ6rAy82Tk9Bd3x5CFk2R1U/kVjrRUTJMmjfrcCXF2zBIj2XJXxMhOd176O16+eae2GeIu2eqJO64pSTYy1+dvPgsg8eaMtnFerelncfDyI/9j5PWj52/UMYI5I27eb3XDYJ7XtvP3A+xbfPiW2i44mvPqE3fU94PX/+k/tnE983i8CXjPo0nV/P9evzq7Vd9KiHPy+vVrlR0eMmQI8uTJo5xNyXjiREgUP7YqSUmaPCVSevvBM1tBZCrXQmW/C/ddr8n3fiW/v4w5YZNkTYhFukv6y/ZJ/DL2hBL0iI0TSsyVxGs3BmpuE8+rkG2/jD6msvRFh+xC/i6LkaPuIO0Go6YqsZGSGPnNQGIpg9FuRkTSZcFL+a2BrCXz999/659c2BDhYr5x40aVxZXOKyk9PDBs7XJVvmIlmIzQhdTnj9u1GanSpFYP1MrnLXe8hDg7smKiITBPl3bXt7oWgYm5Ia0Ssv/xizdoNvdCgO3GPjnX6jwjjCz8K+04R2M8e/XWoZgbWXT7MMZ1NOcTV58E2OYo7G8eojLu8PeaRA2OHDmC7t27w9PT0ybjWoiMJowTU5PxFEiTOS98itVBzvqDUajPepvoKtnVpFsTXvVVRFeTYJFha0l2stBuFGzSLu9BD/19FdduMvJ1nI+sVbsgXb4KSJkukyp9kXp1W416UhQuXFh1fgmrtWQiTcxFGGXp+bE7NiqRtBJMRuhCPk95iDZVag9/MZenpAlxdkRaDIFx1faIQYl5YGUthmRbZbyNbLaRYTfGt7qePfalLMY55uy8cW1jm6M5G9c35mjO1sv49uOQgL8JkgWzCHE2pJWhtBeUumpxBpUhThBfPayZSpNRn+J1kLvxKFWS4p9p1gRWCbjKgLuIhAc35D2JsI/ThF1KbyZfxC+aqBfoshjZavZC+nzlkSyl5lhxYvgLurRqnDt3rnow9mOI1Ix5suTJ0XHSWPx67qilYDJCEcf3Y+7546jfs4v6HyuR3ts8qoq5o2yiREjFQeQmon49H5HXcibMD8pJL2hXJDAxd/R3zv7vqb2YWwm0Mb7V33H7bLW9mBtybX+TYJSiyHGO5mx/rnH9wOYc1ZFOQ8bfa1ct0SLuy+bNm1GiRAlbhlyEXD24GQ9pMuVBtho9UaDbUiXgUq+tZNzdJDy4oYm6lOVIbbzUy+dtM109TJo8tbdq96gegNU+v7p16+L06dP6pxtyIk3M5WEByebmKJgfo7asVQ9/uu0qnhEU0s1G6st7zpmO9Jkyqs/X9sQ0xVxEwj5CIg72YhOeROS1nA3zg5+uulpiSMTcnG02h73kmkXbXswFq3HM14oIMTfmQzG3xrzgECHOwD///INx48b5Z8lV7++E8ZEybUbkqNMfRQZsU7XhtgcnT1nLahQNuUEpNemiqk0v0G0JfIrV8i/7ka/SsSa0JcSRJ+ZyV5YoEeLFjo2C5ctg6LplmHP+mFpUyEo6GYGEJuSy4NDc88fRY/Y0+GTNgnhx4qgHbCnmH0qMPYbU2MuQyMeuiw/8vzdChMQsHyF5mE8wjy9hdV0j7MXJ3TGLuasSEjE3RNgoU3H0dzEoMbfHXsTtXxvXMc/HGNfY5mjOFPPQ4Q5/t4n7YKwnIwvuKCmXhxo1ofQtUV+1HVQPSE48p5epWMspQxP0cadUWc8vo4/ip2bj4JEhu8qeJ0uaBBkzZgyVe0WqmEvXkBSpUiLmj9GR5afc6DpjEiTrK4LO1onBC2N1VFmiv+mgPvD2yYC4seMgfnx5cti20hXFPHCJEcziYhYPR7JstV2uEdqH+US87j99bXmtqERUE3P7mzgjQiLmxvUcjSFY/RbG2GYfxt+5oOZMMQ8ZFHPiTEj5imTKJbsrXVakXjpHnQGaYB5XHUtsD29ayyjjw5AHR+VGpmDPlWqBJCkFkoWLpMWiPFAbEiK1xtzDMw2aD+mPTLlzIma0H9X2sg3qot/iuRBBn/fbSbZRdBDygOe8iycw+cAOdJoyHvnLlNIkPDFix4ql+sPXq1dPtUlkjblNGuzlQ8IsTsZxbRb+FiBjaWAvNmbBDkyejXGN8ewzooL92FYSFVWIamIumAVZMudW5SSBiblgL+f213H0d8rc3lDCUbtEivnHQzEnzoKsJ1OrVi3lBokTxUeyVKmRs9EI1f9bdVSxEE9G8ELKWwr1Xq/aLCo5T25bS+bJkyf6px80kSbmUv/soYnjxH3bMWLTKhSrWknJeozvo8EzfTqUqV8HnSaPw5RDu5SAzpYVQU8cQFRdFVTe90zt/cvy+1JHPmbberQcMRiFK1dAipQpVelKjOjR4eHhgVGjRuHGjRvqblgy5xTzoMVcMGcv7QXGkZg7kg/76xpiZVzDLED2UMwpL8T94N9t4izs3LlT9SaXZ/0koZe5YluUlF7jzJKHSchDsrLaaNIUKdUiRV5eXti7d6/+6QdNpIq5tEsUwZz/2ylMPbwbzYf0Q5Y8uRE3VmzEiBZNCWfeX4qjducO6LtojhJUyRRL+YaElLuIrLvbQ6Mi4fK+5P0Z73X2mcOYfHAnus+aikrNmyBH/nzqV1AxNRmXLHkcTcyLFi2qPl9B7s6kDynF/MPsoiPM2UN7cQ6umAdVVmCfbbSCYk55Ie4H/24TZ2Hx4sVInjy5yuim8MqAIgM2q5pyK8lkhDxU//MRB9UCTFJvLp/1kiVL9E8/aJxCzA3ZFvkctXUdmgzog6yaoCdKmEhl0OPFiQuvdGmRXZPRCk0aosv0iRi3c5PKpovIyvlzzh1VWXUl7C6UWVeZcF3ApTONvA95kFP2yfsbs3092o0bibIN6yFbvrzwTOuN+HHjInq0HxArZkxVQy7L5E6fPj3A6lN37txRd2kU8+CJuSHUxmqGQZUCOBLzoB7ms38t2J9DMae8EPeDf7eJs7Bw4UIliyKN0oFFOouwhCXswkrM5WYouDiNmBuSapPrg+phxvbjR6FAmZLwSp8OCeLGw4/ffod4seMgeYoUSOvrg7wliqJ6u1aqF/rA5QsxavMaTNi7FdOP7lUPREomXso+Aki7ZNkjWNrN8i3zkPnIvGR+8lp+WzBhzxaM2LgKA1csQtuxI1C1TQvk0d5fGk2u5f3K5xUregz88P33iBkjBry9vVG6dGlMmzYN9+/f1z/d99y9e5dirhFYKYuEyK+9ZBvybJZ5Q5YlJNvtSMzN5TDmMETcOM/RfsH+WlEJygtxV6LC322rfzsjgpD8ZpQAixYtsmXME8ZH8tRp1QOLUl9uJZmMkIeUsuRpMRHJUqTSPuOErpsxtxdZJbHadvm+/9L5qNu9M/KV+gXp/HwRX+qpv4+GODFiIkG8eEgYP4GS10w5c6JIpQqo0qoZmgzojU5Txqme3gOWL1ArYU7cu01loeeeP46FV85i/qVTqn5dYu6FE0qYpYY7QOhCbx+y/YNjlXDbxpNY8PtpdR25nlxXri/zGKjNR+bVWZtfgz7dUa5xAxSuUE61OUyeMqV6P/L5JNSkOk6s2PghWjRE//FHVZpSvHhxdO7cGVu3bsWbN+8fTrSHYm4jOGJuZKzNEmzIsX3mW7bJP/7GUuf2Yi6YxVrON8Y3Z8DNx9iPYX+tqPSDhmJO3BWKefhBMQ8Z/mKeOBESJ0oIn2K1lVCynOXjQ3q+Fx24DV45i9paUCZJ4h5ibg6ptZ6l7Rfhldd9Fs5Gk4F91MOh2fP/rOqsY0WPrurS48bWI1YsxI4eA/E1aZcHTEV4cxYqgEKa/BavXgWVWzRFzY5tUb9XV7QaOUQ9RNl2zHD0mjcDfRb9ij4LZqvorcWAZQswdscGjNu1SZXPyNexOzYq2Zf9xrF9Fv6qnT9TjSPjybh1unVEjQ5t1PVKaNctVLGcmoevNh8PTbITxNPEO0YMNWd5eFNuMiSkdCdOzJjqYc702o1Inbp1MXLkSCXX5nKVwKCYE1eEYk7cFYr5e8zP80jYP9Nj/5tH++SF/W8et59/QDEPAYaYizQa8pi5UgeUGHnYljln7/KQh6wKOvkiig7agbR5yyBRgrjqxsctxdwcIumSmZZMtHw/fMNKdJs1Bc2G9FeinrNgAaT08FDtAhNpkUCTUpFcJeqaAIvAx/oxOmJG+0E9XCoyLB9YMi1SpEqlsvEZMmdSq2Ya4ZstqzZufuQqVFBJtfqqXccve7YAx8l56fz81DgynmTw48SMpTL7MX/4Ud0oSIhwy02ETcTj2zLjCRKqkD/AdBn9kK9saVRp0wIjZs3AgWNH8TgEbXYMKObEFaGYE3eFYm7D/NtCc9i337Tfb4zpqBzQfAwJHLOYy6JCIueJtPApWlsTy+2qH7fKnlPQg46xJ9XqqLISaIGuS+CVs5jqCx8/noi5bS0ZtxZzc6jWgWeOYN7Fk6pURDqWyFiDVy9FjznT0bBPd5SuVxv5SpeEt68PUnt6atfzUMKsGuonTKRnrGMqaY8tX5U8a/IunU601yLWsl9k3j5ku9qvibacp85R4m07R76Xenh5n3KTINcUYZcbB+nfLgsBScZfMvjV27VE61FD0W/5AgxZvxxzDu/B+bsBMwghhWJOXBGKOXFXKObv95sz4IaIW5UFCsb+4DxATzEPHv6lLIkSIKWXDzJXaKsJuuZlcWIgtW8O5Go4HMWH7dOE85xtVUsK+gdhrPgpCwsV7r8ZWSq1V59l/HixESd2LBQpUkSVH8taMlFGzAOE/nCljCN13tLdRDLqU4/swRRN2Cfs26ay6z1mT0XrkUNQt3snlG9UHyVqVEWuwgWVIEubRikx8cmaWWXJ5eFSkfnU3l6OQxNfz3RpVbbcfG7WvHnUmD8VK4KStWugXKN6qNO1I5oN6qdWNx20YpF6SHXS/h3qwc+pR/di6on9WHjxFA7duobn/7zVP63QQzEnrgjFnLgrFPMPF6cysHoOxz5zboi41RisMQ8ZhphLx5BU6TKhhCwn33wCUmXIigSxf0CihPHgnasEcjUaiSL9t6gMujzQKFlhK0mNOnFCu1k5oz6LX8YeR8Geq5CtRk/tZian6lceO2YM1bq6Ro0aOHPmDHLnzo24ceNGUTG3CNUJRZNzcy9w/zhtjsOqM4pk3EXeh65bjhEbV6r68fYTRqPj5LGOY+IYdJ05GYNXLX5/7qZV6oZAdYHRxg5wLbt5yNymHt+HadpcN/5+HtcfP9I/pY+HYk5cEYo5cVco5sETc2MMQ8iNoJiHHWYxT5nWDyVGHdFkU1asXKseBE2aPCUSxPweieLHQZpMeZGlcif83H42ig/di9JTLqkHHCVTLKJqLbDuFJqMazck8vmoBzsHbVc3MRlLNUaqtBmRKJ6UJcfFjz/8oBZ4HDBgAB4/fqw+56xZs1LMgx2aCIu4m0Mk3izN0lP9g64rVmHRtUWy9fbjS5gXQpp2dC8mH96NxWeP4eydm3j9Nmz/MaGYRz36ztmBJ89f6a9cE3eUl9OnT2PM2LH4pWQp+PllhK+PH/x8M1qHtt8vYyZbyPdWxzhh+Pj4okDBQujStSt27d6Np0+f6u+eGFDMg1fKYkh6aNaCoJgHjw/EfOQhW2mGPPg5+hjytpmBDIWrI2my5EgQ6wctoiG5hxe8c5dAxrItkLvpWL0W/bx/Pbqcr0JWD1WlLy4k7TJfLWTutvdxWr0neW8ShftuQO5GI5GxdFN4Zi9s+1xiR0d8Tcpjx46tHKtJkyZqRVWDly9fUsxdJZSQH9mDmZqk7/nrdzx48WFNXVhAMY96/NRyCmoOXuHScu5O8rL/wAFUrVYNX3/9Nf7zf//CJ//+Dz755H/47/8+DTw+/cwWVvucNf77KT75zyf+7zNHrlyYv2CB/kkQISqJuZHlNof9Amr2YWTA7TuyGGGIOB/+/HgciblIqnyV7HCJEQeRr9N8+JVqghRp0qtjbZL+g+rPnTpjbqTPV0HVVudtPQ1FBm5TmXc1hgju+NOa6J9VYRN3TXblGv7ibiHI4RlKvu3E25ifMS/tOCnrKdJ/M/K0mKTem/dPpeDhmwNJtfccP05MxInxg6ohj685bJo0adCoUSPs2rXrg2QExdxFYoom5FJPvurCKfz58D7e/vOP/qmEPRTzqIeIebnRB11azt1FXsZPmICYsWJrovp/SrK/TeuFuNUqInH7Fkjer7tlpBzSB4laNcan336LT7/5Vn2fYlAvy2OdKgZ0R7KenRCvXnX8kCMbPv/xR/W+P/vsczRr3gKvXrn2b3HCCor5+4YGRobbap8Q1FoQ9nI+98DfLGUJAYGJuRFKrCdd0ET1GAr3WYccdQcibZ7SSO7hjSSJEyFBzGgqpKNLslRpkNLLF2my5FelMNlq9EKelpNRqNdqFB24HcWG7ELx4ftt4q5Lu8i/1GrLNWyZdy0m6Nl3+1BSb0i1hHxvk2v7kDH8x9PGlmvItVR9vHZtmYPMReYkWX9ZXCl341HIVr07MhSqpr2Hn7X3kkG9J+mokiCONPeIhhg/ajclmrfKA5358+fHwIEDcfbsWTx79kz/VANCMXfykCz5pMO7MefkQRy5+RdeBLIwUFhBMY96iJjLDylXlnN3kJdp02fg8y++VHL6jUcqJOvTBRk2L4ff3g3w27PeYWQ6sh1e86bgs2jR8Nn30eA1dwoyHtpqeaxzxgb47lqHNFNG4YfcOfHJvz/BJ5/8Fw0aNnL4wysqERXEnLgGwRFzf0EXEZ4gciz7j6GgJtvZa/ZC+vwVkdo3F5KlTI0EsX9E/BjfImGc6NqYcTVxT6zaMCbV3COlty88sxVE+gKVkLF0M03aeyCnJvk/t5uFfO3noEC3pSjUc5USZCkZkT7g72O7+irZe9t8julxXG0zH2OEjCFjyZgFui7WrjNbhVxTri1zkLnInORmImnSZLa2kdqcpUuNtDpMGDemei+xo3+P2PESIFOWrChfvhx69eqFLVu24MWLF/on6RiKuRPHlKN7VKZ83W9ncP3RA/1TCH8o5lEPQ8xdWc5dXV4OHDyI2HHiKimPlj0L0i37FZkOb4XvjjXw2bYKPltXOgwRd8+Z4/3F3HPGePjuXmd5rFOGvL/tq+F3YJP2dRViVyyjxPy///0fhg4frn9CUReKOXEWQiLm/mHUYEsmXdVen1clHz81HYdM5Vsr2ZXyFpuoR1clLyK4ieLFVg+RJtauJdcT8VWhtsdFitTeqjOMzEMeNE2bpxS8fyppilLwLVobmco2VzXeEvK9bJN95mPl3DSZ8qixUqXLrOaSMG4sdX3/62pzkLmo3u3GfLS5SKtIucGQlVBTePshaaZCyFGqLnoOGYcDh48GutK6FRRzJ4xpWkgt+a8nD+LYzasRkiU3QzGPepjF3FXl3JXlRf7hrli5iqqz/ia1h5LyjAc2W0usRbi8mJvCb/d6+Oxcg1gli6rPI2HiJPjzr4CdOKIaFHPiLIRKzD8IW7eSUpPOo8zUy2qblK7kaT0NOeoMUL3R0/1cDqk1UU6e2sskyFok0AVZybEhzPI1DhKKsNuFLYMdI2AY0m8+Tr7q8i1fEyeIr10jgbpOwBsDbQ7asUmTp1AtIqU1pG/xOshaoxeyNhyJPB3mofO8wzh2PfQ/OynmThaqL7kW6y+dw80wbIEYEijmUQ97MXdFOXdleTl95gy+/vob/PfzL5C8TxdkOrTVUlodhTuJuYTfvo3wWjAdXyVJjP/861/o27+//klFTSjmxFkIGzEPGJJNl/puqekuM/V3Ve8tddyF+6xHgW5LkLfNdORqMARZK3fSJLiuWrZe6rml5aCUk8gijFL+ospKjEicSC1rH1Qk0f6NCXCelNGoUhqbeHtmzafq42Vl08wV2yJH3QHI02oK8ndeqG4m5MHVIsMPotjEi6gz/0+sPfcUj1/rH1YooZg7Sdg6ruzG3JOHcPzmVbx6+/ELBYUWinnUw0rMXU3OXVlehg4bprLD33p7wmfLcvjuWG0prI7C3cRcQmrk5aFXEfOf8+X37+8bFaGYE2chPMT8g1BlL/rDmPpDmKW017JPrlds6F4UHbwDRQZsVXXhhfqsQ772s5Gn+XjkaTERP2lfpX965ortkLlSewch+zogZ/3B6pw8LSZoMV51k5EbAhlXpLvo4J3a9faguNSqjz6mMv2lJ8nDpxfxiza/wqNPo+zEMxi79Squ3n+pf0ofB8XcCUJqySdpUr7+tzP4+0nk//ChmEc9HIm5hKvIuSvLS9FixVWrwLhVK2hCvT7ImnL7cEcxl6x5igE98OnXX2sSkBC//fab/mlFPSjmxFmIEDG3CnOvcE2ObeJ+1lazbnRkUd1WpAuLdFHR+6GrVoeO4/14Rug3BDKm0a5RjWnr6KLO0+ZTeMRRFBl5FG0WXsQ+06qzYYFLi/m4nZtcXsxVLfmJgzh8488IryV3xMOHD+Ht7U0xj0IEJuYSriDnriwvvr5+6mHHxO2a22qsKeZq/p7Tx+Hz6NERJ1ZsnDt3Tv+0oh4Uc+IsRJqYByeUNJvFW0Q6qNDP8Q+LcU1RfPRx5B92BNWmnMbsfTfw8PlH1q1Y4JJinkgT8xSpUmHAsgUuK+ZSRz756B6sOH8Sfz28r79D5+DEiRNIrd34SN9NinnUICgxl3B2OXd5Mf/v/1R7RGkfaCWqgYXbirn2PkTM48aOg/Pnz+ufVtSDYk6cBacW83AOyZAXG3UMfVb/jlPXnuifSNjjkmKeWPWMTIRKLZpilibmM08etJRfZw1pgTjj2H7s/vN3PNH+AJyNzp07I2HChOpzdjYxr9p/iZJIRthGvrYzLGXcPpxZzl1ZXmQJfSXmvTtTzPUwZ8wp5hRz4hxERTEXGS84/ChqzziDNSfu4MmL8H0G0CXFXJ6cTRg/PlJ7e6HDpLGYc+4YZp06ZCnBzhRqsaAju7Hw9BGcv3sL78Jx9c7Q8I82n8mTJyNlypQqWy6fs7OJuUiklTAyIi6cVc4p5hRzd4ViTpyFqCTmJbQopAn5L6OPo8+qy7h857n+KYQvLivmstJS7Ogx4JUhPVoOH6TEd+7545h+fP8HQuwMoUpXZLGgS2dx+9lT/R05D/IXYcyYMUrKf/zxR5Utp5gzHIUzyjnFnGLurlDMibMQVcS82OhjKDDsKGpOP4OVx27j5et3+icQ/rhsKUvKVKlQoEwpxIsTB4kSJUbJOjUxaNUSzL140lZ37kSCLkI+Q5vPgWtX8PxN2D8o8LGcPHkSrVu3Vn8JYsWKhdq1ayNNmjTa55qIYs5wGM4m5xRzirm7QjF3XfrO2eG0z+WEhqgg5oVG6LXkqy7j/M2IT6S6pJhLV5bUXl4Ytm45KjRtgATx4iPmDz8iQ5bMqNqmpdpulLdI/fmMEwc+kOWICNsKnlK6chSX7t/R34Xz8Mcff2Dw4MHIli0bvvnmG/UXYPTo0bh27RrSp0/vlF1ZKObOFc4k5xRzirm7QjF3XeRnlrM+lxMa3FnMpeOK1JJXm3IKy4/exrNXEZclN+OyYi7tEsfv3qLEu36vbvBMlw6xfoyOODFjIX2mjChdrzZ6zZuJSft3QLLVv545gtlnDmNmBEm6lK5M0WLdb2dw77nzlK68evUKhw8fRteuXZEzZ058//33iK794CtevLj6fIUnT544bR9zirnzhbPIuTuIeYrBvZD5xC61HH9IIvPJ3fBeOAOf/fADxdwNoZi7LvIzy1mfywkN7irmRUceQ5FRx9B71WWcuxG5zubSYi4LDM09f1xlxgetXIRSdWshVZo0iBEtmiboMVVLxax5f0LNjm3Ra/5MjNm+QUnzvIsnMEc7T0pewiObLllyuRnYd/WyU5SuPHjwQPUAnjZtGipXrqz+oKNpn1Hs2LGVnI8bNw6PHr1f/t+ZFxiimDtnOMMPHtcX80/VAkMpBvdG8n7dQhQph/RGolaN8enX3yg5p5i7FxRz18X4meUucv6BmI864tJiLlnywiOOofyEk5i9/waevoq8VdcN3rx5oyoZXFbMDbmWr7NOHkS3WVNQomZVZMicGbFjxFSSHl97c0mTJkW2fD+japsWaD9hFPovnYfRW9ep8xZePoO5F46rrLpqvfgR9emTDu/GHG2MC3dv6bOOeJ4+fYqLFy9i27ZtqjSlevXqSKXdpEh2/Ouvv1bfV6xYUXVguX37tn7WeyjmjNBEZP/gcWV5SZ3GE//99HP87/Mv8L8vvrR9DVHYzpHVQz+PEYNi7mZQzF0X888sd5DzgGLui+LDD7ismBcddUx1XWk5/wKO/BH5q64bSNVClixZXFvMDSlWJStnj6oYuHwB6nTthALlyiBFypSqzEVEPbb2Qyt+nDhI6+ODn4oVQYUmDdCoX090nDwWA1csxMR921UWXmXVzx3Txjpik/5Th9QNgFzDKqYftz3kufTcCdx88j77HN68e/cOf/75Jw4ePIh58+ZhwIABqF+/PvLkyYN48eKp2nGRcelLXqZMGfTu3RsbNmzAixcv9BE+hGLOCG1E5g8eV5aXmrVqI3vOnMiWPTuyZc2msiUhiZw5ciJDBh98/r9PKeZuCMXcdbH/meXqcm6IeeJECZAsZWrkbTUFpSadtxRfZw5ZUv+XsccxestfuPHQudaTWblypUqgSttqlxfzgIJ+BPN/O6mJ9jZ0nz0VDft0R9EqleDtkwEJ4sdDvNixlaRH/+47xNGEPWVqD/hmy4rcRYuo4yq3bIrG/Xqh/fhR6LNgFkZsXIWpmnjPOn1Ik/SDesj3tgdM5fWOq7/j+T/h82uQe/fu+WfBly1bhkGDBqlOKlWrVkXBggXh5+enSlNEwr/T3pPUjUtnlWrVqmHkyJHYsmULbt68qY8WOBRzxsdEZP3gcWV5efbsOR4/fqwyJaGJ58+f4/CRw4gdMxbF3A2hmLsuVj+zXFnODTFPkiQxEieIh7Q/lULx4ftRcsI5SwF2tpDe5AWGHUGt6bbFgl6/da71ZH7//Xf1zJ8kVqUDoduIuTlEnCX7LVn0iXu3Yfj6Feg0ZRxqtG+DguXLIL0mtNJ6UXp2x4sTFzF/+AE/fP2N6pGeKGFClW33TOutHijNlCsHsubNg2JVK6n2jNIBplHfHqjfsyu6jB6ObTt34PCBg9i3b1+A2LNnj2pJeOzYMfW9/X4Jkd+pU6di+vTpSqQ7dOiAVq1aoVKlSkq8c+XKhYwZM6ql8mWuUiMu2XD5Kn+AUqrj4+OjRF2y5mvXrsVvv/2G+/dDvtw/xZzxsREZP3iiurxcunRJCSzF3P2gmLsujn5muaqcvxfzJEicKCESxY8L3xL1UWz4PpSaeB4lx560FGJnCGmBKK0QOy75LVLaIAaFSHn58uVVYlXaVctn7JZiboRk0UXSRdBnnzmitk05tAvjd23BgGXz0WrkYFRv2wpFq1REljy5VfZcsuuSSZcPR+rUY0b7AdG+/Boxvo+GWNoHF1P7ARgzVkzEiRNH/cohmSbHcqzxYaZIkcI/5NcSsniP8Vreh3GshPwhyDjSRzyGNu63336LL7/8UmXA5Q9JxpcxfH19kT17dhQtWhQNGzZUEr5gwQIl/SLhUqIiK3h+DBRzRlhEmRH7UH/4Sv1PLvyJ6vIiD3jHiRWbYu6GUMxdl8B+ZrminJvFPGkyzWVSemhyHhveuYojf5dFKDn+tCbo5/CLkwl6oRHHUFL7OmbrX3j43LnWkxFnk3Jk8TpJtnp7eytPNFzSbcU8QEhd+IkDegmKrRzFiNmnD2HmiYNqbBF2ya43H9Ifdbp2RPnGDVWZSxFN3rMXLoCCJYqhbJkyyJs3r5Ll7Nmyq3rPHDlyqDIS+TWEZLKtIm3atOo4o0ZUzpfMeNmyZVUteJ06ddC4cWN06tRJrcg5Z84cbNq0CadOncKNGzf0TyR8oJgzPjYqTjiJ8n2X4rdrd/U/ufCHYk4xd1co5q5LUD+zXE3O/WvME8ZHqvSZkbvpaCRPkxYJYv+A5B5eyFKlMwr326gJ+hmUnnwx0jPoJUYfR4HhR1Bj2mmsO3UX7z4ycRnWyHoyUprs6empypClU96aNWuUH0o1RNQRc6vQH+JUcWK/Tdq1saVTizwEOld/IHT+b6cw+/wxLD52AJdvXMfDBw9w4cIFHD9+XJWrSJw+fVrVdK9YsQKrVq2yjF27dqnj5PgTJ06okD8gaVso7Q0jE4o542MiMqRcoJhTzN0VirnrEpyfWa4k54aYS1eWVOkyKfn9ud1spPbLiQSxfkDCuDG17VmQtWo3FOi2TGXOS0+5pIn6We37Ex+Ic3iGlK7IgkFtF13EqetP9HfgHEiSdcKECUrApWNezJgxUbNmTfXvuCAJW7foyhLeISt5TjmyB+svncWzt2/0WbkfFHNGaCOypFygmFPM3ZWI+Ltdtf8S9e8rI2wjX9sZlv9W2oeryLlZzG0LDB1W4l2o91r4lWqsOrUkjB1dRUovH/gWr4ecDYaicN+NKDXhHEpPuoCS407bSl2UqIePrBcZeUyJ+dANf+DWY+f4TO/cuaOy4e3bt1fibTwrKF30Zs6cqRoACC6/wFBEibms5CntEP+/vfMAj6Lc/r9K7xBqgHQgoYSeBAQB6SSQEMNFFJAiglRBUQSkKVzFP5fQe0cuRa8iqCBSpPcEQlNRkKZgARGEH6Cc/37fzITNssAm2WRndr+f5zlPYHd2dmeSzX7m5Lzn7DprjKFBmQnFnJGecKWUA4o5xdxdyYqfbf5udX2YQc7vF/PkyZ/JCz+PSNMhH0iNFh1Vya5f2VLiW7KIBPr7SaXwRlIzsqs06Pn/LJL+pXoM6tGT41jyV/RDV6UvGZN1LPBsN/Ow/O/gJZeN1de5dOmSfPbZZ/LWW29JZGSkqh3H2kGsJWzWrJlMnz5dNeqwhmLuQMxL2KnEfM/503L7H9d+k7MCijkjreFqKQcUc4q5u0Ix95wwupw/SMwhxErQ53wr0fH7pPmwFSqDXqFKTQkMCFBlLr4lvSQwMEhCqkVIaINoCW8/UBr1mypR726U6El7VfYdUv7MrONK9JFhTy3tDxd21JNjYFC3hcdk1w9/aK84a8BMGbSthYhv27ZNrQ3s3r27Wj8Ij0K5CmQcTTw6deqk2l5fuHBBe3RqKOaPCJSuLEzcI0cuXchwtxOzQDFnpCWMIOWAYk4xd1co5p4VRpbzh4m5HpBpSHVbiyi3Hv+1NOwzSao1jpPg6hESVL6CknSfkkXE36e0BAYFSfmQylI5oonUjOom9V4YJU1emy8tR61W5S+t39+q+qS3nZoosRZhR9kMAhcAKizPA5FvO/O4xEw/KkP+94Oc/j3zzhukGWsBz58/r2bL7N27V5YsWSJjx46V9u3bS40aNVTjD0g4ylTgUWhljaYeqCnHYx424BFQzB8SyJQvsnw99otjg3ncBYo5w9EwipQDijnF3F2hmHteGFXOHRHzFEGfkZSc7day3siMN+o7RcLa9pYqDaKUqKMlIMpdkE33K11C/Mt6q8FFQUHlpGLNehLaMFqVwNRp/6rUf3GsyrA3fnWuNB+2UpoPXyWtxq6TVhaBbzH2Sxm5Kkl++eOm3P3njty5c0du376dEn//nTz80fo2PbAtZPjixYty7tw5NU0djTkOHDigGnVgLsyqVatk0qRJMnToUOnZs6cqQ0H2GwJerFgx1eI6f/78qpNKRESExMbGqlk0qB1Hg5C0JHYp5g8IZMqXHzkgJ3//RXt2z4FiznAkjCTlgGJOMXdXKOaeGUaU87SI+b04rMpQsOgTJSpxc0+qgUToe96w72Sp89wQqdW6m4TWj5SQauFqcJFvKS/x9S52f5Qqqp4bLRorVKkhlSKaSKW6LSS0Xkvp1KW7DBvyugwaNOi+wKT0ESNG2L0PAj1gwAA13Kdt27Zq8mbdunWlevXqyoEg3agLRwYcof8bjgQJj4mJkf79+8v48eNlxYoVsn///nQNd9ShmNsJLPKElJ+9mv4Ta2Yo5oxHhdGkHFDMKebuCsXcc8Nocp4+Mb8/8BgMIoqbd1KVprSdmqAy6i1GfiyNX5svDXpPVD3Rw2L7SPVmz0rlus0kpOaTKsOOjLqfT2nxKeNt+d1QQsqUsvyOsESxouhyUkiJtL2AUNu7XY+iRYuq7DcC7Qsx8BFyjDpxLNxEzTgy5hMnTlSDHTdv3qxaZZ89e1bJtLOgmNvE3IM7NCl3bS9xV0IxZzwsjCjlgGJOMXdXKOaeHUaSc2eJuW0oUdcWfao68rknLbclWfZ/QNpM2ClR721W3VxQe47+6A0GLZSYV+Nl3pLlsnjRAnn77bdlzJgx6ivqvTGcsUOHDg+MLl26qAz6O++8k/JYZLyXL1+upHvdunVqvgzmzWDGDAY7YsaMMwX8QZhazGds3eBUMUemfIVFys9fzdrVvEYDP3xGFfPINxerDxCGcyN65Eq7Hwi2YVQpBxRzirm7QjFnGEXOM0vM7cb0JLXv5MWkkPYTEmsR95bTTsigD09L0oUb2qsSVUOuBzqkoG78r7/+emCgg4q+rf44ozT4MKWY+1vEPLhiRZnw+cdOE3Ms9Fxx9KCc/9OzpRycPn1aKleubEgxJ5mDIx/KRpZyQDGnmLsrFHMGwghynqVibhPRUw9Jy0kJMux/J+Xbi39pr8j9MKWYoxUN+mJ2H/aGLD12QBYd3mtXth0NLPRcSSlPYcKECeoc+/v7U8w9hEd9KBtdygHFnGLurlDMGXq4Ws5dJeaQ8mYTD8rba3+Q366795BHU4q5aq/j4yOhNWvI2FXLZNk3ibI4nXKO8pVVlPIUsJgBfTjR8gfnmWLuGTzsQ9kMUg4o5hRzd4VizrCOdpN2S6/4Ndp3LmtxhZhHTzkkkZMTZeKGM/K7m0s5MK2Y63IeVr+ejFwyX5adSJQPjifYle8HxdwDyQs9L1DKFejVidY/WJGs/ipBMfcYHvShbBYpBxRzirm7QjFn6OHq38lZLeatLUIeOSlBZn59Tm7edv/J68CcpSz+/lKxcmV5tl9v8S1r+eGoVEl6jBgm077+UpZ/e1iWHNlnV8StA+UrSw7tlVOXjS8cmQ2a6k+ePFkqVqwoxS0fgphehX9DzinmnoG9D2UzSTmgmFPM3RWKOQNhhN/JWSnmrackqphlkfJbf3uGlANTijm6slQKDZXpWzdI//f/LRVCQqRUseJSr1kT6TNutMzY9pUsO5FgEfT9qsRl0aE9qaU8YZcstdx+8vdftT17JliZvHTpUtVQH0KOnp1oH3T8+HFVzuJrOc8Uc8/A9kPZbFIOKOYUc3eFYs4wyu/krBJzZMpjpx+Slfsvyt//GKNbSlZhWjFHu8SZOzbKipNJMmbZQmnQqoV4Fy8hPpYDebJJY+kxYqjEf7lGSfnipH3ywfGDStTnJ+5Scn7i14vaXj0LtAa6dOmSzJkzRwk5vvGYYBUWFiYLFiyQmzdvKmE3artEkjlYfyibUcoBxZxi7q5QzD07jPQ7OSvEHFlyfP3wwCXtWT0LU4s5BgwtO54gHxw7KDN3bpK+742VGhHhUsby4VTG21sqV60qUc93kIETxytJn73na1lxIlG+v+5ZNeW3bt2SCxcuqIWdb7zxhppihalWhQsXlpo1a8rw4cPVh7qOkQcMkcxB/1A2q5QDijnF3F2hmHtuGO13cmaLuS7lyJR7WKI8BTibqcVc72OObDhaJ07e+Llqo4gMOmrRSxTxSpb0ahZJ7/y8jJ4SLzt27ZKzZ86ohvLuCuQaU6vWrFmjJmA99dRT4m05D8iOl7B8cDdu3FhGjRqlplrZQjH3PPChbGYpBxRzirm7QjH3zDDi7+T7xHzKAaeJeevJCRJj+bpin0XKPdXKLdy+fVvq1atnfjFHoGwFgv7fbw7JrJ2b5dXJEyTupe5Ss06EklKvQoXFq0gRKV+uvLRu3VoGDx4sM2fOTBm9+scf5syk45v4ww8/yPbt22Xx4sVqxGznzp2ldu3aUrRoUSlQoID6iiuwfv36yfz58+WM5cLkQVDMPQ98KJtZygHFnGLurlDMPS+MmijRxTzAz0cqVK4mLUd/qqZy2hPttETU5ESJmXpIlu+9KAYZwOky9HV+aFttejG3DtSVo/4cX//9yQp5f+E8GTVypDRt2lQtaoSoInuMwIGjvONf//qXEleI7X//+1/56quv5Ntvv5VffvlFewWuBfXfEPAdO3aoN8fEiRNVaUqnTp2kefPmUq1aNXVc+fLlkyKWCxBcjDRo0EBeffVVWblypSQlJakxtY+CYu55/GvMClNLOaCYU8zdFYq5Z4WR/3qZIuYBAZbwl/C4fkrMM5I1x0LPZCn/WXsWzwXrAOF18C+cY7cScz3mJe6SNadOyDW5q6T03LlzcvDgQZVZHjBggBJXHDhkHf278+fPr2Tdz89PKlmeo06dOvL0009LVFSUvPDCC+qEjR07VhYuXChLlixR8r5//37Zs2ePJCQkKKn9888/0xTI1u/evVvtZ+vWreqiYNGiRTJ16lQZOnSo9OnTR6Kjo6VZs2ZSt25dJc34hukXF15eXurKCucGJSs4LvwlABl0ZMZv3LihnUHHoJgTM0Ixp5i7KxRzzwmjlxTqYo45JwG+ZSWofLA06j9Nnpn9TbrkPHpqspQv2/Ozx2fKwdy5c5V3wb9wjt1OzNGr/IOkfXL+zyvaHlKDAvurV6+qX/gfffSRvP/++9K7d2+VVUd9DzLQeD60EcRCybx58yoRhhAjGw0Z1nt94+Sh93fVqlXV49ISeBz2gcA3AvvF/lELjufDxYKeAcfz4Dkg4BD1l19+Wb1uvH4cB44Hx5URKObEjFDMKebuCsXcM8IM63zuiXmARcorSPmQylKuQrDU7z5WibYS9OlJ9wm4vcCY/eYTE2TB9gse1xLRFlRE/Oc//1EOWLp0aQkKCnI/MV+QsEsWWb6mpy0iFoWiiwmy4GvXrpXp06fLu+++K/3795eePXuqATwxMTFqASUy2KjdhmDjJPr7+6c58A2oVauW2g8y9BDu2NhYVVqD58Pz4vnnzZsnn332mcquZ2Z5DcWcmBGKOcXcXcmKn+3INxcrOWc4N6JHrrQr4bZhBikH1jXmIdXrSMM+k6V8hUrib/l/9WbPSvPhq6Tt9MMSOxPlLUftCjkCY/ZbxifIhPU/yv/d8ZzhQbbcvXtXVUv06NFDJYFRrTFmzBjVwhqVHG4j5pByZMt3nzstf991/jf82rVrSl5Rf56YmKhKUbZt2yarV69OV3z66adKtrEflMOcOnVKLl++rMpcXAHFnJgRijnF3F3x9J9tMwM5tyfi1mEWKQe6mKuuLNUjJHb6EWk2dLlUCmsovqWKqSx67eiXpMWIjyRm8gF5Zs63WpnLvSw6ylcg5ePXnZbr/+e+3fEeBnqV43f2m2++qcqmUZVRpUoVVcaMWTKoinCLrix6zD24Q9afPC43b9/WHknSAsWcmBGKOcXcXaGYm5dHibmZpBykEnPVLvGgxM39TqLe3Sy1Y3pJueBK4luisOVrRakV1VUaW44/ctwGi8Aflrj5P6hMenOLlA/930n5/ZrnOdpPP/2k1v9hvSJEHOXKKF/u0KGDuh2gasMt+pjfk/Kd8uGxBPnlr2vao0haoZgTM0Ixp5i7KxRz8/IwMTeblIP7xFwbMBQ786iKpkOWSvWm7SUoqJz4liwi/j6lpVJ4IwmPGyBPvzJLmr+zXkatPStXHt0gzm1A6fHGjRtl0qRJ0q5dO1XCjLWDqCVHaTQafmB9oI7pJ39aizlKWBYf2ivf/WaM9oZmhWJOzAjFnGLurlDMzcuDxNyMUg4eJOaqTGX6YVW6Em25rfGr8yQstq+Ur1hVfL2LJUu6RUiDwxrL8y/2lflzZ6vWz2adH/Mojh07ptpUY5BjXFychISEqOw4AusKe/XqpUqZ7a0XdBsxX6Bly/ee/1HYcSdjUMyJGaGYU8zdFYq5ebEn5maVcvBQMdcCiz7j5p6UmKmJ0mLUp1L/pfekylNRElShoviVLSVehQtKyZIlpXr16tKqVSt56aWXVDYZoopZLRBTM0xmR89xtOG+ePGianWN4Y2YG4P21hBrdO0rVKiQasUNGYegz5gxQ61NfNgaQrcRc9SVf/7dUbl5h3XlGYViTswIxZxi7q5QzM2LrZibWcqBI2J+T9CPSNycb6XNtCSJid8tC9YdkKWLFkrXrl1VB7rg4GDVFhplHRB1yCtkHfNlML18zJgxMmfOHOUghw4dUnNokGH+/fffVRMOCCwmnzsbXBRg32hheOXKFeVE6NR38uRJJeBYoDl+/Hh1QREZGammdOJYUJqiizjcCd32nn/+eZk2bZp6/Y7+dcAtxHx+wi5ZlrRfLl53TRcTd4NiTswIxZxi7q5QzM2LtZibXcpBWsQcgQ4srSYnyqxtP4ueA0eLQHSe27Jli0yYMEG6d+8uLVq0kNq1ays5x9wWzI3B8ESIOxZHoo0gfKRRo0aqXTWkeMiQITJy5Egl7wsWLFDDeT755BPZuXNnmuKLL75I2QfaUo8bN04tzhw0aJBqW92yZUu1UBOlOHgtuIjAa9NfI14zXjuOoVu3bmoqO7wJFxLIqqcV04v54qP7VWvEpIsXtK1IRqGYEzNCMaeYuysUc/Oii7k7SDlIi5jHWKJl/EEZveYHuXbz4aUpyIJjdszHH3+sBu2gJASS26ZNGyWpqNHGkMV8+fKlTGhHQOLRahCB4Y8IyHJaQn+Mvh+Evn88F54TPcYrV66s2hi2bt1aXUxA3vFa8Zr37t2rjsEZmF7MFyTtlQ3fn5AbdzxoiW8mQzEnZoRiTjF3Vyjm5gVi7i5SDtIi5pGTEqTfsm/k7OWb2qPTBvp5nzlzRs132bRpk8qGL1myRKZOnaoWVb7++uvSpUsXVfby3HPPqaGPKJHB4Me0REREhMp2d+rUSTp27Kike/jw4eo58Fx4Tsj3119/LUlJSfLjjz/KjRs3tFfpfEwt5vGbv5BV3xySSyxhcSoUc2JGKOYUc3eFYm5eIObuIuXAUTFvPTlROsxOkj2n7rUBdCYoh4HAwld+/fVXuXTpklo4it+D+F2RlsBjTp8+rfaDGnaU2WBRZ3rKUJyBacU8uGJFmbJlvRz+7WftXuIsKObEjFDMKebuCsXcvPxrzAq3kXLgiJi3mZIorS2xcv9F7VEkLZhWzMuHhMiq/bvkdiaM3Pd0UCdFMSdmg2JOMXdXKObEKDxKzGOmHpIW8Qny3rrTcs1Dx+1nFFOJ+ZdffqlE0RcZc4uY7zx4QLuHOBO0BMIiB5xnnO9169Zp9xBiXCjmFHN3hWJOjMKjxBx15X0/OCFnfk9fXTkxqZijZQ1i/HvvafcQZzJ79mwJDAxU55gZc2IWKOYUc3eFYk6MwsPEPGpyosTNOCw7T17RtibpwVRijg+eevXqqZ6RPmXLqqbu27Zt0+4lzmDfvn2qHyd6deI816xZUzXGJ8ToUMwp5u4KxZwYhQeJefTUZDGfv+0Cp69nEFOJOaYxoXUNsrjI6OJFozUO2tiQjLN9+3bVoxPTq3B+cZ7RLgjTrwgxOhRzirm7QjEnRuFBYt5qUoK8/uF3cuUvtq7OKKYSc3D16lXVtxLSiIwumr7j3yNGjJCzZ89qW5G0gF6hs2bNUtlxaynHKNmffvpJ24oQY0Mxp5i7KxRzYhTsiXnrqUnSflaSJJxl62pnYDoxBxcuXJDevXsrMYdAouwCHUTq168v8fHxqvm7q/pPmokrV66ohZ1ozB8QEKB+CPRz2r59ezl69Ki2JSHGh2JOMXdXKObEKNiKebRFzCOnHJYFOy7InX9YxOIMTCnmAFne9957T2rVqqVEUhdLCDrKW8aNGye7d+922ohUdwIfcHhzQcj1kiA/Pz91HitVqiSDBg2S8+fPa1sTYg4o5hRzd4ViToyCrZg3fX+PvPrh93L5r9vaFiSjmFbMdTZv3iz9+vWTkJCQFEFHm78Slg+n4OBgeeGFF2TatGmya9cuVQbjqZw6dUpWr16tasYbNGigvuEoW0HnFWTJEW3btlVvOtTyE2I2KOYUc3eFYk6MgrWYB4XWlrhpB2XrSZawOJNbt26ZW8zB7du3ZdOmTTJw4EAl47poQjoh6EWLFpWwsDDp0KGDEtOPPvpIvvvuO+3R7sm1a9dUh5WZM2eqC5dWrVqpc4JzgdIfZMr189S6dWtZsGCBnDlzRns0IeaDYu4kMf/6M6m97QuXR9ieryR0yWwl5mVLl1Hjtj0VijkxCtZiHlglTCau/0H+ZgWLUzF9xtya69evS2JioipjadiwYSpJR4lLccsveCwWRbkGuo/ExsbK66+/LosXL1YZ9T/++EN1ILlzxxyriu/evasuSlDWg7r7r776SiZNmiQ9evSQli1bSnh4uPoLAmQcx61nxyHlmOzZqVMndZGCxxJidijmThDzLWuk5oaPpcbalVLjM9cGXkelmfEWMS8mpb1Ly8GEg+p33Z9//pmuwF9Mr1//Sztb5oJiTozCqlWrlCwiwVetRi3Zl/Stdg9xFmhkgmQyzjHONTzNUQwn5jpY+Pnrr7+qgUTIoj/99NOq57ku6ainRhlHyZIllbDjwDHpEiIbGRkp/fv3V+UvOBkHDhxQkzBRc/3LL7+oX/A3btzQnilz0aX78uXLqjvK6dOn5dixY7Jx40ZZuHChjB49Wkk4LkJwfLjggHTj2CDi+KZCzFHig+OuW7euKleZMGGC2g/2TYi7QDHPuJiH79skQW+9LvlDKkih0CpSsHIll0WhKpUlf/lykiNXbsmTO4/ld1xNlVBBJilNUdcS9erJk/XrS7fuL2pny1xQzIlRgBfBmeBRgYEBMnlSvHYPcRbz5s1LcVX42yeffKLd82gMK+a2YAEoatGRSe/WrZs0b95cibgurMgkoy4dIouArOP/OCn4ih9CyC+ktlevXmpxJDLTkydPVtl2TMbUY8eOHWogT0JCwiMD2f09e/bIhg0bUh6PH3pcFEyZMkVGjhwpr7zyinTs2FGaNm0q1atXV69Jf10IvFb9NeN2XcQh6Ljiwl8FBgwYoNohHjlyRDsjhLgfFPOMi3lEwlbx6dlVHnvsMcmm4glLPO6yyP5ENsmZJ6/kzJsvY2HZBwS/cpVQ7WyZC4o5MQrwCFzwwjNQaoGBhKg4IM5h79696pzi3MJP0eDk4MGD2r2PxjRibsv3338vn3/+uZLfN954Q/XrRicXyKwu6/g3JBcBcdcFGNlob29vlW1HoIa9WLFiqlwEX/F4CDFO5qMC2yHLrdfB4/Eot9H3jaw3ng/fIF288VrwmvD68DoReE5caOAvAy+++KK888478sEHH6iBQfjLASGeAMXcCWJ+8Gvx7dNDiXnhGtUkZNK7Uv7dUaaO4AljpUznDpI9R04JD4/Qzpa5oJgTo4CKhIkTJ6YkAOEnqDZIS7kFsc/WrVtV2294n+6jSNCi5txRTCvmtqBEBVluZNXxw/Xuu++qrHhcXJw0atRIZcx1WX9UQJ4h0Y4Gst66aD8q8BoiIiIkKipKunfvrhayzp49W9asWaNaQ+KDGXXyhHgiFHPninnxFk2k7vE9Er53o6mjzuHtUmH8GMmePQfFnBAnAM/QBz3CTZCsrFChghr0yCYSaQcl0mjUYTvkEdUSFy9e1LZyDLcRc3tgASgWCyHjjEJ8dHFBbffy5ctVSQyk+OWXX5aYmBh55plnVHmM/kOankDtJPaD/aHc5q233lKZ70WLFqn6Iog3fuAvXbqkas5ZH05IaijmzhXzYk0aqZpze9uZKcJ2rpdybw+jmBPiRM6dO5cy6BGhJxuxlg1lvp7cRclRfvvtN1W9gY6BqIbQy1fgkhjyiLWAacWtxZwQYi4o5hRze0ExJyRzQCc8DHpE8wlUFuCv/5BzZH0h6Kg+QEktpoyTexw/flxWrlypyqhxziDkEHMIecWKFeW1115TFz7pgWJOCDEMFHOKub2gmBOSuWzZskU1qkA5i145gDJdrJvDOjoMekQWHc0uPPWv/ah4QD9ylPugRFpfrwgh1//qEB0drdpRZmTII8WcEGIYKOYUc3tBMSck80EbaQh6nz59UtblIbDuDoKOJhfIoqNEA6XAKNH98ccftUe7Hzgf6KaCdYAo+cGQR1y4oNGHXkeunyPMnUELbGecD4o5IcQwUMwp5vaCYk5I1oGp42gHjW4i6DCC0gzIJ0QUne3QeQ6lG+gkV69ePdWGetiwYaqTHEQWZS8okcEcF6ODzDY6pmDxJmbNoKsK2l337NlTmjVrZvl9E67+gqAPt8RFin4uMOQRFynIkP/888/aHjMOxZwQYhgo5lZivnhW+sW870vuJ+bvDFdiHhYWrp0tc0ExJ2YD0opmFWvXrlVZ9CZNmkjVqlWVqOqZdL2cA/9Glh0SjzbSKOkYMmSIzJgxQ3Wdg+ijAQcacaCLHrrCpKWFYHrBMeBCAxcLGDJ56tQpOXr0qGzatEldSIwZM0YdW+PGjdWxhYSEpFyA4LjwVa8dx+3oqodjQwMRzLHBpHlnQzEnhBgGT5cXLCjyLlnKaRnzok83ML+Yb1krYTvWS8DgAZI9W3aKOSEuApKODiRvv/22arUIUYewQsghrRBYfWiibSDDXqVKFSXAyDIjIz106FBVtx4fHy8rVqxQFwCIdevWqS52mNq+f//+RwYG+mDIIy4A8PhPP/1UXRBgv2PHjlWT4NGeWs+A4zXqQx1tAxcYWMypl6ig/SFEvG/fvjJ16lTZt2+fdjYyD4o5IcQweLq8IKPk5+MruQoUlArjR0vY7g32ZfVB8fVnUnv7OvFuF6PEvERkc7cQ89oWMS/dqb1kfzybtImO0c6WuaCYE3cC7ajRChCLISdMmJAyNwYiC6HVs+oQdoguAtIL+YWkI9OO0hDUrVsPefTy8lLDGVEmgiGO2N+jAhPVIdp4LPaBQOkJ9ot9IfON58NzQ8pxAYHXg9eG0F8vLjDQ9hq9x0ePHq1aXaPmHpn2rIRiTggxDJ4uL5i70KRpM8n2+ONSpuvzEr5/s31ZfUAgs1xt9TLJXz5IjcP3H9gn7XJvsKi99XOpuXG1FAytrI5pYny8drbMBcWcuDOoJ4fAIoONeTFLly5VcotZMW3atFGLRvUstC7EDwpI84My7/ZCl217+7INPH+1atWkadOm0rlzZzU5HplwDKbctm2bKnNBqY0roZgTQgwD5UVk7Lh/KzHPHxggVVcutIj1V3aF9b7YslZNyQwY9po88dhjkrtwYQldOltl0O1ub5II379FLfzMkSePFCxYSE58c0I7U+aCP9vE07h7966qwcZARZTBoN0gas1RbjJnzhzV2WX48OHy3HPPqcGMWESK+nRH5N1eoEYcFwGxsbHSrl07GTx4sKohx2JOZPZR7vL999/LhQsX1GAgLFBF5t9oUMwJIYaB8pLcK9cvIFBlh0vGtpHa2z5XmXB70modkPLQZXMln7+/PG4R81LqsV8oYbe3vRkCx1Tt46VSICRYnY+OnTtnqD+wK+HPNiHEESjmhBDDQHlJ5j/x8ZIjR07VhcT7uXbJ2fA9X6ka8hTR3oJYq8Q9/MAWqbJ0thSqWkVJed7SpZWkh+0yWRmLfkxbP5cIyzFByr2ejLBI+WNSukxZ2X/ggHaGzAd/tgkhjkAxJ4QYBspLMpis16t3HyXm2Z/IJkUbPSWV5k6R2tu/kLCdX6r2gciiQ7xrbvhYgoYPlnwB/qqEJXvOHOI3oLfUSdxmuV/b1iyhjulLqbnxE1W+kpwpf0zy5MsvixYv0c6OOeHPNiHEESjmhBDDQHm5x61bt2TAKwMld+68Sk5zFy0mRZ96Unxe6qJ6egcMGSje7Z+RQlVDJUfOXKrUAxKfp1RJJerB49+W8uNGmioC3nhFSnd+VgqGVpEcuXKrYyrr4ysLFi3Szop54c82IcQRKOaEEMNAebmfFStWSoOGjZR0J8t39pQyl+yPP5F8m+XfEFkVufMkh2WbHDlymSr0vxDgmAoWLChdunWT/fvNW75iDX+2CSGOQDEnhBgGyot90D1g565dMmLkSGnZKlJq1w5Tg3bCwiNSR0Sd5K+4z6TxTFw7mTFzphq2ZCZOnz4tMa2aqv7xzg6/0iWk6/PPOnXsNyHEmFDMCSGGgWJOzEpE9cqy6Nkg+WtcuNPj+OBqMjnGX0ICfbVnI4S4KxRzQohhoJgTs+JdJL+s7hJsV6ydEet7hEiJgnm0ZyOEuCsUc0KIYaCYE7OCkpNSBXJKHd8CdqNDtWJ2hds6sI29x1YskUdCiudRz0EIcW/4LieEGAaKOTErkOZZbcrJG/XL2g3cb0/GrQPb2HvsqKd9ZX7b8hRzQjwAvssJIYaBYk7MSrEihaVztRISVcFLQkvmuy8cFXPbx9XzLSAdQovLxFaBUiBfXu3ZCCHuCsWcEGIYKObEjKAjS2CZEhIZUkTebu6j6sFtY3e/KnZl3Dqwje3jsKC0V52S4lMkj3zyv4+0ZySEuCsUc0KIYaCYE7Nx5coViQitIFtermRXtp0Vw5r6yKgRb2nPSghxVyjmhBDDQDEnZmNgvz4yPsrXrkw7MxIHVpXgAB/tWQkh7grFnBBiGCjmxGxg+A/6jNuTaWfG72NqS+6cObRnJYS4KxRzQohhoJhnnFu3bkmnTh2lRYvmKvr27SM3b97U7k0f+j6jo9uo0o20MHv2LNmyZYv2P/OAc7Zu3ToZNWrUQ8ORRZ3OCjyXvdeAiI+P52RQQtwAijkhxDBQzDOGrZTrMXr0aG2LrAVSjuc3m5hDcBuGV5fmoWVlWOMyD43ZcYF2JTozAiUz9l4Dol8DH/Er6SXrPlurHQUhxIxQzAkhhoFinjEglHFxz6Rkye1luv/++28ZOXJEirTbuy8qKlImTJig7se/k5KSUu1H3w7/3759+337sn0OhKsuDqzBa3v5xa6qVhtf9eO2BuctOKBspi/mzIz4aUQtqRZURnWJIYSYE4o5IcQwUMwzhi7mEGF7WWp7wox4mFBD8q9evWpXzK23s97++vXrhhTzl7u/IK81KqsWUqKtYYtG9bV77hH/nwnSr5G/XfE1Q6zoWF5iWjXVjoYQYjYo5oQQw0Axzxj2hFmXaaCLu/Vt1uUm1o+3FmnbzLv1dkuWLEm1jb4vYLRSFtt6cPzfloZ1aqn+4dbbmSmwSLSUV8GU7++DOHHihPq+6EEIMQYUc0KIYbAW83+u/abdStKKLsR66EJ95MgR9X9dpm3RhRvlK998c0K79cFibi34YP36dan2b0YxL1wgryoJsd7ObNExwkcWLlyoHVFqRg0fqo4xuExRaVCxdErgXOAvCFxASohroZgTQgzDnwteShHzO2eTtFtJerEtbdHF/EFlJRTz+7cxY0yO8Vc19Lb06tpRBjf2f+CFx+ouwVItOCDV95QQkrVQzAkhhuH6qjdTxPzW8c3arcRRdDG2Fm9rObZXymIt02kVc2sJd5dSFncQc4z2r1IhQDuiZPA9QGbc3vbWMTm2nKrFJ4S4Boo5IcQw/LVmXIqY39g8S7uVOIp1htw67An1w+5Pi5jbhnXfdOuSGiMs/vQUMUedeZkiedWxWMei54Ptbm8dyKaj1IUQ4hoo5oQQw3D7u50pYn51RgftVpIWbOXcVrKBtTBb359WMcf/rdsl2g4zsn4ttve5Alvpxv9tsd3GE8PeeSGEZA189xFCDMPdO7fk8piIFDm/89M32j3ESFiLOUTdLFDMHQuKOSGug+8+QoihsK4zZ9bcmFDM3Tso5oS4Dr77CCGGAllyXcwR/5e0XruHGAWKuXsHxZwQ18F3HyHEcFgvAr08roH8/StHjJOMQzF3LCjmhLgOvvsIIYYDw4Wshw3h3/9cuaDdS0j6oJg7FhRzQlwH332EEEOCkhbrhaDInN8+tV+7l5C0QzF3LCjmhLgOvvsIIYYFQ4as5RyBxaHMnpP0QDF3LCjmhLgOvvsIIYYGo/mvjG+aSs4R1/77qtzc96HcvfmntiUhD8dWuvPnzKZusw7cZr2NJwbOAyHENfDdRwgxPMiQ/7ngpfvk3DqQWcc2DMaDAsJpT0QZqYNiTojr4LuPEGIaUGOO3ub2xJzBeFRQzB0LijkhroPvPkKI6UDXFpSxoJzFunsLg/GwoJg7FhRzQlwH332EEEI8Aoq5Y0ExJ8R18N1HCCHEI7AV89lxgTKscZlUMT7KN9U2nhgUc0JcB999hBBCPAJbMcf/o0O8UoXtNp4YFHNCXAfffYQQQjwCe2I+v235VEExp5gT4kr47iOEEOIR2BNze2G9jScGzgEhxDXw3UcIIcQjsJVuewJKMaeYE+JK+O4jhBDiEVDMHQuKOSGug+8+QgghHgHF3LGgmBPiOvjuI4QQ4hFQzB0LijkhroPvPkIIIR4BxdyxoJgT4jr47iOEEOIRUMwdC4o5Ia6D7z5CCCEeAcXcsaCYE+I6+O4jhBDiEVDMHQuKOSGug+8+QgghHoEjYp4r+xPy04haqbYzY+AY1vcISRWJA6va3dY2KOaEuA6++wghhHgEjoh5odzZZHWX4FTbmTFaBheWQK/cEloyX0oUyJVNTr1Zw+721kExJ8R18N1HCCHEIyiUO7us6FheyefuflWUqNqSI3t2aRhY8D5ZNVtAysc28ZP5bcunREjxPLLl5Up2t9cDmXb81YAQ4hoo5oQQQjwCZIIhp/haqkAOu5nhmqGV5Cm/gtKlVnEl7/bk1QyBY7ONIvlyyehmZe1urwcuXArmvv+ChRCSNVDMCSGEeATFihSWiS0DVfZ4VptykitHDu2ee0yfNlWaVSotXWuUlCCv3HYFN61RplDOLK1bxwVF0Xw5JTExUTuqZCoE+kuJ/Dlk0bNB970e1J+/F+kr5Yrmlpx2zgshJGugmBNCCPEItmzZIkULFZCqfiWllFchWfbBEu2e1DR+6klpX72MknfrUpD0RsOAQjI7LjCVCGdmDG1cWnJlzyY3b97UjiiZjh3ay3OhxaWebwHJnzNbqosHn0K5pGX5ItI33FueDKupPYIQktVQzAkhhHgMV65cUYJ++vRp7Rb7DB44QGXUreU1vVGqcAFpWaGwXYnOjAgokktKFiuqHck9cMx+3sXvqz3Xo1+Et1Tw9ZYTJ05ojyCEZDUUc0IIISQTiYtprbq9ONIRJaOBjjJY+Pn6a4O0Z0/N7t27JcivrN0LiMjmTSjlhLgYijkhhBCSiSxcuFBq+nipbi+ZWWuOfQd45ZJy3kWVgBNCzAfFnBBCCMlEUOtdpkQx6VStxH213c4M7LtDleKsESfExFDMCSGEkEwGC02fCi4jU6OC7NZ3OyPGN/cXv1LFHlk/TwgxLhRzQgghJAuYO2uGFMiX12622xlRplQJtbCVEGJeKOaEEEIIIYQYAIo5IYQQQgghBoBiTgghhBBCiAGgmBNCCCGEEGIAKOaEEEIIIYQYAIo5IYQQQgghLkfk/wPUzbEYVhBOWgAAAABJRU5ErkJggg==;" vertex="1" parent="1">
          <mxGeometry x="180" y="810" width="930" height="670.56" as="geometry" />
        </mxCell>
      </root>
    </mxGraphModel>
  </diagram>
</mxfile>
